<?xml version="1.0" standalone="no"?>
<!DOCTYPE svg PUBLIC "-//W3C//DTD SVG 1.1//EN" "http://www.w3.org/Graphics/SVG/1.1/DTD/svg11.dtd" >
<svg xmlns="http://www.w3.org/2000/svg" xmlns:xlink="http://www.w3.org/1999/xlink" version="1.1">
<metadata>
Created by FontForge 20230101 at Tue Jul 27 20:58:24 2021
 By Unknown
Copyright (c) 2010 Linotype GmbH, www.linotype.com. All rights reserved. This font software may not be reproduced, modified, disclosed or transferred without the express written approval of Linotype GmbH. Univers is a trademark of Linotype Corp. registered in the U.S. Patent and Trademark Office and may be registered in certain other jurisdictions in the name of Linotype Corp. or its licensee Linotype GmbH. This typeface is original artwork of Adrian Frutiger and Linotype Design Studio. The design may be protected in certain jurisdictions.
</metadata>
<defs>
<font id="UniversNextPro-Regular" horiz-adv-x="580" >
  <font-face 
    font-family="Univers Next Pro"
    font-weight="400"
    font-stretch="normal"
    units-per-em="1000"
    panose-1="2 11 5 3 3 2 2 2 2 3"
    ascent="750"
    descent="-250"
    x-height="505"
    cap-height="723"
    bbox="-162 -222 1034 929"
    underline-thickness="50"
    underline-position="-125"
    unicode-range="U+000D-FB04"
  />
<missing-glyph horiz-adv-x="512" 
d="M278 117h-56v67h56v-67zM271 234h-48v17q0 52 12.5 79.5t46.5 60.5q31 30 40.5 48.5t9.5 40.5q0 35 -22 57t-54 22q-71 0 -82 -95l-50 8q7 69 43 103t92 34q54 0 89 -34.5t35 -90.5q0 -36 -13 -64t-50 -62q-31 -28 -40 -47t-9 -53v-24zM50 50h412v617h-412v-617zM0 718
h512v-718h-512v718z" />
    <glyph glyph-name="IJ" unicode="IJ" horiz-adv-x="809" 
d="M192 0h-94v723h94v-723zM725 217q0 -227 -221 -227q-89 0 -148 50t-59 146h96q0 -53 27.5 -87.5t86.5 -34.5q124 0 124 155v504h94v-506z" />
    <glyph glyph-name="ij" unicode="ij" horiz-adv-x="504" 
d="M175 634h-98v89h98v-89zM170 0h-88v505h88v-505zM427 634h-98v89h98v-89zM422 -63q0 -73 -30 -98t-105 -25q-28 0 -50 2v66q19 -3 38 -3q39 0 49 18.5t10 61.5v546h88v-568z" />
    <glyph glyph-name="napostrophe" unicode="&#x22;n" horiz-adv-x="593" 
d="M514 0h-88v280q0 30 -2 51t-8.5 44t-19 37t-34.5 23t-53 9q-39 0 -67.5 -16.5t-43.5 -45t-21.5 -60.5t-6.5 -70v-252h-88v375q0 43 -3 130h87l3 -81q61 87 165 87q96 0 138 -50t42 -147v-314zM65 723l-60 -225h-65l27 225h98z" />
    <glyph glyph-name="f_f" unicode="ff" horiz-adv-x="682" 
d="M326 662q-26 2 -39 2q-41 0 -61.5 -14t-20.5 -53v-92h113v-61h-113v-444h-88v444h-101v61h101v48q0 43 4.5 71t17.5 54t41.5 38.5t72.5 12.5q35 0 73 -3v-64zM667 662q-26 2 -39 2q-41 0 -61.5 -14t-20.5 -53v-92h113v-61h-113v-444h-88v444h-101v61h101v48q0 43 4.5 71
t17.5 54t41.5 38.5t72.5 12.5q36 0 73 -3v-64z" />
    <glyph glyph-name="fi" unicode="fi" horiz-adv-x="584" 
d="M326 662q-26 2 -39 2q-41 0 -61.5 -14t-20.5 -53v-92h113v-61h-113v-444h-88v444h-101v61h101v48q0 43 4.5 71t17.5 54t41.5 38.5t72.5 12.5q35 0 73 -3v-64zM512 634h-98v89h98v-89zM507 0h-88v505h88v-505z" />
    <glyph glyph-name="fl" unicode="fl" horiz-adv-x="589" 
d="M326 662q-26 2 -39 2q-41 0 -61.5 -14t-20.5 -53v-92h113v-61h-113v-444h-88v444h-101v61h101v48q0 43 4.5 71t17.5 54t41.5 38.5t72.5 12.5q35 0 73 -3v-64zM507 0h-88v723h88v-723z" />
    <glyph glyph-name="f_f_i" unicode="ffi" horiz-adv-x="930" 
d="M326 662q-26 2 -39 2q-41 0 -61.5 -14t-20.5 -53v-92h113v-61h-113v-444h-88v444h-101v61h101v48q0 43 4.5 71t17.5 54t41.5 38.5t72.5 12.5q35 0 73 -3v-64zM667 662q-26 2 -39 2q-41 0 -61.5 -14t-20.5 -53v-92h113v-61h-113v-444h-88v444h-101v61h101v48q0 43 4.5 71
t17.5 54t41.5 38.5t72.5 12.5q36 0 73 -3v-64zM853 634h-98v89h98v-89zM848 0h-88v505h88v-505z" />
    <glyph glyph-name="f_f_l" unicode="ffl" horiz-adv-x="930" 
d="M326 662q-26 2 -39 2q-41 0 -61.5 -14t-20.5 -53v-92h113v-61h-113v-444h-88v444h-101v61h101v48q0 43 4.5 71t17.5 54t41.5 38.5t72.5 12.5q35 0 73 -3v-64zM667 662q-26 2 -39 2q-41 0 -61.5 -14t-20.5 -53v-92h113v-61h-113v-444h-88v444h-101v61h101v48q0 43 4.5 71
t17.5 54t41.5 38.5t72.5 12.5q36 0 73 -3v-64zM848 0h-88v723h88v-723z" />
    <glyph glyph-name=".notdef" horiz-adv-x="512" 
d="M278 117h-56v67h56v-67zM271 234h-48v17q0 52 12.5 79.5t46.5 60.5q31 30 40.5 48.5t9.5 40.5q0 35 -22 57t-54 22q-71 0 -82 -95l-50 8q7 69 43 103t92 34q54 0 89 -34.5t35 -90.5q0 -36 -13 -64t-50 -62q-31 -28 -40 -47t-9 -53v-24zM50 50h412v617h-412v-617zM0 718
h512v-718h-512v718z" />
    <glyph glyph-name=".null" horiz-adv-x="567" 
 />
    <glyph glyph-name="nonmarkingreturn" horiz-adv-x="333" 
 />
    <glyph glyph-name="CR" unicode="&#xd;" horiz-adv-x="290" 
 />
    <glyph glyph-name="space" unicode=" " horiz-adv-x="290" 
 />
    <glyph glyph-name="exclam" unicode="!" horiz-adv-x="298" 
d="M203 723l-16 -545h-76l-16 545h108zM199 0h-100v101h100v-101z" />
    <glyph glyph-name="quotedbl" unicode="&#x22;" horiz-adv-x="437" 
d="M342 723l-12 -230h-62l-12 230h86zM182 723l-13 -230h-61l-13 230h87z" />
    <glyph glyph-name="numbersign" unicode="#" 
d="M560 436h-116l-28 -157h105v-71h-117l-37 -208h-77l36 208h-123l-37 -208h-77l37 208h-105v71h118l28 157h-105v70h117l39 217h77l-39 -217h123l39 217h77l-39 -217h104v-70zM367 436h-123l-29 -157h124z" />
    <glyph glyph-name="dollar" unicode="$" 
d="M538 190q0 -62 -32 -106.5t-79 -65.5t-106 -26v-83h-49v82q-103 2 -166 49t-63 151h92q0 -65 36 -94t101 -33v256q-49 15 -79 27t-66 35.5t-53.5 59t-17.5 83.5q0 89 63 138t153 55v83h49v-84q193 -14 203 -178h-92q-2 49 -31 72.5t-80 31.5v-249q29 -9 46 -14t43 -15.5
t41.5 -20t34 -25.5t28.5 -33.5t17 -42t7 -53.5zM272 409v235q-52 -3 -87.5 -32t-35.5 -81q0 -87 123 -122zM445 186q0 27 -10 48t-30.5 34.5t-38 21t-45.5 16.5v-241q54 8 89 38t35 83z" />
    <glyph glyph-name="percent" unicode="%" horiz-adv-x="918" 
d="M887 187q0 -83 -40.5 -138t-121.5 -55q-79 0 -120.5 55t-41.5 137t42 138t121 56q81 0 121 -55t40 -138zM710 753l-431 -779h-71l433 779h69zM355 546q0 -83 -40.5 -138.5t-121.5 -55.5q-79 0 -120.5 56t-41.5 137q0 82 42 137.5t122 55.5q81 0 120.5 -54t39.5 -138z
M814 186q0 33 -6.5 61.5t-26.5 52.5t-53 24q-35 0 -57 -24t-28.5 -53t-6.5 -64q0 -52 21.5 -93t68.5 -41q48 0 68 41.5t20 95.5zM282 545q0 33 -6.5 61t-26.5 52t-53 24q-35 0 -56.5 -24t-28 -52.5t-6.5 -63.5q0 -52 21 -93.5t68 -41.5q48 0 68 41.5t20 96.5z" />
    <glyph glyph-name="ampersand" unicode="&#x26;" horiz-adv-x="728" 
d="M713 352h-131v-352h-249q-54 0 -100 8.5t-89.5 29.5t-69 63t-25.5 102q0 79 46.5 125.5t123.5 60.5q-137 28 -137 162q0 91 73.5 139t165.5 48q51 0 133 -13v-77q-70 18 -116 18q-67 0 -115 -30t-48 -95q0 -122 197 -122h121v157h89v-157h131v-67zM493 73v278h-124
q-43 0 -75.5 -4t-69.5 -17t-57.5 -42.5t-20.5 -74.5q0 -32 10.5 -56.5t31 -39t42.5 -24t53 -13.5t53 -5.5t51 -1.5h106z" />
    <glyph glyph-name="quotesingle" unicode="'" horiz-adv-x="277" 
d="M182 723l-13 -230h-61l-13 230h87z" />
    <glyph glyph-name="parenleft" unicode="(" horiz-adv-x="299" 
d="M247 -148h-63q-40 100 -57 146.5t-37.5 131.5t-20.5 156q0 67 17 143.5t36.5 131.5t51.5 135q7 18 11 27h62q-32 -101 -46 -151t-30 -135t-16 -156q0 -167 92 -429z" />
    <glyph glyph-name="parenright" unicode=")" horiz-adv-x="300" 
d="M231 288q0 -70 -19 -152.5t-39.5 -139t-56.5 -144.5h-63q4 14 20.5 68.5t22.5 74t18 66.5t17 76t9.5 68.5t4.5 75.5q0 71 -15.5 155t-31 138t-46.5 149h63q38 -91 57.5 -144.5t39 -136.5t19.5 -154z" />
    <glyph glyph-name="asterisk" unicode="*" horiz-adv-x="568" 
d="M471 507l-147 16l86 -126l-65 -32l-60 134l-64 -137l-62 36l87 124l-149 -15v74l150 -15l-89 121l64 36l63 -135l62 135l63 -36l-88 -121l149 15v-74z" />
    <glyph glyph-name="plus" unicode="+" horiz-adv-x="673" 
d="M591 212h-215v-212h-79v212h-215v74h215v211h79v-211h215v-74z" />
    <glyph glyph-name="comma" unicode="," horiz-adv-x="290" 
d="M212 99l-87 -219h-72l54 219h105z" />
    <glyph glyph-name="hyphen" unicode="-" horiz-adv-x="341" 
d="M301 234h-261v66h261v-66z" />
    <glyph glyph-name="period" unicode="." horiz-adv-x="290" 
d="M196 0h-101v99h101v-99z" />
    <glyph glyph-name="slash" unicode="/" horiz-adv-x="290" 
d="M300 738l-233 -750h-77l234 750h76z" />
    <glyph glyph-name="zero" unicode="0" 
d="M534 371q0 -54 -6 -104t-23.5 -102t-44 -90t-71 -62t-101.5 -24q-72 0 -122.5 35.5t-75 96t-34.5 121.5t-10 132q0 52 7 100.5t24.5 97.5t45 85t71 58.5t99.5 22.5t100 -22.5t70 -58.5t42.5 -86t22.5 -98t6 -102zM440 360q0 307 -147 307q-153 0 -153 -306q0 -37 2.5 -71
t11.5 -77.5t24 -75t43 -53.5t66 -22q48 0 81 30t47.5 80.5t19.5 94t5 93.5z" />
    <glyph glyph-name="one" unicode="1" 
d="M369 0h-90v629q-61 -60 -159 -103v84q93 37 170 113h79v-723z" />
    <glyph glyph-name="two" unicode="2" 
d="M515 0h-463v87q287 257 340 368q19 43 19 83q0 58 -34.5 92.5t-89.5 34.5q-59 0 -95.5 -38t-36.5 -101h-95q1 101 66.5 156.5t163.5 55.5q92 0 154.5 -49.5t62.5 -142.5q0 -108 -133 -259q-53 -60 -114 -118l-102 -96h357v-73z" />
    <glyph glyph-name="three" unicode="3" 
d="M534 196q0 -101 -74.5 -154t-178.5 -53t-170 51.5t-72 155.5h94q1 -63 45 -99.5t105 -36.5q65 0 109.5 38t44.5 104q0 69 -48 103t-117 34q-25 0 -39 -2v75q21 -3 41 -3q62 0 106 34t44 96q0 67 -39.5 98t-100.5 31t-98 -33.5t-44 -97.5h-92q4 96 72 148.5t163 52.5
q99 0 165 -50t66 -146q0 -63 -37 -105t-98 -58q74 -21 113.5 -64t39.5 -119z" />
    <glyph glyph-name="four" unicode="4" 
d="M556 166h-111v-166h-90v166h-327v86l307 471h110v-488h111v-69zM356 235v398l-253 -398h253z" />
    <glyph glyph-name="five" unicode="5" 
d="M528 237q0 -113 -67 -181.5t-175 -68.5q-98 0 -162 49t-68 148h97q2 -58 39 -92t93 -34q71 0 109.5 51.5t38.5 128.5q0 72 -35.5 121t-102.5 49q-48 0 -85.5 -29t-47.5 -78h-93l16 422h406v-71h-320l-12 -248q59 73 153 73q100 0 158 -67t58 -173z" />
    <glyph glyph-name="six" unicode="6" 
d="M536 235q0 -106 -65.5 -176t-166.5 -70q-73 0 -125 30t-79 83.5t-38.5 113t-11.5 131.5q0 58 6.5 109.5t24 104.5t45 91.5t74 62.5t107.5 24q101 0 159.5 -51t58.5 -138h-95q-5 59 -34.5 87.5t-90.5 28.5q-36 0 -63.5 -13.5t-44.5 -39t-29 -53.5t-17.5 -65.5t-7.5 -66.5
t-3 -64q54 110 181 110q99 0 157 -67.5t58 -171.5zM445 233q0 74 -35.5 122.5t-103.5 48.5q-70 0 -111 -49.5t-41 -124.5q0 -71 39.5 -119.5t106.5 -48.5q69 0 107 48.5t38 122.5z" />
    <glyph glyph-name="seven" unicode="7" 
d="M515 642l-269 -642h-107l286 646h-375v77h465v-81z" />
    <glyph glyph-name="eight" unicode="8" 
d="M539 201q0 -103 -73 -158.5t-175 -55.5q-106 0 -178 51t-72 154q0 74 42 121t113 64q-67 20 -104 57.5t-37 105.5q0 65 37 111.5t89 66.5t111 20q95 0 164.5 -49t69.5 -142q0 -67 -38 -109.5t-102 -59.5q153 -42 153 -177zM437 540q0 62 -42 97t-103 35q-62 0 -105 -35
t-43 -99q0 -63 42.5 -95t104.5 -32q60 0 103 34.5t43 94.5zM446 201q0 68 -45.5 104.5t-112.5 36.5q-66 0 -110.5 -37.5t-44.5 -104.5t44 -105t110 -38t112.5 38.5t46.5 105.5z" />
    <glyph glyph-name="nine" unicode="9" 
d="M527 392q0 -407 -255 -407q-96 0 -155.5 47t-65.5 144h94q2 -58 36.5 -88t90.5 -30q34 0 60.5 13t43.5 29.5t29.5 48.5t19 54t10.5 63t5 58.5t2 55.5q-56 -107 -179 -107q-95 0 -157 65.5t-62 165.5q0 102 69 167.5t171 65.5q243 0 243 -345zM428 508q0 68 -40 112.5
t-105 44.5q-67 0 -108 -45t-41 -115t38 -116t103 -46q73 0 113 45.5t40 119.5z" />
    <glyph glyph-name="colon" unicode=":" horiz-adv-x="290" 
d="M196 404h-101v100h101v-100zM196 0h-101v101h101v-101z" />
    <glyph glyph-name="semicolon" unicode=";" horiz-adv-x="290" 
d="M198 404h-101v100h101v-100zM212 100l-87 -220h-72l54 220h105z" />
    <glyph glyph-name="less" unicode="&#x3c;" horiz-adv-x="673" 
d="M591 9l-509 200v78l509 201v-79l-416 -162l416 -159v-79z" />
    <glyph glyph-name="equal" unicode="=" horiz-adv-x="673" 
d="M591 310h-509v72h509v-72zM591 114h-509v72h509v-72z" />
    <glyph glyph-name="greater" unicode="&#x3e;" horiz-adv-x="673" 
d="M591 209l-509 -200v79l416 159l-416 162v79l509 -201v-78z" />
    <glyph glyph-name="question" unicode="?" horiz-adv-x="522" 
d="M440 552q0 -26 -9.5 -52t-18.5 -43t-36 -45t-39.5 -39.5t-50.5 -46.5q-26 -24 -33.5 -38t-7.5 -38v-72h-77v72q0 50 14 74.5t67 72.5q56 51 72 73q25 36 25 78q0 61 -42.5 89.5t-106.5 28.5q-48 0 -104 -16v73q67 12 115 12q101 0 166.5 -43.5t65.5 -139.5zM257 0h-101
v101h101v-101z" />
    <glyph glyph-name="at" unicode="@" horiz-adv-x="990" 
d="M941 371q0 -125 -66 -200t-158 -75q-47 0 -77.5 24.5t-32.5 70.5q-21 -41 -63 -68t-95 -27q-77 0 -117 45t-40 118q0 102 56 178.5t154 76.5q95 0 126 -80l11 71h78l-43 -254q-3 -11 -3 -31q0 -64 56 -64q55 0 100.5 59t45.5 156q0 139 -90 222.5t-261 83.5
q-173 0 -288.5 -117.5t-115.5 -287.5q0 -156 98 -250t259 -94q141 0 242 60l30 -51q-112 -71 -272 -71q-190 0 -307.5 110t-117.5 296q0 194 135 328.5t340 134.5q195 0 305.5 -98.5t110.5 -265.5zM610 352q0 46 -23.5 76t-70.5 30q-51 0 -86.5 -38t-49.5 -98q-7 -29 -7 -62
q0 -47 23 -76t71 -29q52 0 88.5 42t49.5 104q5 25 5 51z" />
    <glyph glyph-name="A" unicode="A" horiz-adv-x="712" 
d="M707 0h-108l-75 191h-350l-74 -191h-95l294 723h103zM495 262l-150 380l-145 -380h295z" />
    <glyph glyph-name="B" unicode="B" horiz-adv-x="670" 
d="M612 201q0 -201 -271 -201h-243v723h255q95 0 162.5 -45t67.5 -136q0 -128 -135 -164q164 -30 164 -177zM486 534q0 59 -40 87t-102 28h-154v-241h140q70 0 113 29.5t43 96.5zM514 205q0 134 -171 134h-153v-265h124q34 0 58.5 2t53 9.5t46.5 21t30 38.5t12 60z" />
    <glyph glyph-name="C" unicode="C" horiz-adv-x="681" 
d="M632 194q-13 -107 -83.5 -156t-180.5 -49q-159 0 -238 101.5t-79 264.5q0 75 20.5 142.5t59.5 121t101.5 85t141.5 31.5q100 0 175 -51t78 -147h-99q-6 59 -49.5 90t-105.5 31q-58 0 -103 -26.5t-70 -71t-37.5 -95.5t-12.5 -106q0 -45 6.5 -85.5t23 -79t41 -66.5t63 -45
t86.5 -17q69 0 113 35.5t48 92.5h101z" />
    <glyph glyph-name="D" unicode="D" horiz-adv-x="744" 
d="M693 364q0 -154 -74.5 -249.5t-224.5 -110.5q-40 -4 -122 -4h-174v723h212q128 0 200 -30q183 -76 183 -329zM595 364q0 170 -103 244q-60 43 -188 43h-112v-578h130q144 0 208.5 72.5t64.5 218.5z" />
    <glyph glyph-name="E" unicode="E" horiz-adv-x="608" 
d="M560 0h-462v723h448v-73h-355v-240h340v-73h-340v-264h369v-73z" />
    <glyph glyph-name="F" unicode="F" horiz-adv-x="565" 
d="M530 650h-339v-242h323v-72h-323v-336h-93v723h432v-73z" />
    <glyph glyph-name="G" unicode="G" horiz-adv-x="731" 
d="M646 32q-147 -40 -248 -40q-166 0 -256.5 102t-90.5 270q0 161 87.5 267.5t246.5 106.5q106 0 176 -51t79 -153h-98q-21 129 -161 129q-79 0 -132.5 -44.5t-75 -108.5t-21.5 -141q0 -61 14.5 -114t43.5 -96t78 -68t113 -25q81 0 154 22v215h-173v71h264v-342z" />
    <glyph glyph-name="H" unicode="H" horiz-adv-x="758" 
d="M660 0h-94v334h-374v-334h-94v723h94v-315h374v315h94v-723z" />
    <glyph glyph-name="I" unicode="I" horiz-adv-x="290" 
d="M192 0h-94v723h94v-723z" />
    <glyph glyph-name="J" unicode="J" horiz-adv-x="519" 
d="M435 217q0 -227 -221 -227q-89 0 -148 50t-59 146h96q0 -53 27.5 -87.5t86.5 -34.5q124 0 124 155v504h94v-506z" />
    <glyph glyph-name="K" unicode="K" horiz-adv-x="652" 
d="M652 0h-123l-335 393l304 330h120l-317 -324zM192 0h-94v723h94v-723z" />
    <glyph glyph-name="L" unicode="L" horiz-adv-x="568" 
d="M547 0h-449v723h94v-650h355v-73z" />
    <glyph glyph-name="M" unicode="M" horiz-adv-x="966" 
d="M868 0h-88v651l-255 -651h-86l-256 652v-652h-85v723h150l238 -611l232 611h150v-723z" />
    <glyph glyph-name="N" unicode="N" horiz-adv-x="766" 
d="M668 0h-126l-359 627v-627h-85v723h126l359 -629v629h85v-723z" />
    <glyph glyph-name="O" unicode="O" horiz-adv-x="755" 
d="M704 367q0 -108 -33 -191t-108.5 -135.5t-185.5 -52.5q-162 0 -244 104t-82 270q0 163 84 269.5t243 106.5q164 0 245 -101.5t81 -269.5zM605 364q0 47 -7 88.5t-23.5 81t-42 67.5t-65.5 45t-90 17q-61 0 -106.5 -26t-71 -70t-37.5 -95t-12 -108q0 -58 12 -109.5t37 -96
t71 -70.5t107 -26t107 26t71.5 70.5t37.5 96t12 109.5z" />
    <glyph glyph-name="P" unicode="P" horiz-adv-x="621" 
d="M588 515q0 -66 -35 -115t-97 -72q-52 -19 -131 -19h-133v-309h-94v723h223q40 0 64 -1.5t57.5 -10t58.5 -24.5q87 -56 87 -172zM490 522q0 75 -45.5 102t-126.5 27h-126v-269h99q44 0 75 5t61.5 18.5t46.5 43t16 73.5z" />
    <glyph glyph-name="Q" unicode="Q" horiz-adv-x="755" 
d="M732 0q-21 0 -60.5 0.5t-59.5 0.5q-42 0 -124 -6t-123 -6q-79 0 -140.5 30.5t-98.5 83t-56 118.5t-19 141q0 165 84 270.5t245 105.5q159 0 241.5 -100t82.5 -261q0 -213 -143 -315q70 10 171 10v-72zM605 364q0 47 -7 88.5t-23.5 81t-42 67.5t-65.5 45t-90 17
q-61 0 -106.5 -26t-71 -70t-37.5 -95t-12 -108q0 -58 12 -109t37 -95.5t71 -70.5t107 -26t107 26t71.5 70.5t37.5 95.5t12 109z" />
    <glyph glyph-name="R" unicode="R" horiz-adv-x="674" 
d="M618 0h-106q-7 16 -11.5 33t-7.5 38.5t-4 33t-3 39t-3 34.5q-3 33 -5 49t-7.5 38t-14 32t-23 20.5t-36 14t-51.5 3.5h-154v-335h-94v723h258q38 0 71 -4.5t65.5 -17t55.5 -32t37 -51.5t14 -73q0 -131 -144 -171q65 -14 90.5 -50t32.5 -100q2 -16 4 -46.5t5 -57t7 -50.5
q9 -48 24 -70zM503 534q0 36 -14 60.5t-39.5 36t-52.5 16t-62 4.5h-143v-245h117q31 0 55.5 2t51.5 10t45 21.5t30 37.5t12 57z" />
    <glyph glyph-name="S" unicode="S" horiz-adv-x="635" 
d="M581 202q0 -55 -23.5 -97t-63 -66.5t-86 -36.5t-98.5 -12q-109 0 -179 49.5t-77 154.5h97q4 -66 49 -98.5t113 -32.5q69 0 120.5 32t51.5 96q0 51 -38 79.5t-105 49.5l-62 19q-37 12 -61.5 21t-54.5 25.5t-47.5 35.5t-30 48.5t-12.5 65.5q0 68 38.5 114.5t93.5 65.5
t122 19q101 0 169 -43.5t69 -139.5h-95q-11 112 -144 112q-64 0 -111 -30t-47 -90q0 -73 123 -114l82 -27q40 -13 62 -21.5t54 -26t49 -36t29.5 -48.5t12.5 -68z" />
    <glyph glyph-name="T" unicode="T" horiz-adv-x="568" 
d="M561 649h-231v-649h-93v649h-230v74h554v-74z" />
    <glyph glyph-name="U" unicode="U" horiz-adv-x="758" 
d="M669 276q0 -139 -75.5 -214t-214.5 -75q-290 0 -290 291v445h98v-432q0 -104 30 -151q50 -78 163 -78q59 0 106.5 26.5t69.5 77.5q18 42 18 127v430h95v-447z" />
    <glyph glyph-name="V" unicode="V" horiz-adv-x="667" 
d="M661 723l-273 -723h-108l-274 723h102l230 -633l230 633h93z" />
    <glyph glyph-name="W" unicode="W" horiz-adv-x="1049" 
d="M1034 723l-192 -723h-119l-199 633l-194 -633h-122l-193 723h99l159 -640l196 640h114l201 -639l158 639h92z" />
    <glyph glyph-name="X" unicode="X" horiz-adv-x="668" 
d="M661 0h-111l-218 318l-216 -318h-109l266 376l-255 347h116l199 -292l196 292h108l-246 -347z" />
    <glyph glyph-name="Y" unicode="Y" horiz-adv-x="635" 
d="M644 723l-279 -424v-299h-94v303l-279 420h111l220 -344l217 344h104z" />
    <glyph glyph-name="Z" unicode="Z" horiz-adv-x="584" 
d="M563 0h-542v83l426 567h-399v73h503v-77l-429 -573h441v-73z" />
    <glyph glyph-name="bracketleft" unicode="[" horiz-adv-x="299" 
d="M251 -149h-174v872h174v-56h-99v-759h99v-57z" />
    <glyph glyph-name="backslash" unicode="\" horiz-adv-x="290" 
d="M300 -12h-77l-233 750h77z" />
    <glyph glyph-name="bracketright" unicode="]" horiz-adv-x="299" 
d="M222 -149h-174v57h99v759h-99v56h174v-872z" />
    <glyph glyph-name="asciicircum" unicode="^" horiz-adv-x="673" 
d="M576 303h-81l-159 333l-157 -333h-82l206 420h67z" />
    <glyph glyph-name="underscore" unicode="_" horiz-adv-x="500" 
d="M501 -125h-502v50h502v-50z" />
    <glyph glyph-name="grave" unicode="`" horiz-adv-x="300" 
d="M216 591h-63l-139 145h108z" />
    <glyph glyph-name="a" unicode="a" horiz-adv-x="549" 
d="M479 0h-77q-7 39 -9 71q-56 -82 -171 -82q-76 0 -126.5 38.5t-50.5 111.5q0 43 19 75t47 49.5t69 28t76 13.5t78 3q22 0 50 -2v30q0 61 -25.5 91.5t-85.5 30.5q-48 0 -74.5 -20.5t-30.5 -68.5h-86q2 52 30.5 86t68 47t90.5 13q99 0 145.5 -42t46.5 -139v-186
q0 -95 16 -148zM384 253q-21 2 -45 2q-206 0 -206 -112q0 -44 32.5 -69.5t78.5 -25.5q37 0 63.5 12t41 30t23 47t10.5 55t2 61z" />
    <glyph glyph-name="b" unicode="b" horiz-adv-x="598" 
d="M553 260q0 -111 -58.5 -190t-166.5 -79q-52 0 -89 21t-69 65l-5 -77h-86q3 49 3 147v576h88v-303q58 95 170 95q105 0 159 -73.5t54 -181.5zM461 254q0 50 -11.5 92t-44.5 74.5t-84 32.5q-53 0 -88.5 -31t-49.5 -74.5t-14 -95.5q0 -51 11.5 -92.5t45 -73t84.5 -31.5
q79 0 115 57.5t36 141.5z" />
    <glyph glyph-name="c" unicode="c" horiz-adv-x="536" 
d="M503 169q-7 -88 -65 -134t-148 -46q-117 0 -181 70.5t-64 187.5q0 121 65.5 196.5t184.5 75.5q88 0 143.5 -45t62.5 -132h-86q-4 54 -35 84.5t-85 30.5q-82 0 -119.5 -59.5t-37.5 -146.5q0 -52 14 -95.5t50 -75t89 -31.5q55 0 88.5 33t37.5 88h83z" />
    <glyph glyph-name="d" unicode="d" horiz-adv-x="598" 
d="M519 0h-86l-5 77q-33 -45 -70 -65.5t-92 -20.5q-108 0 -164.5 76.5t-56.5 188.5q0 108 56.5 183.5t161.5 75.5q57 0 96.5 -21t68.5 -69v298h88v-576q0 -98 3 -147zM429 252q0 52 -14 95.5t-49.5 74.5t-88.5 31q-74 0 -107 -59t-33 -140q0 -84 36 -141.5t115 -57.5
q51 0 84.5 31.5t45 73t11.5 92.5z" />
    <glyph glyph-name="e" unicode="e" horiz-adv-x="547" 
d="M502 236h-369v-10q0 -75 39.5 -126.5t112.5 -51.5q54 0 88 30.5t42 84.5h84q-15 -87 -73.5 -130.5t-147.5 -43.5q-114 0 -173.5 69t-59.5 186q0 120 61 195t179 75q217 0 217 -278zM415 294q1 67 -33.5 113.5t-99.5 46.5q-66 0 -103 -45.5t-44 -114.5h280z" />
    <glyph glyph-name="f" unicode="f" horiz-adv-x="341" 
d="M326 662q-26 2 -39 2q-41 0 -61.5 -14t-20.5 -53v-92h113v-61h-113v-444h-88v444h-101v61h101v48q0 43 4.5 71t17.5 54t41.5 38.5t72.5 12.5q35 0 73 -3v-64z" />
    <glyph glyph-name="g" unicode="g" horiz-adv-x="604" 
d="M526 505q-4 -58 -4 -175v-187q0 -50 -1 -81t-6 -71.5t-14.5 -65t-27 -51.5t-42.5 -41.5t-62 -24t-85 -9.5q-42 0 -76.5 7t-65.5 23.5t-49 48t-18 75.5h86q0 -50 34.5 -72t87.5 -22q75 0 109 38.5t40 113.5q2 27 2 83q-58 -89 -167 -89q-108 0 -165 71.5t-57 182.5
q0 107 58 181t163 74q115 0 171 -95v86h89zM435 264q0 75 -38 132t-109 57q-40 0 -70 -17t-46.5 -46t-24.5 -62.5t-8 -71.5q0 -80 36.5 -136t111.5 -56q77 0 112.5 58.5t35.5 141.5z" />
    <glyph glyph-name="h" unicode="h" horiz-adv-x="593" 
d="M514 0h-88v280q0 39 -3.5 64t-14.5 50.5t-36 38t-63 12.5q-71 0 -105 -50.5t-34 -127.5v-267h-88v723h88v-297q60 86 163 86q96 0 138.5 -50t42.5 -148v-314z" />
    <glyph glyph-name="i" unicode="i" horiz-adv-x="252" 
d="M175 634h-98v89h98v-89zM170 0h-88v505h88v-505z" />
    <glyph glyph-name="j" unicode="j" horiz-adv-x="252" 
d="M175 634h-98v89h98v-89zM170 -63q0 -73 -30 -98t-105 -25q-28 0 -50 2v66q20 -3 38 -3q39 0 49 18.5t10 61.5v546h88v-568z" />
    <glyph glyph-name="k" unicode="k" horiz-adv-x="542" 
d="M532 0h-113l-246 285l227 221h112l-235 -218zM170 0h-88v723h88v-723z" />
    <glyph glyph-name="l" unicode="l" horiz-adv-x="252" 
d="M170 0h-88v723h88v-723z" />
    <glyph glyph-name="m" unicode="m" horiz-adv-x="919" 
d="M840 0h-88v298q0 69 -25.5 107.5t-90.5 38.5q-131 0 -131 -164v-280h-88v293q0 71 -24 111t-91 40q-65 0 -98.5 -47.5t-33.5 -116.5v-280h-88v332q0 86 -3 173h87l3 -84q54 90 160 90q119 0 161 -104q53 104 175 104q51 0 86.5 -16t54 -46t26.5 -67t8 -86v-296z" />
    <glyph glyph-name="n" unicode="n" horiz-adv-x="593" 
d="M514 0h-88v280q0 30 -2 51t-8.5 44t-19 37t-34.5 23t-53 9q-39 0 -67.5 -16.5t-43.5 -45t-21.5 -60.5t-6.5 -70v-252h-88v375q0 43 -3 130h87l3 -81q61 87 165 87q96 0 138 -50t42 -147v-314z" />
    <glyph glyph-name="o" unicode="o" horiz-adv-x="587" 
d="M542 255q0 -115 -66.5 -190.5t-181.5 -75.5q-118 0 -183.5 74t-65.5 192q0 116 67 188.5t183 72.5q117 0 182 -71.5t65 -189.5zM450 255q0 83 -38.5 140.5t-117.5 57.5t-117.5 -57.5t-38.5 -140.5q0 -84 38.5 -145t117.5 -61q53 0 89.5 32.5t51.5 77t15 96.5z" />
    <glyph glyph-name="p" unicode="p" horiz-adv-x="598" 
d="M553 260q0 -71 -23.5 -130.5t-75.5 -99t-125 -39.5q-53 0 -89.5 20.5t-69.5 64.5v-266h-88v551q0 96 -3 144h87l3 -87q57 96 171 96q105 0 159 -73t54 -181zM461 254q0 50 -12 92t-45 74t-84 32q-77 0 -114 -59t-37 -142q0 -51 11.5 -92.5t45 -73.5t84.5 -32
q54 0 89.5 31t48.5 74t13 96z" />
    <glyph glyph-name="q" unicode="q" horiz-adv-x="598" 
d="M519 505q-3 -48 -3 -144v-551h-88v266q-33 -44 -69.5 -64.5t-89.5 -20.5q-78 0 -130 38.5t-73 96.5t-21 132q0 106 56.5 181t160.5 75q59 0 98.5 -21t68.5 -70l3 82h87zM429 251q0 83 -37 142t-114 59q-51 0 -84.5 -32t-45 -73.5t-11.5 -92.5q0 -53 13 -96t48.5 -74
t89.5 -31q51 0 84.5 32t45 73.5t11.5 92.5z" />
    <glyph glyph-name="r" unicode="r" horiz-adv-x="363" 
d="M351 423q-26 4 -43 4q-75 0 -106.5 -39.5t-31.5 -115.5v-272h-88v357q0 75 -3 148h86l4 -81q51 84 154 84q12 0 28 -2v-83z" />
    <glyph glyph-name="s" unicode="s" horiz-adv-x="496" 
d="M449 146q0 -80 -60.5 -118.5t-144.5 -38.5q-88 0 -142.5 39t-54.5 125h88q6 -103 113 -103q45 0 79.5 22t34.5 64q0 36 -28.5 56t-80.5 32l-41 10q-69 17 -110.5 47.5t-41.5 91.5q0 50 30.5 83.5t72 47t89.5 13.5q81 0 131.5 -37t53.5 -116h-87q-1 44 -28 68.5t-72 24.5
q-40 0 -72 -19t-32 -56q0 -57 108 -84l40 -10q75 -19 115 -50.5t40 -91.5z" />
    <glyph glyph-name="t" unicode="t" horiz-adv-x="344" 
d="M318 1q-42 -6 -81 -6q-62 0 -92.5 27.5t-30.5 89.5v332h-99v61h99v98l88 37v-135h113v-61h-113v-297q0 -49 12.5 -66.5t56.5 -17.5q19 0 47 5v-67z" />
    <glyph glyph-name="u" unicode="u" horiz-adv-x="592" 
d="M513 0h-86l-4 80q-62 -86 -163 -86q-96 0 -138.5 49.5t-42.5 147.5v314h88v-280q0 -30 2 -51t8.5 -44t19 -37t34.5 -23t53 -9q74 0 106.5 49.5t32.5 127.5v267h88v-245q0 -173 2 -260z" />
    <glyph glyph-name="v" unicode="v" horiz-adv-x="530" 
d="M520 505l-210 -505h-92l-205 505h100l157 -420l160 420h90z" />
    <glyph glyph-name="w" unicode="w" horiz-adv-x="853" 
d="M837 505l-180 -505h-87l-141 418l-144 -418h-90l-179 505h98l130 -414l139 414h101l136 -409l129 409h88z" />
    <glyph glyph-name="x" unicode="x" horiz-adv-x="524" 
d="M511 0h-111l-145 208l-145 -208h-97l195 259l-184 246h110l132 -192l135 192h97l-183 -246z" />
    <glyph glyph-name="y" unicode="y" horiz-adv-x="529" 
d="M519 505l-286 -695h-88l83 191l-215 504h100l159 -413l158 413h89z" />
    <glyph glyph-name="z" unicode="z" horiz-adv-x="461" 
d="M424 0h-387v71l289 368h-281v66h371v-73l-284 -366h292v-66z" />
    <glyph glyph-name="braceleft" unicode="{" horiz-adv-x="371" 
d="M351 -149q-68 4 -109.5 20.5t-61.5 52t-25.5 74t-5.5 105.5q0 97 -38 126q-38 30 -96 33v51q59 2 99 36q31 27 34 91q1 14 1 56t2 65q3 34 13 59.5t31 49t60 37t96 16.5v-50q-84 -5 -111 -62q-11 -23 -14 -57q-2 -18 -2.5 -46t-1 -49t-3 -46t-10 -44t-20.5 -36.5
t-35.5 -29t-54.5 -16.5q83 -13 109 -74q11 -25 14 -65q2 -24 2 -77q0 -41 4.5 -67.5t17 -51t38.5 -37t67 -14.5v-50z" />
    <glyph glyph-name="bar" unicode="|" horiz-adv-x="246" 
d="M162 -213h-78v999h78v-999z" />
    <glyph glyph-name="braceright" unicode="}" horiz-adv-x="371" 
d="M356 262q-58 -3 -96 -33q-38 -29 -38 -126q0 -67 -5.5 -105.5t-25.5 -74t-61.5 -52t-109.5 -20.5v50q41 2 67 14.5t38.5 37t17 51t4.5 67.5q0 53 2 77q3 40 14 65q26 61 109 74q-32 5 -54.5 16.5t-35.5 29t-20.5 36.5t-10 44t-3 46t-1 49t-2.5 46q-3 34 -14 57
q-27 57 -111 62v50q57 -3 96 -16.5t60 -37t31 -49t13 -59.5q2 -23 2 -65t1 -56q3 -64 34 -91q40 -34 99 -36v-51z" />
    <glyph glyph-name="asciitilde" unicode="~" horiz-adv-x="673" 
d="M601 325q-6 -62 -37.5 -105t-89.5 -43q-51 0 -141 35q-95 36 -134 36q-31 0 -51 -21.5t-25 -54.5h-52q9 64 40 106t90 42q45 0 140 -35q93 -35 133 -35q62 0 76 75h51z" />
    <glyph glyph-name="uni00A0" unicode="&#xa0;" horiz-adv-x="290" 
 />
    <glyph glyph-name="exclamdown" unicode="&#xa1;" horiz-adv-x="298" 
d="M199 413h-100v100h100v-100zM203 -210h-108l16 545h76z" />
    <glyph glyph-name="cent" unicode="&#xa2;" 
d="M338 455q-16 2 -24 2q-82 0 -119.5 -59.5t-37.5 -146.5q0 -127 74 -179zM522 169q-7 -88 -65 -134t-148 -46q-25 0 -48 3l-28 -102l-49 11l28 103q-72 26 -110 89.5t-38 153.5q0 121 65.5 196.5t184.5 75.5q22 0 40 -3l29 103l49 -11l-29 -103q107 -39 117 -163h-86
q-5 67 -49 96l-107 -386q15 -3 32 -3q55 0 88.5 33t37.5 88h83z" />
    <glyph glyph-name="sterling" unicode="&#xa3;" 
d="M553 564h-95q-1 52 -30.5 79.5t-80.5 27.5q-74 0 -105.5 -50.5t-31.5 -146.5v-39h159v-68h-159v-295h319v-72h-473v72h61v295h-76v68h76v13q1 59 3.5 91.5t20 78.5t51.5 73q58 47 155 47q92 0 147.5 -42t58.5 -132z" />
    <glyph glyph-name="currency" unicode="&#xa4;" 
d="M485 602l53 -53l-68 -68q39 -57 39 -125q0 -71 -39 -127l68 -67l-53 -53l-68 68q-55 -39 -127 -39t-128 39l-67 -68l-53 53l68 67q-39 56 -39 127q0 70 39 125l-68 68l53 53l68 -68q57 39 127 39q68 0 127 -39zM429 356q0 61 -40 102.5t-99 41.5t-99 -41.5t-40 -102.5
q0 -62 40 -103.5t99 -41.5t99 41.5t40 103.5z" />
    <glyph glyph-name="yen" unicode="&#xa5;" 
d="M579 723l-216 -372h152v-62h-182v-77h182v-62h-182v-150h-89v150h-181v62h181v77h-181v62h153l-215 372h104l189 -347l191 347h94z" />
    <glyph glyph-name="brokenbar" unicode="&#xa6;" horiz-adv-x="246" 
d="M162 410h-78v251h78v-251zM162 -89h-78v251h78v-251z" />
    <glyph glyph-name="section" unicode="&#xa7;" horiz-adv-x="589" 
d="M474 140q0 -75 -60.5 -112.5t-140.5 -37.5q-76 0 -146 23v68q63 -25 125 -25q50 0 88 18.5t38 62.5q0 34 -41 57q-9 5 -43 18l-48 17q-30 10 -49.5 19t-41 23.5t-32.5 35t-11 47.5q0 46 28.5 76.5t77.5 54.5q-91 40 -91 120q0 68 52 100t125 32q52 0 127 -16v-68
q-60 19 -114 19q-38 0 -68 -16.5t-30 -51.5q0 -30 39 -53q22 -13 40 -20l46 -18q29 -11 47.5 -20.5t39 -24.5t30.5 -34.5t10 -43.5q0 -81 -100 -126q50 -21 76.5 -48.5t26.5 -75.5zM381 373q0 31 -37 56q-22 15 -65 32q-80 -39 -80 -88q0 -22 17 -40.5t33 -26t43 -17.5
q6 -2 8 -3q81 40 81 87z" />
    <glyph glyph-name="dieresis" unicode="&#xa8;" horiz-adv-x="300" 
d="M292 636h-93v88h93v-88zM101 636h-93v88h93v-88z" />
    <glyph glyph-name="copyright" unicode="&#xa9;" horiz-adv-x="844" 
d="M797 362q0 -160 -107 -266.5t-268 -106.5t-268 106t-107 267q0 160 107 266.5t268 106.5t268 -106.5t107 -266.5zM743 362q0 142 -90.5 233t-230.5 91t-230.5 -91t-90.5 -233t90.5 -233.5t230.5 -91.5t230.5 91.5t90.5 233.5zM595 272q-9 -57 -56 -88.5t-110 -31.5
q-93 0 -140.5 55t-47.5 152q0 95 50.5 154t143.5 59q59 0 106 -31t51 -88h-78q-14 62 -79 62q-115 0 -115 -158q0 -149 111 -149q68 0 85 64h79z" />
    <glyph glyph-name="ordfeminine" unicode="&#xaa;" horiz-adv-x="330" 
d="M289 432h-61q0 14 -2 38q-40 -44 -96 -44q-44 0 -75 24t-31 67q0 102 170 102h29q0 41 -11.5 58t-50.5 17q-56 0 -61 -48h-62q11 92 123 92q96 0 116 -63q7 -22 7 -65q0 -12 -1 -37.5t-1 -39.5q0 -53 7 -101zM223 578h-21q-116 0 -116 -59q0 -23 16.5 -35.5t40.5 -12.5
q47 0 63.5 28.5t16.5 78.5z" />
    <glyph glyph-name="guillemotleft" unicode="&#xab;" horiz-adv-x="499" 
d="M439 64h-75l-107 197l106 192h75l-97 -197zM242 64h-75l-107 197l107 192h74l-97 -197z" />
    <glyph glyph-name="logicalnot" unicode="&#xac;" horiz-adv-x="673" 
d="M591 114h-75v196h-434v72h509v-268z" />
    <glyph glyph-name="uni00AD" unicode="&#xad;" horiz-adv-x="341" 
d="M301 234h-261v66h261v-66z" />
    <glyph glyph-name="registered" unicode="&#xae;" horiz-adv-x="478" 
d="M427 550q0 -77 -55 -132.5t-133 -55.5q-77 0 -132.5 55.5t-55.5 132.5t55.5 132t132.5 55q78 0 133 -55t55 -132zM394 550q0 64 -45.5 109.5t-109.5 45.5t-110 -45.5t-46 -109.5t46 -109.5t110 -45.5t109.5 45.5t45.5 109.5zM315 455h-37q-3 7 -5 24l-2 28q-5 32 -29 32
h-40v-84h-33v194h74q31 0 48.5 -9.5t17.5 -38.5q0 -35 -35 -46q26 -7 30 -42l2 -30q2 -17 9 -28zM275 596q0 29 -41 29h-32v-62h28q45 0 45 33z" />
    <glyph glyph-name="macron" unicode="&#xaf;" horiz-adv-x="300" 
d="M287 636h-274v61h274v-61z" />
    <glyph glyph-name="degree" unicode="&#xb0;" horiz-adv-x="386" 
d="M347 582q0 -64 -45 -108.5t-109 -44.5t-109 44.5t-45 108.5t44.5 108.5t109.5 44.5t109.5 -44.5t44.5 -108.5zM286 582q0 42 -26.5 69.5t-66.5 27.5t-66 -27.5t-26 -69.5q0 -41 26 -68.5t66 -27.5t66.5 27.5t26.5 68.5z" />
    <glyph glyph-name="plusminus" unicode="&#xb1;" horiz-adv-x="673" 
d="M591 283h-215v-169h-79v169h-215v73h215v170h79v-170h215v-73zM591 0h-509v73h509v-73z" />
    <glyph glyph-name="twosuperior" unicode="&#xb2;" horiz-adv-x="369" 
d="M328 469h-290v56l67 60q78 69 113.5 112t35.5 81q0 31 -18.5 48t-50.5 17q-72 0 -74 -76h-68q1 62 41 95.5t102 33.5q60 0 98.5 -30t38.5 -85q0 -51 -37.5 -100.5t-113.5 -114.5l-50 -42h206v-55z" />
    <glyph glyph-name="threesuperior" unicode="&#xb3;" horiz-adv-x="369" 
d="M336 584q0 -59 -44.5 -90.5t-110.5 -31.5q-65 0 -106 31t-44 95h65q1 -36 25.5 -55.5t61.5 -19.5q39 0 63 19.5t24 56.5q0 36 -26 54t-66 18q-16 0 -29 -3v54q18 -2 29 -2q38 0 62 17t24 52q0 33 -22 49.5t-58 16.5q-75 0 -81 -71h-66q1 58 44.5 89.5t103.5 31.5t102 -29
t42 -86q0 -66 -73 -94q80 -23 80 -102z" />
    <glyph glyph-name="acute" unicode="&#xb4;" horiz-adv-x="301" 
d="M287 736l-139 -145h-64l95 145h108z" />
    <glyph glyph-name="mu" unicode="&#xb5;" horiz-adv-x="596" 
d="M517 0h-89l-1 78q-17 -36 -52 -60t-83 -24q-83 0 -122 63v-247h-88v695h88v-280q0 -77 26.5 -121t94.5 -44q135 0 135 176v269h88v-338q0 -80 3 -167z" />
    <glyph glyph-name="paragraph" unicode="&#xb6;" horiz-adv-x="588" 
d="M490 0h-76v661h-115v-661h-76v328q-195 16 -195 195q0 200 250 200h212v-723z" />
    <glyph glyph-name="periodcentered" unicode="&#xb7;" horiz-adv-x="290" 
d="M196 269h-101v99h101v-99z" />
    <glyph glyph-name="cedilla" unicode="&#xb8;" horiz-adv-x="300" 
d="M256 -119q0 -39 -33 -56t-76 -17q-51 0 -108 23l8 33q51 -24 94 -24q50 0 50 37q0 38 -49 38q-17 0 -33 -4v20l29 75h30l-19 -58h13q94 0 94 -67z" />
    <glyph glyph-name="onesuperior" unicode="&#xb9;" horiz-adv-x="369" 
d="M237 469h-66v351q-44 -34 -96 -55v58q55 21 105 66h57v-420z" />
    <glyph glyph-name="ordmasculine" unicode="&#xba;" horiz-adv-x="362" 
d="M333 583q0 -72 -40 -115t-112 -43q-70 0 -111 42.5t-41 113.5q0 72 40 114.5t112 42.5q71 0 111.5 -42.5t40.5 -112.5zM269 583q0 46 -22 77.5t-66 31.5t-65.5 -31.5t-21.5 -77.5t21.5 -78.5t65.5 -32.5t66 32.5t22 78.5z" />
    <glyph glyph-name="guillemotright" unicode="&#xbb;" horiz-adv-x="499" 
d="M439 256l-106 -192h-74l96 197l-98 192h76zM242 256l-106 -192h-75l97 197l-98 192h75z" />
    <glyph glyph-name="onequarter" unicode="&#xbc;" horiz-adv-x="915" 
d="M708 753l-431 -779h-71l433 779h69zM887 92h-67v-92h-63v92h-199v58l188 270h74v-278h67v-50zM758 142v210l-143 -210h143zM242 303h-66v351q-44 -34 -96 -55v58q55 21 105 66h57v-420z" />
    <glyph glyph-name="onehalf" unicode="&#xbd;" horiz-adv-x="915" 
d="M701 753l-431 -779h-71l433 779h69zM242 303h-66v351q-44 -34 -96 -55v58q55 21 105 66h57v-420zM864 0h-290v56l67 60q78 69 113.5 112t35.5 81q0 31 -18.5 48t-50.5 17q-72 0 -74 -76h-68q1 62 41 95.5t102 33.5q60 0 98.5 -30t38.5 -85q0 -51 -37.5 -100.5
t-113.5 -114.5l-50 -42h206v-55z" />
    <glyph glyph-name="threequarters" unicode="&#xbe;" horiz-adv-x="915" 
d="M736 753l-431 -779h-71l433 779h69zM334 419q0 -59 -44.5 -90.5t-110.5 -31.5q-65 0 -106 31t-44 95h65q1 -36 25.5 -55.5t61.5 -19.5q39 0 63 19.5t24 56.5q0 36 -26 54t-66 18q-16 0 -29 -3v54q18 -2 29 -2q38 0 62 17t24 52q0 33 -22 49.5t-58 16.5q-75 0 -81 -71h-66
q1 58 44.5 89.5t103.5 31.5t102 -29t42 -86q0 -66 -73 -94q80 -23 80 -102zM887 92h-67v-92h-63v92h-199v58l188 270h74v-278h67v-50zM758 142v210l-143 -210h143z" />
    <glyph glyph-name="questiondown" unicode="&#xbf;" horiz-adv-x="521" 
d="M82 -39q0 26 9.5 52t18.5 43t36 45t39.5 39.5t50.5 46.5q26 24 33.5 38t7.5 38v72h77v-72q0 -50 -14 -74.5t-67 -72.5q-56 -51 -72 -73q-25 -36 -25 -78q0 -61 42.5 -89.5t106.5 -28.5q48 0 104 16v-73q-67 -12 -115 -12q-101 0 -166.5 43.5t-65.5 139.5zM265 513h101
v-101h-101v101z" />
    <glyph glyph-name="Agrave" unicode="&#xc0;" horiz-adv-x="712" 
d="M707 0h-108l-75 191h-350l-74 -191h-95l294 723h103zM495 262l-150 380l-145 -380h295zM410 776h-63l-139 145h108z" />
    <glyph glyph-name="Aacute" unicode="&#xc1;" horiz-adv-x="712" 
d="M707 0h-108l-75 191h-350l-74 -191h-95l294 723h103zM495 262l-150 380l-145 -380h295zM483 921l-139 -145h-64l95 145h108z" />
    <glyph glyph-name="Acircumflex" unicode="&#xc2;" horiz-adv-x="712" 
d="M707 0h-108l-75 191h-350l-74 -191h-95l294 723h103zM495 262l-150 380l-145 -380h295zM496 775h-64l-86 99l-88 -99h-64l105 146h94z" />
    <glyph glyph-name="Atilde" unicode="&#xc3;" horiz-adv-x="712" 
d="M707 0h-108l-75 191h-350l-74 -191h-95l294 723h103zM495 262l-150 380l-145 -380h295zM500 901q-7 -39 -33 -67.5t-63 -28.5q-20 0 -59 12t-59 12q-36 0 -48 -30h-47q7 41 33.5 67.5t67.5 26.5q20 0 57.5 -12t57.5 -12q33 0 45 32h48z" />
    <glyph glyph-name="Adieresis" unicode="&#xc4;" horiz-adv-x="712" 
d="M707 0h-108l-75 191h-350l-74 -191h-95l294 723h103zM495 262l-150 380l-145 -380h295zM487 811h-93v88h93v-88zM296 811h-93v88h93v-88z" />
    <glyph glyph-name="Aring" unicode="&#xc5;" horiz-adv-x="712" 
d="M707 0h-108l-75 191h-350l-74 -191h-95l294 723h103zM495 262l-150 380l-145 -380h295zM439 836q0 -40 -27 -66.5t-67 -26.5t-67 26.5t-27 66.5t27 66.5t67 26.5t67 -26.5t27 -66.5zM398 836q0 25 -14.5 41t-38.5 16t-38.5 -16t-14.5 -41t14.5 -41t38.5 -16t38.5 16
t14.5 41z" />
    <glyph glyph-name="AE" unicode="&#xc6;" horiz-adv-x="981" 
d="M933 0h-381l-30 187h-325l-102 -187h-100l400 723h525v-76h-374l38 -237h320v-76h-310l41 -258h298v-76zM512 258l-62 392l-214 -392h276z" />
    <glyph glyph-name="Ccedilla" unicode="&#xc7;" horiz-adv-x="681" 
d="M458 -119q0 -39 -33 -56t-76 -17q-51 0 -108 23l8 33q51 -24 94 -24q50 0 50 37q0 38 -49 38q-17 0 -33 -4v20l23 59q-96 8 -161 59t-93.5 128.5t-28.5 177.5q0 75 20.5 142.5t59.5 121t101.5 85t141.5 31.5q100 0 175 -51t78 -147h-99q-6 59 -49.5 90t-105.5 31
q-58 0 -103 -26.5t-70 -71t-37.5 -95.5t-12.5 -106q0 -45 6.5 -85.5t23 -79t41 -66.5t63 -45t86.5 -17q69 0 113 35.5t48 92.5h101q-13 -107 -83.5 -156t-180.5 -49h-4l-13 -41h13q94 0 94 -67z" />
    <glyph glyph-name="Egrave" unicode="&#xc8;" horiz-adv-x="608" 
d="M560 0h-462v723h448v-73h-355v-240h340v-73h-340v-264h369v-73zM393 776h-63l-139 145h108z" />
    <glyph glyph-name="Eacute" unicode="&#xc9;" horiz-adv-x="608" 
d="M560 0h-462v723h448v-73h-355v-240h340v-73h-340v-264h369v-73zM466 921l-139 -145h-64l95 145h108z" />
    <glyph glyph-name="Ecircumflex" unicode="&#xca;" horiz-adv-x="608" 
d="M560 0h-462v723h448v-73h-355v-240h340v-73h-340v-264h369v-73zM479 775h-64l-86 99l-88 -99h-64l105 146h94z" />
    <glyph glyph-name="Edieresis" unicode="&#xcb;" horiz-adv-x="608" 
d="M560 0h-462v723h448v-73h-355v-240h340v-73h-340v-264h369v-73zM470 811h-93v88h93v-88zM279 811h-93v88h93v-88z" />
    <glyph glyph-name="Igrave" unicode="&#xcc;" horiz-adv-x="290" 
d="M192 0h-94v723h94v-723zM210 776h-63l-139 145h108z" />
    <glyph glyph-name="Iacute" unicode="&#xcd;" horiz-adv-x="290" 
d="M192 0h-94v723h94v-723zM283 921l-139 -145h-64l95 145h108z" />
    <glyph glyph-name="Icircumflex" unicode="&#xce;" horiz-adv-x="290" 
d="M192 0h-94v723h94v-723zM296 775h-64l-86 99l-88 -99h-64l105 146h94z" />
    <glyph glyph-name="Idieresis" unicode="&#xcf;" horiz-adv-x="290" 
d="M192 0h-94v723h94v-723zM287 811h-93v88h93v-88zM96 811h-93v88h93v-88z" />
    <glyph glyph-name="Eth" unicode="&#xd0;" horiz-adv-x="744" 
d="M693 365q0 -154 -74.5 -250t-224.5 -111q-41 -4 -122 -4h-174v369h-69v61h69v293h212q185 0 284 -88t99 -270zM595 366q0 174 -102 245q-58 40 -189 40h-112v-221h194v-61h-194v-296h130q145 0 209 73t64 220z" />
    <glyph glyph-name="Ntilde" unicode="&#xd1;" horiz-adv-x="766" 
d="M668 0h-126l-359 627v-627h-85v723h126l359 -629v629h85v-723zM533 901q-7 -39 -33 -67.5t-63 -28.5q-21 0 -59 12t-59 12q-36 0 -48 -30h-47q7 41 33.5 67.5t67.5 26.5q20 0 57.5 -12t57.5 -12q33 0 45 32h48z" />
    <glyph glyph-name="Ograve" unicode="&#xd2;" horiz-adv-x="755" 
d="M704 367q0 -108 -33 -191t-108.5 -135.5t-185.5 -52.5q-162 0 -244 104t-82 270q0 163 84 269.5t243 106.5q164 0 245 -101.5t81 -269.5zM605 364q0 47 -7 88.5t-23.5 81t-42 67.5t-65.5 45t-90 17q-61 0 -106.5 -26t-71 -70t-37.5 -95t-12 -108q0 -58 12 -109.5t37 -96
t71 -70.5t107 -26t107 26t71.5 70.5t37.5 96t12 109.5zM442 776h-63l-139 145h108z" />
    <glyph glyph-name="Oacute" unicode="&#xd3;" horiz-adv-x="755" 
d="M704 367q0 -108 -33 -191t-108.5 -135.5t-185.5 -52.5q-162 0 -244 104t-82 270q0 163 84 269.5t243 106.5q164 0 245 -101.5t81 -269.5zM605 364q0 47 -7 88.5t-23.5 81t-42 67.5t-65.5 45t-90 17q-61 0 -106.5 -26t-71 -70t-37.5 -95t-12 -108q0 -58 12 -109.5t37 -96
t71 -70.5t107 -26t107 26t71.5 70.5t37.5 96t12 109.5zM515 921l-139 -145h-64l95 145h108z" />
    <glyph glyph-name="Ocircumflex" unicode="&#xd4;" horiz-adv-x="755" 
d="M704 367q0 -108 -33 -191t-108.5 -135.5t-185.5 -52.5q-162 0 -244 104t-82 270q0 163 84 269.5t243 106.5q164 0 245 -101.5t81 -269.5zM605 364q0 47 -7 88.5t-23.5 81t-42 67.5t-65.5 45t-90 17q-61 0 -106.5 -26t-71 -70t-37.5 -95t-12 -108q0 -58 12 -109.5t37 -96
t71 -70.5t107 -26t107 26t71.5 70.5t37.5 96t12 109.5zM528 775h-64l-86 99l-88 -99h-64l105 146h94z" />
    <glyph glyph-name="Otilde" unicode="&#xd5;" horiz-adv-x="755" 
d="M704 367q0 -108 -33 -191t-108.5 -135.5t-185.5 -52.5q-162 0 -244 104t-82 270q0 163 84 269.5t243 106.5q164 0 245 -101.5t81 -269.5zM605 364q0 47 -7 88.5t-23.5 81t-42 67.5t-65.5 45t-90 17q-61 0 -106.5 -26t-71 -70t-37.5 -95t-12 -108q0 -58 12 -109.5t37 -96
t71 -70.5t107 -26t107 26t71.5 70.5t37.5 96t12 109.5zM532 901q-7 -39 -33 -67.5t-63 -28.5q-21 0 -59.5 12t-58.5 12q-36 0 -48 -30h-47q7 41 33.5 67.5t67.5 26.5q20 0 57.5 -12t57.5 -12q33 0 45 32h48z" />
    <glyph glyph-name="Odieresis" unicode="&#xd6;" horiz-adv-x="755" 
d="M704 367q0 -108 -33 -191t-108.5 -135.5t-185.5 -52.5q-162 0 -244 104t-82 270q0 163 84 269.5t243 106.5q164 0 245 -101.5t81 -269.5zM605 364q0 47 -7 88.5t-23.5 81t-42 67.5t-65.5 45t-90 17q-61 0 -106.5 -26t-71 -70t-37.5 -95t-12 -108q0 -58 12 -109.5t37 -96
t71 -70.5t107 -26t107 26t71.5 70.5t37.5 96t12 109.5zM519 811h-93v88h93v-88zM328 811h-93v88h93v-88z" />
    <glyph glyph-name="multiply" unicode="&#xd7;" horiz-adv-x="673" 
d="M579 436l-189 -188l188 -188l-53 -53l-188 188l-189 -187l-54 52l189 188l-189 188l54 53l189 -188l188 188z" />
    <glyph glyph-name="Oslash" unicode="&#xd8;" horiz-adv-x="755" 
d="M704 367q0 -108 -33 -191t-108.5 -135.5t-185.5 -52.5q-140 0 -225 83l-87 -95l-40 39l91 100q-65 97 -65 247q0 163 84 269.5t243 106.5q146 0 230 -84l82 90l41 -38l-88 -96q61 -93 61 -243zM545 585q-60 78 -168 78q-61 0 -106.5 -26t-71 -70t-37.5 -95t-12 -108
q0 -104 33 -175zM605 364q0 103 -30 171l-362 -397q59 -76 164 -76q61 0 107 26t71.5 70.5t37.5 96t12 109.5z" />
    <glyph glyph-name="Ugrave" unicode="&#xd9;" horiz-adv-x="758" 
d="M669 276q0 -139 -75.5 -214t-214.5 -75q-290 0 -290 291v445h98v-432q0 -104 30 -151q50 -78 163 -78q59 0 106.5 26.5t69.5 77.5q18 42 18 127v430h95v-447zM444 776h-63l-139 145h108z" />
    <glyph glyph-name="Uacute" unicode="&#xda;" horiz-adv-x="758" 
d="M669 276q0 -139 -75.5 -214t-214.5 -75q-290 0 -290 291v445h98v-432q0 -104 30 -151q50 -78 163 -78q59 0 106.5 26.5t69.5 77.5q18 42 18 127v430h95v-447zM517 921l-139 -145h-64l95 145h108z" />
    <glyph glyph-name="Ucircumflex" unicode="&#xdb;" horiz-adv-x="758" 
d="M669 276q0 -139 -75.5 -214t-214.5 -75q-290 0 -290 291v445h98v-432q0 -104 30 -151q50 -78 163 -78q59 0 106.5 26.5t69.5 77.5q18 42 18 127v430h95v-447zM530 775h-64l-86 99l-88 -99h-64l105 146h94z" />
    <glyph glyph-name="Udieresis" unicode="&#xdc;" horiz-adv-x="758" 
d="M669 276q0 -139 -75.5 -214t-214.5 -75q-290 0 -290 291v445h98v-432q0 -104 30 -151q50 -78 163 -78q59 0 106.5 26.5t69.5 77.5q18 42 18 127v430h95v-447zM521 811h-93v88h93v-88zM330 811h-93v88h93v-88z" />
    <glyph glyph-name="Yacute" unicode="&#xdd;" horiz-adv-x="635" 
d="M644 723l-279 -424v-299h-94v303l-279 420h111l220 -344l217 344h104zM458 921l-139 -145h-64l95 145h108z" />
    <glyph glyph-name="Thorn" unicode="&#xde;" horiz-adv-x="621" 
d="M588 384q0 -66 -35 -115t-97 -72q-54 -20 -131 -20q-93 1 -133 1v-178h-94v723h94v-131h110q142 0 199 -37q87 -56 87 -171zM490 390q0 75 -45.5 102.5t-126.5 27.5h-126v-270h99q44 0 75 5t61.5 18.5t46.5 43t16 73.5z" />
    <glyph glyph-name="germandbls" unicode="&#xdf;" horiz-adv-x="638" 
d="M606 157q0 -77 -55 -121t-134 -44q-75 0 -122.5 39t-48.5 113h84q0 -43 24 -67t66 -24q41 0 69.5 27.5t28.5 68.5q0 54 -69 94q-17 11 -40 22q-35 19 -55 32t-38 39.5t-18 59.5q0 15 4.5 29t15 27t17.5 21t23.5 22t21.5 19q38 36 38 65q0 48 -32.5 70t-78.5 22
q-38 0 -71 -17.5t-50 -50.5q-18 -35 -18 -136v-467h-88v452q0 118 29 175q28 53 81 79.5t117 26.5q82 0 138.5 -36t56.5 -117q0 -51 -60 -101q-33 -28 -41 -37q-18 -21 -18 -42q0 -29 34 -53q10 -7 36 -21l41 -22q52 -28 82 -61t30 -86z" />
    <glyph glyph-name="agrave" unicode="&#xe0;" horiz-adv-x="549" 
d="M479 0h-77q-7 39 -9 71q-56 -82 -171 -82q-76 0 -126.5 38.5t-50.5 111.5q0 43 19 75t47 49.5t69 28t76 13.5t78 3q22 0 50 -2v30q0 61 -25.5 91.5t-85.5 30.5q-48 0 -74.5 -20.5t-30.5 -68.5h-86q2 52 30.5 86t68 47t90.5 13q99 0 145.5 -42t46.5 -139v-186
q0 -95 16 -148zM384 253q-21 2 -45 2q-206 0 -206 -112q0 -44 32.5 -69.5t78.5 -25.5q37 0 63.5 12t41 30t23 47t10.5 55t2 61zM343 591h-63l-139 145h108z" />
    <glyph glyph-name="aacute" unicode="&#xe1;" horiz-adv-x="549" 
d="M479 0h-77q-7 39 -9 71q-56 -82 -171 -82q-76 0 -126.5 38.5t-50.5 111.5q0 43 19 75t47 49.5t69 28t76 13.5t78 3q22 0 50 -2v30q0 61 -25.5 91.5t-85.5 30.5q-48 0 -74.5 -20.5t-30.5 -68.5h-86q2 52 30.5 86t68 47t90.5 13q99 0 145.5 -42t46.5 -139v-186
q0 -95 16 -148zM384 253q-21 2 -45 2q-206 0 -206 -112q0 -44 32.5 -69.5t78.5 -25.5q37 0 63.5 12t41 30t23 47t10.5 55t2 61zM415 736l-139 -145h-64l95 145h108z" />
    <glyph glyph-name="acircumflex" unicode="&#xe2;" horiz-adv-x="549" 
d="M479 0h-77q-7 39 -9 71q-56 -82 -171 -82q-76 0 -126.5 38.5t-50.5 111.5q0 43 19 75t47 49.5t69 28t76 13.5t78 3q22 0 50 -2v30q0 61 -25.5 91.5t-85.5 30.5q-48 0 -74.5 -20.5t-30.5 -68.5h-86q2 52 30.5 86t68 47t90.5 13q99 0 145.5 -42t46.5 -139v-186
q0 -95 16 -148zM384 253q-21 2 -45 2q-206 0 -206 -112q0 -44 32.5 -69.5t78.5 -25.5q37 0 63.5 12t41 30t23 47t10.5 55t2 61zM429 591h-64l-86 99l-88 -99h-64l105 146h94z" />
    <glyph glyph-name="atilde" unicode="&#xe3;" horiz-adv-x="549" 
d="M479 0h-77q-7 39 -9 71q-56 -82 -171 -82q-76 0 -126.5 38.5t-50.5 111.5q0 43 19 75t47 49.5t69 28t76 13.5t78 3q22 0 50 -2v30q0 61 -25.5 91.5t-85.5 30.5q-48 0 -74.5 -20.5t-30.5 -68.5h-86q2 52 30.5 86t68 47t90.5 13q99 0 145.5 -42t46.5 -139v-186
q0 -95 16 -148zM384 253q-21 2 -45 2q-206 0 -206 -112q0 -44 32.5 -69.5t78.5 -25.5q37 0 63.5 12t41 30t23 47t10.5 55t2 61zM433 716q-7 -39 -33 -67.5t-63 -28.5q-21 0 -59 12t-59 12q-36 0 -48 -30h-47q7 41 33.5 67.5t67.5 26.5q20 0 57.5 -12t57.5 -12q33 0 45 32h48
z" />
    <glyph glyph-name="adieresis" unicode="&#xe4;" horiz-adv-x="549" 
d="M479 0h-77q-7 39 -9 71q-56 -82 -171 -82q-76 0 -126.5 38.5t-50.5 111.5q0 43 19 75t47 49.5t69 28t76 13.5t78 3q22 0 50 -2v30q0 61 -25.5 91.5t-85.5 30.5q-48 0 -74.5 -20.5t-30.5 -68.5h-86q2 52 30.5 86t68 47t90.5 13q99 0 145.5 -42t46.5 -139v-186
q0 -95 16 -148zM384 253q-21 2 -45 2q-206 0 -206 -112q0 -44 32.5 -69.5t78.5 -25.5q37 0 63.5 12t41 30t23 47t10.5 55t2 61zM419 636h-93v88h93v-88zM228 636h-93v88h93v-88z" />
    <glyph glyph-name="aring" unicode="&#xe5;" horiz-adv-x="549" 
d="M479 0h-77q-7 39 -9 71q-56 -82 -171 -82q-76 0 -126.5 38.5t-50.5 111.5q0 43 19 75t47 49.5t69 28t76 13.5t78 3q22 0 50 -2v30q0 61 -25.5 91.5t-85.5 30.5q-48 0 -74.5 -20.5t-30.5 -68.5h-86q2 52 30.5 86t68 47t90.5 13q99 0 145.5 -42t46.5 -139v-186
q0 -95 16 -148zM384 253q-21 2 -45 2q-206 0 -206 -112q0 -44 32.5 -69.5t78.5 -25.5q37 0 63.5 12t41 30t23 47t10.5 55t2 61zM371 666q0 -40 -27 -66.5t-67 -26.5t-67 26.5t-27 66.5t27 66.5t67 26.5t67 -26.5t27 -66.5zM330 666q0 25 -14.5 41t-38.5 16t-38.5 -16
t-14.5 -41t14.5 -41t38.5 -16t38.5 16t14.5 41z" />
    <glyph glyph-name="ae" unicode="&#xe6;" horiz-adv-x="844" 
d="M800 237h-351q0 -36 6 -66.5t20.5 -58t41.5 -43.5t65 -16q49 0 85.5 29.5t37.5 77.5h90q-12 -84 -66.5 -127t-139.5 -43q-134 0 -183 110q-51 -111 -189 -111q-75 0 -130.5 38.5t-55.5 109.5q0 43 22.5 78t61.5 56q50 26 179 26h70q0 29 -2 48.5t-8.5 42t-18 35.5
t-32.5 22t-51 9q-90 0 -107 -83h-87q7 75 59 109t130 34q62 0 104 -20.5t65 -72.5q54 95 174 95q62 0 105 -22.5t65 -63.5t31 -87t9 -106zM365 212q0 17 -1 26h-94q-150 0 -150 -98q0 -43 30 -67.5t74 -24.5q72 0 106.5 44.5t34.5 119.5zM714 297q-2 68 -33 112t-95 44
q-124 0 -137 -156h265z" />
    <glyph glyph-name="ccedilla" unicode="&#xe7;" horiz-adv-x="536" 
d="M503 169q-7 -87 -63.5 -132.5t-145.5 -47.5l-13 -41h13q94 0 94 -67q0 -39 -33 -56t-76 -17q-51 0 -108 23l8 33q51 -24 94 -24q50 0 50 37q0 38 -49 38q-17 0 -33 -4v20l23 59q-105 8 -162 77t-57 180q0 121 65.5 196.5t184.5 75.5q88 0 143.5 -45t62.5 -132h-86
q-4 54 -35 84.5t-85 30.5q-82 0 -119.5 -59.5t-37.5 -146.5q0 -52 14 -95.5t50 -75t89 -31.5q55 0 88.5 33t37.5 88h83z" />
    <glyph glyph-name="egrave" unicode="&#xe8;" horiz-adv-x="547" 
d="M502 236h-369v-10q0 -75 39.5 -126.5t112.5 -51.5q54 0 88 30.5t42 84.5h84q-15 -87 -73.5 -130.5t-147.5 -43.5q-114 0 -173.5 69t-59.5 186q0 120 61 195t179 75q217 0 217 -278zM415 294q1 67 -33.5 113.5t-99.5 46.5q-66 0 -103 -45.5t-44 -114.5h280zM345 591h-63
l-139 145h108z" />
    <glyph glyph-name="eacute" unicode="&#xe9;" horiz-adv-x="547" 
d="M502 236h-369v-10q0 -75 39.5 -126.5t112.5 -51.5q54 0 88 30.5t42 84.5h84q-15 -87 -73.5 -130.5t-147.5 -43.5q-114 0 -173.5 69t-59.5 186q0 120 61 195t179 75q217 0 217 -278zM415 294q1 67 -33.5 113.5t-99.5 46.5q-66 0 -103 -45.5t-44 -114.5h280zM417 736
l-139 -145h-64l95 145h108z" />
    <glyph glyph-name="ecircumflex" unicode="&#xea;" horiz-adv-x="547" 
d="M502 236h-369v-10q0 -75 39.5 -126.5t112.5 -51.5q54 0 88 30.5t42 84.5h84q-15 -87 -73.5 -130.5t-147.5 -43.5q-114 0 -173.5 69t-59.5 186q0 120 61 195t179 75q217 0 217 -278zM415 294q1 67 -33.5 113.5t-99.5 46.5q-66 0 -103 -45.5t-44 -114.5h280zM431 591h-64
l-86 99l-88 -99h-64l105 146h94z" />
    <glyph glyph-name="edieresis" unicode="&#xeb;" horiz-adv-x="547" 
d="M502 236h-369v-10q0 -75 39.5 -126.5t112.5 -51.5q54 0 88 30.5t42 84.5h84q-15 -87 -73.5 -130.5t-147.5 -43.5q-114 0 -173.5 69t-59.5 186q0 120 61 195t179 75q217 0 217 -278zM415 294q1 67 -33.5 113.5t-99.5 46.5q-66 0 -103 -45.5t-44 -114.5h280zM421 636h-93
v88h93v-88zM230 636h-93v88h93v-88z" />
    <glyph glyph-name="igrave" unicode="&#xec;" horiz-adv-x="252" 
d="M170 0h-88v505h88v-505zM193 591h-63l-139 145h108z" />
    <glyph glyph-name="iacute" unicode="&#xed;" horiz-adv-x="252" 
d="M170 0h-88v505h88v-505zM265 736l-139 -145h-64l95 145h108z" />
    <glyph glyph-name="icircumflex" unicode="&#xee;" horiz-adv-x="252" 
d="M170 0h-88v505h88v-505zM277 591h-64l-86 99l-88 -99h-64l105 146h94z" />
    <glyph glyph-name="idieresis" unicode="&#xef;" horiz-adv-x="252" 
d="M170 0h-88v505h88v-505zM268 636h-93v88h93v-88zM77 636h-93v88h93v-88z" />
    <glyph glyph-name="eth" unicode="&#xf0;" 
d="M536 304q0 -62 -13.5 -116.5t-42 -100t-78 -72t-115.5 -26.5q-114 0 -178.5 71.5t-64.5 185.5q0 106 61.5 178t166.5 72q120 0 172 -107q-33 166 -162 247l-87 -57l-36 28l80 52q-43 20 -94 34l29 58q73 -16 131 -47l86 55l37 -27l-80 -50q96 -57 142 -157t46 -221z
M440 255q0 77 -38.5 128.5t-113.5 51.5q-78 0 -114.5 -55t-36.5 -137q0 -79 37.5 -134.5t112.5 -55.5q78 0 115.5 59.5t37.5 142.5z" />
    <glyph glyph-name="ntilde" unicode="&#xf1;" horiz-adv-x="593" 
d="M514 0h-88v280q0 30 -2 51t-8.5 44t-19 37t-34.5 23t-53 9q-39 0 -67.5 -16.5t-43.5 -45t-21.5 -60.5t-6.5 -70v-252h-88v375q0 43 -3 130h87l3 -81q61 87 165 87q96 0 138 -50t42 -147v-314zM464 716q-7 -39 -33 -67.5t-63 -28.5q-20 0 -59 12t-59 12q-36 0 -48 -30h-47
q7 41 33.5 67.5t67.5 26.5q20 0 57.5 -12t57.5 -12q33 0 45 32h48z" />
    <glyph glyph-name="ograve" unicode="&#xf2;" horiz-adv-x="587" 
d="M542 255q0 -115 -66.5 -190.5t-181.5 -75.5q-118 0 -183.5 74t-65.5 192q0 116 67 188.5t183 72.5q117 0 182 -71.5t65 -189.5zM450 255q0 83 -38.5 140.5t-117.5 57.5t-117.5 -57.5t-38.5 -140.5q0 -84 38.5 -145t117.5 -61q53 0 89.5 32.5t51.5 77t15 96.5zM362 591
h-63l-139 145h108z" />
    <glyph glyph-name="oacute" unicode="&#xf3;" horiz-adv-x="587" 
d="M542 255q0 -115 -66.5 -190.5t-181.5 -75.5q-118 0 -183.5 74t-65.5 192q0 116 67 188.5t183 72.5q117 0 182 -71.5t65 -189.5zM450 255q0 83 -38.5 140.5t-117.5 57.5t-117.5 -57.5t-38.5 -140.5q0 -84 38.5 -145t117.5 -61q53 0 89.5 32.5t51.5 77t15 96.5zM434 736
l-139 -145h-64l95 145h108z" />
    <glyph glyph-name="ocircumflex" unicode="&#xf4;" horiz-adv-x="587" 
d="M542 255q0 -115 -66.5 -190.5t-181.5 -75.5q-118 0 -183.5 74t-65.5 192q0 116 67 188.5t183 72.5q117 0 182 -71.5t65 -189.5zM450 255q0 83 -38.5 140.5t-117.5 57.5t-117.5 -57.5t-38.5 -140.5q0 -84 38.5 -145t117.5 -61q53 0 89.5 32.5t51.5 77t15 96.5zM448 591
h-64l-86 99l-88 -99h-64l105 146h94z" />
    <glyph glyph-name="otilde" unicode="&#xf5;" horiz-adv-x="587" 
d="M542 255q0 -115 -66.5 -190.5t-181.5 -75.5q-118 0 -183.5 74t-65.5 192q0 116 67 188.5t183 72.5q117 0 182 -71.5t65 -189.5zM450 255q0 83 -38.5 140.5t-117.5 57.5t-117.5 -57.5t-38.5 -140.5q0 -84 38.5 -145t117.5 -61q53 0 89.5 32.5t51.5 77t15 96.5zM452 716
q-7 -39 -33 -67.5t-63 -28.5q-20 0 -59 12t-59 12q-36 0 -48 -30h-47q7 41 33.5 67.5t67.5 26.5q20 0 57.5 -12t57.5 -12q33 0 45 32h48z" />
    <glyph glyph-name="odieresis" unicode="&#xf6;" horiz-adv-x="587" 
d="M542 255q0 -115 -66.5 -190.5t-181.5 -75.5q-118 0 -183.5 74t-65.5 192q0 116 67 188.5t183 72.5q117 0 182 -71.5t65 -189.5zM450 255q0 83 -38.5 140.5t-117.5 57.5t-117.5 -57.5t-38.5 -140.5q0 -84 38.5 -145t117.5 -61q53 0 89.5 32.5t51.5 77t15 96.5zM438 636
h-93v88h93v-88zM247 636h-93v88h93v-88z" />
    <glyph glyph-name="divide" unicode="&#xf7;" horiz-adv-x="673" 
d="M384 370h-95v115h95v-115zM591 212h-509v73h509v-73zM384 11h-95v114h95v-114z" />
    <glyph glyph-name="oslash" unicode="&#xf8;" horiz-adv-x="587" 
d="M542 255q0 -115 -66.5 -190.5t-181.5 -75.5q-98 0 -163 54l-70 -75l-38 34l73 78q-51 69 -51 175q0 116 67 188.5t183 72.5q98 0 161 -52l70 75l40 -31l-75 -80q51 -68 51 -173zM402 407q-41 46 -108 46q-79 0 -117.5 -57.5t-38.5 -140.5q0 -60 20 -109zM450 255
q0 61 -20 107l-246 -262q41 -51 110 -51q53 0 89.5 32.5t51.5 77t15 96.5z" />
    <glyph glyph-name="ugrave" unicode="&#xf9;" horiz-adv-x="592" 
d="M513 0h-86l-4 80q-62 -86 -163 -86q-96 0 -138.5 49.5t-42.5 147.5v314h88v-280q0 -30 2 -51t8.5 -44t19 -37t34.5 -23t53 -9q74 0 106.5 49.5t32.5 127.5v267h88v-245q0 -173 2 -260zM360 591h-63l-139 145h108z" />
    <glyph glyph-name="uacute" unicode="&#xfa;" horiz-adv-x="592" 
d="M513 0h-86l-4 80q-62 -86 -163 -86q-96 0 -138.5 49.5t-42.5 147.5v314h88v-280q0 -30 2 -51t8.5 -44t19 -37t34.5 -23t53 -9q74 0 106.5 49.5t32.5 127.5v267h88v-245q0 -173 2 -260zM432 736l-139 -145h-64l95 145h108z" />
    <glyph glyph-name="ucircumflex" unicode="&#xfb;" horiz-adv-x="592" 
d="M513 0h-86l-4 80q-62 -86 -163 -86q-96 0 -138.5 49.5t-42.5 147.5v314h88v-280q0 -30 2 -51t8.5 -44t19 -37t34.5 -23t53 -9q74 0 106.5 49.5t32.5 127.5v267h88v-245q0 -173 2 -260zM446 591h-64l-86 99l-88 -99h-64l105 146h94z" />
    <glyph glyph-name="udieresis" unicode="&#xfc;" horiz-adv-x="592" 
d="M513 0h-86l-4 80q-62 -86 -163 -86q-96 0 -138.5 49.5t-42.5 147.5v314h88v-280q0 -30 2 -51t8.5 -44t19 -37t34.5 -23t53 -9q74 0 106.5 49.5t32.5 127.5v267h88v-245q0 -173 2 -260zM436 636h-93v88h93v-88zM245 636h-93v88h93v-88z" />
    <glyph glyph-name="yacute" unicode="&#xfd;" horiz-adv-x="529" 
d="M519 505l-286 -695h-88l83 191l-215 504h100l159 -413l158 413h89zM411 736l-139 -145h-64l95 145h108z" />
    <glyph glyph-name="thorn" unicode="&#xfe;" horiz-adv-x="599" 
d="M554 260q0 -71 -23.5 -130t-75.5 -98.5t-125 -39.5q-54 0 -91 20t-69 65v-267h-88v913h88v-304q60 95 171 95q105 0 159 -73t54 -181zM462 255q0 50 -11.5 92t-44.5 74.5t-84 32.5q-77 0 -114.5 -60t-37.5 -142q0 -51 11.5 -92.5t45 -73.5t84.5 -32q54 0 89.5 31t48.5 74
t13 96z" />
    <glyph glyph-name="ydieresis" unicode="&#xff;" horiz-adv-x="529" 
d="M519 505l-286 -695h-88l83 191l-215 504h100l159 -413l158 413h89zM415 636h-93v88h93v-88zM224 636h-93v88h93v-88z" />
    <glyph glyph-name="Amacron" unicode="&#x100;" horiz-adv-x="712" 
d="M707 0h-108l-75 191h-350l-74 -191h-95l294 723h103zM495 262l-150 380l-145 -380h295zM482 811h-274v61h274v-61z" />
    <glyph glyph-name="amacron" unicode="&#x101;" horiz-adv-x="549" 
d="M479 0h-77q-7 39 -9 71q-56 -82 -171 -82q-76 0 -126.5 38.5t-50.5 111.5q0 43 19 75t47 49.5t69 28t76 13.5t78 3q22 0 50 -2v30q0 61 -25.5 91.5t-85.5 30.5q-48 0 -74.5 -20.5t-30.5 -68.5h-86q2 52 30.5 86t68 47t90.5 13q99 0 145.5 -42t46.5 -139v-186
q0 -95 16 -148zM384 253q-21 2 -45 2q-206 0 -206 -112q0 -44 32.5 -69.5t78.5 -25.5q37 0 63.5 12t41 30t23 47t10.5 55t2 61zM414 636h-274v61h274v-61z" />
    <glyph glyph-name="Abreve" unicode="&#x102;" horiz-adv-x="712" 
d="M707 0h-108l-75 191h-350l-74 -191h-95l294 723h103zM495 262l-150 380l-145 -380h295zM496 904q-7 -59 -47 -91t-105 -32q-64 0 -107 32.5t-44 90.5h45q6 -33 37.5 -50.5t68.5 -17.5q86 0 109 68h43z" />
    <glyph glyph-name="abreve" unicode="&#x103;" horiz-adv-x="549" 
d="M479 0h-77q-7 39 -9 71q-56 -82 -171 -82q-76 0 -126.5 38.5t-50.5 111.5q0 43 19 75t47 49.5t69 28t76 13.5t78 3q22 0 50 -2v30q0 61 -25.5 91.5t-85.5 30.5q-48 0 -74.5 -20.5t-30.5 -68.5h-86q2 52 30.5 86t68 47t90.5 13q99 0 145.5 -42t46.5 -139v-186
q0 -95 16 -148zM384 253q-21 2 -45 2q-206 0 -206 -112q0 -44 32.5 -69.5t78.5 -25.5q37 0 63.5 12t41 30t23 47t10.5 55t2 61zM428 714q-7 -59 -47 -91t-105 -32q-64 0 -107 32.5t-44 90.5h45q6 -33 37.5 -50.5t68.5 -17.5q86 0 109 68h43z" />
    <glyph glyph-name="Aogonek" unicode="&#x104;" horiz-adv-x="712" 
d="M402 723l305 -723q-23 0 -45 -10q-87 -38 -87 -87q0 -23 17.5 -35.5t42.5 -12.5q19 0 42 10l6 -32q-40 -19 -79 -19q-37 0 -66 17.5t-29 52.5q0 73 116 116h-26l-75 191h-350l-74 -191h-95l294 723h103zM495 262l-150 380l-145 -380h295z" />
    <glyph glyph-name="aogonek" unicode="&#x105;" horiz-adv-x="549" 
d="M479 0q-40 -7 -79.5 -35t-39.5 -62q0 -23 17.5 -35.5t42.5 -12.5q19 0 42 10l6 -32q-40 -19 -79 -19q-37 0 -66 17.5t-29 52.5q0 38 32.5 67.5t81.5 48.5h-6q-7 39 -9 71q-56 -82 -171 -82q-76 0 -126.5 38.5t-50.5 111.5q0 43 19 75t47 49.5t69 28t76 13.5t78 3
q22 0 50 -2v30q0 61 -25.5 91.5t-85.5 30.5q-48 0 -74.5 -20.5t-30.5 -68.5h-86q2 52 30.5 86t68 47t90.5 13q99 0 145.5 -42t46.5 -139v-186q0 -95 16 -148zM384 253q-21 2 -45 2q-206 0 -206 -112q0 -44 32.5 -69.5t78.5 -25.5q37 0 63.5 12t41 30t23 47t10.5 55t2 61z
" />
    <glyph glyph-name="Cacute" unicode="&#x106;" horiz-adv-x="681" 
d="M632 194q-13 -107 -83.5 -156t-180.5 -49q-159 0 -238 101.5t-79 264.5q0 75 20.5 142.5t59.5 121t101.5 85t141.5 31.5q100 0 175 -51t78 -147h-99q-6 59 -49.5 90t-105.5 31q-58 0 -103 -26.5t-70 -71t-37.5 -95.5t-12.5 -106q0 -45 6.5 -85.5t23 -79t41 -66.5t63 -45
t86.5 -17q69 0 113 35.5t48 92.5h101zM503 921l-139 -145h-64l95 145h108z" />
    <glyph glyph-name="cacute" unicode="&#x107;" horiz-adv-x="536" 
d="M503 169q-7 -88 -65 -134t-148 -46q-117 0 -181 70.5t-64 187.5q0 121 65.5 196.5t184.5 75.5q88 0 143.5 -45t62.5 -132h-86q-4 54 -35 84.5t-85 30.5q-82 0 -119.5 -59.5t-37.5 -146.5q0 -52 14 -95.5t50 -75t89 -31.5q55 0 88.5 33t37.5 88h83zM425 736l-139 -145h-64
l95 145h108z" />
    <glyph glyph-name="Ccircumflex" unicode="&#x108;" horiz-adv-x="681" 
d="M632 194q-13 -107 -83.5 -156t-180.5 -49q-159 0 -238 101.5t-79 264.5q0 75 20.5 142.5t59.5 121t101.5 85t141.5 31.5q100 0 175 -51t78 -147h-99q-6 59 -49.5 90t-105.5 31q-58 0 -103 -26.5t-70 -71t-37.5 -95.5t-12.5 -106q0 -45 6.5 -85.5t23 -79t41 -66.5t63 -45
t86.5 -17q69 0 113 35.5t48 92.5h101zM516 775h-64l-86 99l-88 -99h-64l105 146h94z" />
    <glyph glyph-name="ccircumflex" unicode="&#x109;" horiz-adv-x="536" 
d="M503 169q-7 -88 -65 -134t-148 -46q-117 0 -181 70.5t-64 187.5q0 121 65.5 196.5t184.5 75.5q88 0 143.5 -45t62.5 -132h-86q-4 54 -35 84.5t-85 30.5q-82 0 -119.5 -59.5t-37.5 -146.5q0 -52 14 -95.5t50 -75t89 -31.5q55 0 88.5 33t37.5 88h83zM439 591h-64l-86 99
l-88 -99h-64l105 146h94z" />
    <glyph glyph-name="Cdotaccent" unicode="&#x10a;" horiz-adv-x="681" 
d="M632 194q-13 -107 -83.5 -156t-180.5 -49q-159 0 -238 101.5t-79 264.5q0 75 20.5 142.5t59.5 121t101.5 85t141.5 31.5q100 0 175 -51t78 -147h-99q-6 59 -49.5 90t-105.5 31q-58 0 -103 -26.5t-70 -71t-37.5 -95.5t-12.5 -106q0 -45 6.5 -85.5t23 -79t41 -66.5t63 -45
t86.5 -17q69 0 113 35.5t48 92.5h101zM412 821h-93v88h93v-88z" />
    <glyph glyph-name="cdotaccent" unicode="&#x10b;" horiz-adv-x="536" 
d="M503 169q-7 -88 -65 -134t-148 -46q-117 0 -181 70.5t-64 187.5q0 121 65.5 196.5t184.5 75.5q88 0 143.5 -45t62.5 -132h-86q-4 54 -35 84.5t-85 30.5q-82 0 -119.5 -59.5t-37.5 -146.5q0 -52 14 -95.5t50 -75t89 -31.5q55 0 88.5 33t37.5 88h83zM334 636h-93v88h93v-88
z" />
    <glyph glyph-name="Ccaron" unicode="&#x10c;" horiz-adv-x="681" 
d="M632 194q-13 -107 -83.5 -156t-180.5 -49q-159 0 -238 101.5t-79 264.5q0 75 20.5 142.5t59.5 121t101.5 85t141.5 31.5q100 0 175 -51t78 -147h-99q-6 59 -49.5 90t-105.5 31q-58 0 -103 -26.5t-70 -71t-37.5 -95.5t-12.5 -106q0 -45 6.5 -85.5t23 -79t41 -66.5t63 -45
t86.5 -17q69 0 113 35.5t48 92.5h101zM517 921l-102 -145h-99l-103 145h64l90 -99l86 99h64z" />
    <glyph glyph-name="ccaron" unicode="&#x10d;" horiz-adv-x="536" 
d="M503 169q-7 -88 -65 -134t-148 -46q-117 0 -181 70.5t-64 187.5q0 121 65.5 196.5t184.5 75.5q88 0 143.5 -45t62.5 -132h-86q-4 54 -35 84.5t-85 30.5q-82 0 -119.5 -59.5t-37.5 -146.5q0 -52 14 -95.5t50 -75t89 -31.5q55 0 88.5 33t37.5 88h83zM439 736l-102 -145h-99
l-103 145h64l90 -99l86 99h64z" />
    <glyph glyph-name="Dcaron" unicode="&#x10e;" horiz-adv-x="744" 
d="M693 364q0 -154 -74.5 -249.5t-224.5 -110.5q-40 -4 -122 -4h-174v723h212q128 0 200 -30q183 -76 183 -329zM595 364q0 170 -103 244q-60 43 -188 43h-112v-578h130q144 0 208.5 72.5t64.5 218.5zM519 921l-102 -145h-99l-103 145h64l90 -99l86 99h64z" />
    <glyph glyph-name="dcaron" unicode="&#x10f;" horiz-adv-x="598" 
d="M519 0h-86l-5 77q-33 -45 -70 -65.5t-92 -20.5q-108 0 -164.5 76.5t-56.5 188.5q0 108 56.5 183.5t161.5 75.5q57 0 96.5 -21t68.5 -69v298h88v-576q0 -98 3 -147zM429 252q0 52 -14 95.5t-49.5 74.5t-88.5 31q-74 0 -107 -59t-33 -140q0 -84 36 -141.5t115 -57.5
q51 0 84.5 31.5t45 73t11.5 92.5zM693 723l-60 -225h-65l27 225h98z" />
    <glyph glyph-name="Dcroat" unicode="&#x110;" horiz-adv-x="744" 
d="M693 365q0 -154 -74.5 -250t-224.5 -111q-41 -4 -122 -4h-174v369h-69v61h69v293h212q185 0 284 -88t99 -270zM595 366q0 174 -102 245q-58 40 -189 40h-112v-221h194v-61h-194v-296h130q145 0 209 73t64 220z" />
    <glyph glyph-name="dcroat" unicode="&#x111;" horiz-adv-x="598" 
d="M519 0h-86l-5 77q-33 -45 -70 -65.5t-92 -20.5q-108 0 -164.5 76.5t-56.5 188.5q0 108 56.5 183.5t161.5 75.5q57 0 96.5 -21t68.5 -69v146h-167v56h167v96h88v-96h55v-56h-55v-424q0 -98 3 -147zM429 252q0 52 -14 95.5t-49.5 74.5t-88.5 31q-74 0 -107 -59t-33 -140
q0 -84 36 -141.5t115 -57.5q51 0 84.5 31.5t45 73t11.5 92.5z" />
    <glyph glyph-name="Emacron" unicode="&#x112;" horiz-adv-x="608" 
d="M560 0h-462v723h448v-73h-355v-240h340v-73h-340v-264h369v-73zM465 811h-274v61h274v-61z" />
    <glyph glyph-name="emacron" unicode="&#x113;" horiz-adv-x="547" 
d="M502 236h-369v-10q0 -75 39.5 -126.5t112.5 -51.5q54 0 88 30.5t42 84.5h84q-15 -87 -73.5 -130.5t-147.5 -43.5q-114 0 -173.5 69t-59.5 186q0 120 61 195t179 75q217 0 217 -278zM415 294q1 67 -33.5 113.5t-99.5 46.5q-66 0 -103 -45.5t-44 -114.5h280zM416 636h-274
v61h274v-61z" />
    <glyph glyph-name="Ebreve" unicode="&#x114;" horiz-adv-x="608" 
d="M560 0h-462v723h448v-73h-355v-240h340v-73h-340v-264h369v-73zM479 904q-7 -59 -47 -91t-105 -32q-64 0 -107 32.5t-44 90.5h45q6 -33 37.5 -50.5t68.5 -17.5q86 0 109 68h43z" />
    <glyph glyph-name="ebreve" unicode="&#x115;" horiz-adv-x="547" 
d="M502 236h-369v-10q0 -75 39.5 -126.5t112.5 -51.5q54 0 88 30.5t42 84.5h84q-15 -87 -73.5 -130.5t-147.5 -43.5q-114 0 -173.5 69t-59.5 186q0 120 61 195t179 75q217 0 217 -278zM415 294q1 67 -33.5 113.5t-99.5 46.5q-66 0 -103 -45.5t-44 -114.5h280zM430 714
q-7 -59 -47 -91t-105 -32q-64 0 -107 32.5t-44 90.5h45q6 -33 37.5 -50.5t68.5 -17.5q86 0 109 68h43z" />
    <glyph glyph-name="Edotaccent" unicode="&#x116;" horiz-adv-x="608" 
d="M560 0h-462v723h448v-73h-355v-240h340v-73h-340v-264h369v-73zM375 821h-93v88h93v-88z" />
    <glyph glyph-name="edotaccent" unicode="&#x117;" horiz-adv-x="547" 
d="M502 236h-369v-10q0 -75 39.5 -126.5t112.5 -51.5q54 0 88 30.5t42 84.5h84q-15 -87 -73.5 -130.5t-147.5 -43.5q-114 0 -173.5 69t-59.5 186q0 120 61 195t179 75q217 0 217 -278zM415 294q1 67 -33.5 113.5t-99.5 46.5q-66 0 -103 -45.5t-44 -114.5h280zM326 636h-93
v88h93v-88z" />
    <glyph glyph-name="Eogonek" unicode="&#x118;" horiz-adv-x="608" 
d="M560 0h-6q-59 -27 -84 -48t-25 -49q0 -23 17.5 -35.5t42.5 -12.5q19 0 42 10l6 -32q-40 -19 -79 -19q-37 0 -66 17.5t-29 52.5q0 70 115 116h-396v723h448v-73h-355v-240h340v-73h-340v-264h369v-73z" />
    <glyph glyph-name="eogonek" unicode="&#x119;" horiz-adv-x="547" 
d="M344 -4q-55 -25 -78 -45.5t-23 -47.5q0 -23 17.5 -35.5t42.5 -12.5q19 0 42 10l6 -32q-40 -19 -79 -19q-37 0 -66 17.5t-29 52.5q0 62 91 105q-109 3 -166 72t-57 183q0 120 61 195t179 75q217 0 217 -278h-369v-10q0 -75 39.5 -126.5t112.5 -51.5q54 0 88 30.5t42 84.5
h84q-24 -138 -155 -167zM415 294q1 67 -33.5 113.5t-99.5 46.5q-66 0 -103 -45.5t-44 -114.5h280z" />
    <glyph glyph-name="Ecaron" unicode="&#x11a;" horiz-adv-x="608" 
d="M560 0h-462v723h448v-73h-355v-240h340v-73h-340v-264h369v-73zM480 921l-102 -145h-99l-103 145h64l90 -99l86 99h64z" />
    <glyph glyph-name="ecaron" unicode="&#x11b;" horiz-adv-x="547" 
d="M502 236h-369v-10q0 -75 39.5 -126.5t112.5 -51.5q54 0 88 30.5t42 84.5h84q-15 -87 -73.5 -130.5t-147.5 -43.5q-114 0 -173.5 69t-59.5 186q0 120 61 195t179 75q217 0 217 -278zM415 294q1 67 -33.5 113.5t-99.5 46.5q-66 0 -103 -45.5t-44 -114.5h280zM431 736
l-102 -145h-99l-103 145h64l90 -99l86 99h64z" />
    <glyph glyph-name="Gcircumflex" unicode="&#x11c;" horiz-adv-x="731" 
d="M646 32q-147 -40 -248 -40q-166 0 -256.5 102t-90.5 270q0 161 87.5 267.5t246.5 106.5q106 0 176 -51t79 -153h-98q-21 129 -161 129q-79 0 -132.5 -44.5t-75 -108.5t-21.5 -141q0 -61 14.5 -114t43.5 -96t78 -68t113 -25q81 0 154 22v215h-173v71h264v-342zM535 775
h-64l-86 99l-88 -99h-64l105 146h94z" />
    <glyph glyph-name="gcircumflex" unicode="&#x11d;" horiz-adv-x="604" 
d="M526 505q-4 -58 -4 -175v-187q0 -50 -1 -81t-6 -71.5t-14.5 -65t-27 -51.5t-42.5 -41.5t-62 -24t-85 -9.5q-42 0 -76.5 7t-65.5 23.5t-49 48t-18 75.5h86q0 -50 34.5 -72t87.5 -22q75 0 109 38.5t40 113.5q2 27 2 83q-58 -89 -167 -89q-108 0 -165 71.5t-57 182.5
q0 107 58 181t163 74q115 0 171 -95v86h89zM435 264q0 75 -38 132t-109 57q-40 0 -70 -17t-46.5 -46t-24.5 -62.5t-8 -71.5q0 -80 36.5 -136t111.5 -56q77 0 112.5 58.5t35.5 141.5zM444 591h-64l-86 99l-88 -99h-64l105 146h94z" />
    <glyph glyph-name="Gbreve" unicode="&#x11e;" horiz-adv-x="731" 
d="M646 32q-147 -40 -248 -40q-166 0 -256.5 102t-90.5 270q0 161 87.5 267.5t246.5 106.5q106 0 176 -51t79 -153h-98q-21 129 -161 129q-79 0 -132.5 -44.5t-75 -108.5t-21.5 -141q0 -61 14.5 -114t43.5 -96t78 -68t113 -25q81 0 154 22v215h-173v71h264v-342zM535 904
q-7 -59 -47 -91t-105 -32q-64 0 -107 32.5t-44 90.5h45q6 -33 37.5 -50.5t68.5 -17.5q86 0 109 68h43z" />
    <glyph glyph-name="gbreve" unicode="&#x11f;" horiz-adv-x="604" 
d="M526 505q-4 -58 -4 -175v-187q0 -50 -1 -81t-6 -71.5t-14.5 -65t-27 -51.5t-42.5 -41.5t-62 -24t-85 -9.5q-42 0 -76.5 7t-65.5 23.5t-49 48t-18 75.5h86q0 -50 34.5 -72t87.5 -22q75 0 109 38.5t40 113.5q2 27 2 83q-58 -89 -167 -89q-108 0 -165 71.5t-57 182.5
q0 107 58 181t163 74q115 0 171 -95v86h89zM435 264q0 75 -38 132t-109 57q-40 0 -70 -17t-46.5 -46t-24.5 -62.5t-8 -71.5q0 -80 36.5 -136t111.5 -56q77 0 112.5 58.5t35.5 141.5zM443 714q-7 -59 -47 -91t-105 -32q-64 0 -107 32.5t-44 90.5h45q6 -33 37.5 -50.5
t68.5 -17.5q86 0 109 68h43z" />
    <glyph glyph-name="Gdotaccent" unicode="&#x120;" horiz-adv-x="731" 
d="M646 32q-147 -40 -248 -40q-166 0 -256.5 102t-90.5 270q0 161 87.5 267.5t246.5 106.5q106 0 176 -51t79 -153h-98q-21 129 -161 129q-79 0 -132.5 -44.5t-75 -108.5t-21.5 -141q0 -61 14.5 -114t43.5 -96t78 -68t113 -25q81 0 154 22v215h-173v71h264v-342zM431 821
h-93v88h93v-88z" />
    <glyph glyph-name="gdotaccent" unicode="&#x121;" horiz-adv-x="604" 
d="M526 505q-4 -58 -4 -175v-187q0 -50 -1 -81t-6 -71.5t-14.5 -65t-27 -51.5t-42.5 -41.5t-62 -24t-85 -9.5q-42 0 -76.5 7t-65.5 23.5t-49 48t-18 75.5h86q0 -50 34.5 -72t87.5 -22q75 0 109 38.5t40 113.5q2 27 2 83q-58 -89 -167 -89q-108 0 -165 71.5t-57 182.5
q0 107 58 181t163 74q115 0 171 -95v86h89zM435 264q0 75 -38 132t-109 57q-40 0 -70 -17t-46.5 -46t-24.5 -62.5t-8 -71.5q0 -80 36.5 -136t111.5 -56q77 0 112.5 58.5t35.5 141.5zM339 636h-93v88h93v-88z" />
    <glyph glyph-name="Gcommaaccent" unicode="&#x122;" horiz-adv-x="731" 
d="M646 32q-147 -40 -248 -40q-166 0 -256.5 102t-90.5 270q0 161 87.5 267.5t246.5 106.5q106 0 176 -51t79 -153h-98q-21 129 -161 129q-79 0 -132.5 -44.5t-75 -108.5t-21.5 -141q0 -61 14.5 -114t43.5 -96t78 -68t113 -25q81 0 154 22v215h-173v71h264v-342zM429 -33
l-64 -167h-63l39 167h88z" />
    <glyph glyph-name="gcommaaccent" unicode="&#x123;" horiz-adv-x="604" 
d="M526 505q-4 -58 -4 -175v-187q0 -50 -1 -81t-6 -71.5t-14.5 -65t-27 -51.5t-42.5 -41.5t-62 -24t-85 -9.5q-42 0 -76.5 7t-65.5 23.5t-49 48t-18 75.5h86q0 -50 34.5 -72t87.5 -22q75 0 109 38.5t40 113.5q2 27 2 83q-58 -89 -167 -89q-108 0 -165 71.5t-57 182.5
q0 107 58 181t163 74q115 0 171 -95v86h89zM435 264q0 75 -38 132t-109 57q-40 0 -70 -17t-46.5 -46t-24.5 -62.5t-8 -71.5q0 -80 36.5 -136t111.5 -56q77 0 112.5 58.5t35.5 141.5zM233 591l60 145h63l-35 -145h-88z" />
    <glyph glyph-name="Hcircumflex" unicode="&#x124;" horiz-adv-x="758" 
d="M660 0h-94v334h-374v-334h-94v723h94v-315h374v315h94v-723zM530 775h-64l-86 99l-88 -99h-64l105 146h94z" />
    <glyph glyph-name="hcircumflex" unicode="&#x125;" horiz-adv-x="593" 
d="M514 0h-88v280q0 39 -3.5 64t-14.5 50.5t-36 38t-63 12.5q-71 0 -105 -50.5t-34 -127.5v-267h-88v723h88v-297q60 86 163 86q96 0 138.5 -50t42.5 -148v-314zM277 775h-64l-86 99l-88 -99h-64l105 146h94z" />
    <glyph glyph-name="Hbar" unicode="&#x126;" horiz-adv-x="758" 
d="M192 480v-72h374v72h-374zM192 541h374v182h94v-723h-94v334h-374v-334h-94v723h94v-182z" />
    <glyph glyph-name="hbar" unicode="&#x127;" horiz-adv-x="593" 
d="M514 0h-88v280q0 39 -3.5 64t-14.5 50.5t-36 38t-63 12.5q-71 0 -105 -50.5t-34 -127.5v-267h-88v571h-58v56h58v96h88v-96h164v-56h-164v-145q60 86 163 86q96 0 138.5 -50t42.5 -148v-314z" />
    <glyph glyph-name="Itilde" unicode="&#x128;" horiz-adv-x="290" 
d="M192 0h-94v723h94v-723zM300 901q-7 -39 -33 -67.5t-63 -28.5q-20 0 -59 12t-59 12q-36 0 -48 -30h-47q7 41 33.5 67.5t67.5 26.5q20 0 57.5 -12t57.5 -12q33 0 45 32h48z" />
    <glyph glyph-name="itilde" unicode="&#x129;" horiz-adv-x="252" 
d="M170 0h-88v505h88v-505zM281 716q-7 -39 -33 -67.5t-63 -28.5q-21 0 -59 12t-59 12q-36 0 -48 -30h-47q7 41 33.5 67.5t67.5 26.5q20 0 57.5 -12t57.5 -12q33 0 45 32h48z" />
    <glyph glyph-name="Imacron" unicode="&#x12a;" horiz-adv-x="290" 
d="M192 0h-94v723h94v-723zM282 811h-274v61h274v-61z" />
    <glyph glyph-name="imacron" unicode="&#x12b;" horiz-adv-x="252" 
d="M170 0h-88v505h88v-505zM264 636h-274v61h274v-61z" />
    <glyph glyph-name="Ibreve" unicode="&#x12c;" horiz-adv-x="290" 
d="M192 0h-94v723h94v-723zM296 904q-7 -59 -47 -91t-105 -32q-64 0 -107 32.5t-44 90.5h45q6 -33 37.5 -50.5t68.5 -17.5q86 0 109 68h43z" />
    <glyph glyph-name="ibreve" unicode="&#x12d;" horiz-adv-x="252" 
d="M170 0h-88v505h88v-505zM278 714q-7 -59 -47 -91t-105 -32q-64 0 -107 32.5t-44 90.5h45q6 -33 37.5 -50.5t68.5 -17.5q86 0 109 68h43z" />
    <glyph glyph-name="Iogonek" unicode="&#x12e;" horiz-adv-x="290" 
d="M192 0q-59 -27 -83.5 -48t-24.5 -49q0 -23 17.5 -35.5t42.5 -12.5q19 0 42 10l6 -32q-40 -19 -79 -19q-37 0 -66 17.5t-29 52.5q0 72 116 116h-36v723h94v-723z" />
    <glyph glyph-name="iogonek" unicode="&#x12f;" horiz-adv-x="252" 
d="M170 0q-59 -27 -84 -48t-25 -49q0 -23 17.5 -35.5t42.5 -12.5q19 0 42 10l6 -32q-40 -19 -79 -19q-37 0 -66 17.5t-29 52.5q0 72 118 116h-31v505h88v-505zM175 634h-98v89h98v-89z" />
    <glyph glyph-name="Idotaccent" unicode="&#x130;" horiz-adv-x="290" 
d="M192 0h-94v723h94v-723zM192 821h-93v88h93v-88z" />
    <glyph glyph-name="dotlessi" unicode="&#x131;" horiz-adv-x="252" 
d="M170 0h-88v505h88v-505z" />
    <glyph glyph-name="Jcircumflex" unicode="&#x134;" horiz-adv-x="519" 
d="M435 217q0 -227 -221 -227q-89 0 -148 50t-59 146h96q0 -53 27.5 -87.5t86.5 -34.5q124 0 124 155v504h94v-506zM539 775h-64l-86 99l-88 -99h-64l105 146h94z" />
    <glyph glyph-name="jcircumflex" unicode="&#x135;" horiz-adv-x="252" 
d="M170 -63q0 -73 -30 -98t-105 -25q-28 0 -50 2v66q20 -3 38 -3q39 0 49 18.5t10 61.5v546h88v-568zM276 591h-64l-86 99l-88 -99h-64l105 146h94z" />
    <glyph glyph-name="Kcommaaccent" unicode="&#x136;" horiz-adv-x="652" 
d="M652 0h-123l-335 393l304 330h120l-317 -324zM192 0h-94v723h94v-723zM391 -33l-64 -167h-63l39 167h88z" />
    <glyph glyph-name="kcommaaccent" unicode="&#x137;" horiz-adv-x="542" 
d="M532 0h-113l-246 285l227 221h112l-235 -218zM170 0h-88v723h88v-723zM324 -33l-64 -167h-63l39 167h88z" />
    <glyph glyph-name="kgreenlandic" unicode="&#x138;" horiz-adv-x="542" 
d="M532 0h-113l-246 285l227 221h112l-235 -218zM170 0h-88v506h88v-506z" />
    <glyph glyph-name="Lacute" unicode="&#x139;" horiz-adv-x="568" 
d="M547 0h-449v723h94v-650h355v-73zM304 921l-139 -145h-64l95 145h108z" />
    <glyph glyph-name="lacute" unicode="&#x13a;" horiz-adv-x="252" 
d="M170 0h-88v723h88v-723zM265 911l-139 -145h-64l95 145h108z" />
    <glyph glyph-name="Lcommaaccent" unicode="&#x13b;" horiz-adv-x="568" 
d="M547 0h-449v723h94v-650h355v-73zM374 -33l-64 -167h-63l39 167h88z" />
    <glyph glyph-name="lcommaaccent" unicode="&#x13c;" horiz-adv-x="252" 
d="M170 0h-88v723h88v-723zM175 -33l-64 -167h-63l39 167h88z" />
    <glyph glyph-name="Lcaron" unicode="&#x13d;" horiz-adv-x="568" 
d="M547 0h-449v723h94v-650h355v-73zM421 723l-60 -225h-65l27 225h98z" />
    <glyph glyph-name="lcaron" unicode="&#x13e;" horiz-adv-x="252" 
d="M170 0h-88v723h88v-723zM348 723l-60 -225h-65l27 225h98z" />
    <glyph glyph-name="Ldot" unicode="&#x13f;" horiz-adv-x="568" 
d="M547 0h-449v723h94v-650h355v-73zM470 357h-93v88h93v-88z" />
    <glyph glyph-name="ldot" unicode="&#x140;" horiz-adv-x="315" 
d="M170 0h-88v723h88v-723zM330 337h-93v88h93v-88z" />
    <glyph glyph-name="Lslash" unicode="&#x141;" horiz-adv-x="568" 
d="M547 0h-449v319l-77 -46v67l77 45v338h94v-286l193 115v-66l-193 -115v-298h355v-73z" />
    <glyph glyph-name="lslash" unicode="&#x142;" horiz-adv-x="252" 
d="M261 438l-91 -59v-379h-88v323l-91 -57v67l91 58v332h88v-275l91 56v-66z" />
    <glyph glyph-name="Nacute" unicode="&#x143;" horiz-adv-x="766" 
d="M668 0h-126l-359 627v-627h-85v723h126l359 -629v629h85v-723zM516 921l-139 -145h-64l95 145h108z" />
    <glyph glyph-name="nacute" unicode="&#x144;" horiz-adv-x="593" 
d="M514 0h-88v280q0 30 -2 51t-8.5 44t-19 37t-34.5 23t-53 9q-39 0 -67.5 -16.5t-43.5 -45t-21.5 -60.5t-6.5 -70v-252h-88v375q0 43 -3 130h87l3 -81q61 87 165 87q96 0 138 -50t42 -147v-314zM446 736l-139 -145h-64l95 145h108z" />
    <glyph glyph-name="Ncommaaccent" unicode="&#x145;" horiz-adv-x="766" 
d="M668 0h-126l-359 627v-627h-85v723h126l359 -629v629h85v-723zM409 -33l-64 -167h-63l39 167h88z" />
    <glyph glyph-name="ncommaaccent" unicode="&#x146;" horiz-adv-x="593" 
d="M514 0h-88v280q0 30 -2 51t-8.5 44t-19 37t-34.5 23t-53 9q-39 0 -67.5 -16.5t-43.5 -45t-21.5 -60.5t-6.5 -70v-252h-88v375q0 43 -3 130h87l3 -81q61 87 165 87q96 0 138 -50t42 -147v-314zM348 -33l-64 -167h-63l39 167h88z" />
    <glyph glyph-name="Ncaron" unicode="&#x147;" horiz-adv-x="766" 
d="M668 0h-126l-359 627v-627h-85v723h126l359 -629v629h85v-723zM530 921l-102 -145h-99l-103 145h64l90 -99l86 99h64z" />
    <glyph glyph-name="ncaron" unicode="&#x148;" horiz-adv-x="593" 
d="M514 0h-88v280q0 30 -2 51t-8.5 44t-19 37t-34.5 23t-53 9q-39 0 -67.5 -16.5t-43.5 -45t-21.5 -60.5t-6.5 -70v-252h-88v375q0 43 -3 130h87l3 -81q61 87 165 87q96 0 138 -50t42 -147v-314zM460 736l-102 -145h-99l-103 145h64l90 -99l86 99h64z" />
    <glyph glyph-name="Eng" unicode="&#x14a;" horiz-adv-x="766" 
d="M583 -26v26l-400 628v-628h-85v723h126l359 -567v567h85v-694q0 -121 -35 -168t-125 -47q-30 0 -53 3v72q19 -3 40 -3q46 0 67 20.5t21 67.5z" />
    <glyph glyph-name="eng" unicode="&#x14b;" horiz-adv-x="593" 
d="M514 314v-354q0 -78 -31 -112t-104 -34q-29 0 -56 3v66q21 -4 41 -4q34 0 48 18.5t14 66.5v316q0 30 -2 51t-8.5 44t-19 37t-34.5 23t-53 9q-39 0 -67.5 -16.5t-43.5 -45t-21.5 -60.5t-6.5 -70v-252h-88v375q0 43 -3 130h87l3 -81q61 87 165 87q96 0 138 -50t42 -147z
" />
    <glyph glyph-name="Omacron" unicode="&#x14c;" horiz-adv-x="755" 
d="M704 367q0 -108 -33 -191t-108.5 -135.5t-185.5 -52.5q-162 0 -244 104t-82 270q0 163 84 269.5t243 106.5q164 0 245 -101.5t81 -269.5zM605 364q0 47 -7 88.5t-23.5 81t-42 67.5t-65.5 45t-90 17q-61 0 -106.5 -26t-71 -70t-37.5 -95t-12 -108q0 -58 12 -109.5t37 -96
t71 -70.5t107 -26t107 26t71.5 70.5t37.5 96t12 109.5zM514 811h-274v61h274v-61z" />
    <glyph glyph-name="omacron" unicode="&#x14d;" horiz-adv-x="587" 
d="M542 255q0 -115 -66.5 -190.5t-181.5 -75.5q-118 0 -183.5 74t-65.5 192q0 116 67 188.5t183 72.5q117 0 182 -71.5t65 -189.5zM450 255q0 83 -38.5 140.5t-117.5 57.5t-117.5 -57.5t-38.5 -140.5q0 -84 38.5 -145t117.5 -61q53 0 89.5 32.5t51.5 77t15 96.5zM433 636
h-274v61h274v-61z" />
    <glyph glyph-name="Obreve" unicode="&#x14e;" horiz-adv-x="755" 
d="M704 367q0 -108 -33 -191t-108.5 -135.5t-185.5 -52.5q-162 0 -244 104t-82 270q0 163 84 269.5t243 106.5q164 0 245 -101.5t81 -269.5zM605 364q0 47 -7 88.5t-23.5 81t-42 67.5t-65.5 45t-90 17q-61 0 -106.5 -26t-71 -70t-37.5 -95t-12 -108q0 -58 12 -109.5t37 -96
t71 -70.5t107 -26t107 26t71.5 70.5t37.5 96t12 109.5zM528 904q-7 -59 -47 -91t-105 -32q-64 0 -107 32.5t-44 90.5h45q6 -33 37.5 -50.5t68.5 -17.5q86 0 109 68h43z" />
    <glyph glyph-name="obreve" unicode="&#x14f;" horiz-adv-x="587" 
d="M542 255q0 -115 -66.5 -190.5t-181.5 -75.5q-118 0 -183.5 74t-65.5 192q0 116 67 188.5t183 72.5q117 0 182 -71.5t65 -189.5zM450 255q0 83 -38.5 140.5t-117.5 57.5t-117.5 -57.5t-38.5 -140.5q0 -84 38.5 -145t117.5 -61q53 0 89.5 32.5t51.5 77t15 96.5zM447 714
q-7 -59 -47 -91t-105 -32q-64 0 -107 32.5t-44 90.5h45q6 -33 37.5 -50.5t68.5 -17.5q86 0 109 68h43z" />
    <glyph glyph-name="Ohungarumlaut" unicode="&#x150;" horiz-adv-x="755" 
d="M704 367q0 -108 -33 -191t-108.5 -135.5t-185.5 -52.5q-162 0 -244 104t-82 270q0 163 84 269.5t243 106.5q164 0 245 -101.5t81 -269.5zM605 364q0 47 -7 88.5t-23.5 81t-42 67.5t-65.5 45t-90 17q-61 0 -106.5 -26t-71 -70t-37.5 -95t-12 -108q0 -58 12 -109.5t37 -96
t71 -70.5t107 -26t107 26t71.5 70.5t37.5 96t12 109.5zM614 921l-142 -143h-66l100 143h108zM440 921l-142 -143h-66l99 143h109z" />
    <glyph glyph-name="ohungarumlaut" unicode="&#x151;" horiz-adv-x="587" 
d="M542 255q0 -115 -66.5 -190.5t-181.5 -75.5q-118 0 -183.5 74t-65.5 192q0 116 67 188.5t183 72.5q117 0 182 -71.5t65 -189.5zM450 255q0 83 -38.5 140.5t-117.5 57.5t-117.5 -57.5t-38.5 -140.5q0 -84 38.5 -145t117.5 -61q53 0 89.5 32.5t51.5 77t15 96.5zM533 736
l-142 -143h-66l100 143h108zM359 736l-142 -143h-66l99 143h109z" />
    <glyph glyph-name="OE" unicode="&#x152;" horiz-adv-x="984" 
d="M935 0h-315q-28 0 -92.5 -3.5t-98.5 -3.5q-184 0 -281 92t-97 275q0 178 95 274t273 96q31 0 94 -3.5t95 -3.5h314v-76h-320v-237h304v-76h-304v-258h333v-76zM510 76v571q-52 9 -87 9q-137 0 -206.5 -78.5t-69.5 -217.5q0 -138 68.5 -216t205.5 -78q41 0 89 10z" />
    <glyph glyph-name="oe" unicode="&#x153;" horiz-adv-x="909" 
d="M865 235h-352q0 -49 10.5 -87.5t42 -66.5t81.5 -28q48 0 82 29t41 77h89q-12 -83 -68.5 -126t-142.5 -43q-60 0 -109.5 28.5t-70.5 82.5q-56 -110 -186 -110q-114 0 -176 73.5t-62 189.5q0 113 64.5 188t172.5 75q129 0 190 -113q22 54 70 82t109 28q64 0 108 -21.5
t66.5 -62t31.5 -87t9 -108.5zM777 298q-1 68 -33.5 110.5t-98.5 42.5q-63 0 -95 -43.5t-35 -109.5h262zM425 248q0 38 -7 71.5t-22 64t-44.5 48t-69.5 17.5t-69.5 -18t-44.5 -48.5t-22 -64t-7 -71.5q0 -81 34.5 -136.5t110.5 -55.5q74 0 107.5 56.5t33.5 136.5z" />
    <glyph glyph-name="Racute" unicode="&#x154;" horiz-adv-x="674" 
d="M618 0h-106q-7 16 -11.5 33t-7.5 38.5t-4 33t-3 39t-3 34.5q-3 33 -5 49t-7.5 38t-14 32t-23 20.5t-36 14t-51.5 3.5h-154v-335h-94v723h258q38 0 71 -4.5t65.5 -17t55.5 -32t37 -51.5t14 -73q0 -131 -144 -171q65 -14 90.5 -50t32.5 -100q2 -16 4 -46.5t5 -57t7 -50.5
q9 -48 24 -70zM503 534q0 36 -14 60.5t-39.5 36t-52.5 16t-62 4.5h-143v-245h117q31 0 55.5 2t51.5 10t45 21.5t30 37.5t12 57zM471 921l-139 -145h-64l95 145h108z" />
    <glyph glyph-name="racute" unicode="&#x155;" horiz-adv-x="363" 
d="M351 423q-26 4 -43 4q-75 0 -106.5 -39.5t-31.5 -115.5v-272h-88v357q0 75 -3 148h86l4 -81q51 84 154 84q12 0 28 -2v-83zM346 736l-139 -145h-64l95 145h108z" />
    <glyph glyph-name="Rcommaaccent" unicode="&#x156;" horiz-adv-x="674" 
d="M618 0h-106q-7 16 -11.5 33t-7.5 38.5t-4 33t-3 39t-3 34.5q-3 33 -5 49t-7.5 38t-14 32t-23 20.5t-36 14t-51.5 3.5h-154v-335h-94v723h258q38 0 71 -4.5t65.5 -17t55.5 -32t37 -51.5t14 -73q0 -131 -144 -171q65 -14 90.5 -50t32.5 -100q2 -16 4 -46.5t5 -57t7 -50.5
q9 -48 24 -70zM503 534q0 36 -14 60.5t-39.5 36t-52.5 16t-62 4.5h-143v-245h117q31 0 55.5 2t51.5 10t45 21.5t30 37.5t12 57zM381 -33l-64 -167h-63l39 167h88z" />
    <glyph glyph-name="rcommaaccent" unicode="&#x157;" horiz-adv-x="363" 
d="M351 423q-26 4 -43 4q-75 0 -106.5 -39.5t-31.5 -115.5v-272h-88v357q0 75 -3 148h86l4 -81q51 84 154 84q12 0 28 -2v-83zM173 -33l-64 -167h-63l39 167h88z" />
    <glyph glyph-name="Rcaron" unicode="&#x158;" horiz-adv-x="674" 
d="M618 0h-106q-7 16 -11.5 33t-7.5 38.5t-4 33t-3 39t-3 34.5q-3 33 -5 49t-7.5 38t-14 32t-23 20.5t-36 14t-51.5 3.5h-154v-335h-94v723h258q38 0 71 -4.5t65.5 -17t55.5 -32t37 -51.5t14 -73q0 -131 -144 -171q65 -14 90.5 -50t32.5 -100q2 -16 4 -46.5t5 -57t7 -50.5
q9 -48 24 -70zM503 534q0 36 -14 60.5t-39.5 36t-52.5 16t-62 4.5h-143v-245h117q31 0 55.5 2t51.5 10t45 21.5t30 37.5t12 57zM485 921l-102 -145h-99l-103 145h64l90 -99l86 99h64z" />
    <glyph glyph-name="rcaron" unicode="&#x159;" horiz-adv-x="363" 
d="M351 423q-26 4 -43 4q-75 0 -106.5 -39.5t-31.5 -115.5v-272h-88v357q0 75 -3 148h86l4 -81q51 84 154 84q12 0 28 -2v-83zM360 736l-102 -145h-99l-103 145h64l90 -99l86 99h64z" />
    <glyph glyph-name="Sacute" unicode="&#x15a;" horiz-adv-x="635" 
d="M581 202q0 -55 -23.5 -97t-63 -66.5t-86 -36.5t-98.5 -12q-109 0 -179 49.5t-77 154.5h97q4 -66 49 -98.5t113 -32.5q69 0 120.5 32t51.5 96q0 51 -38 79.5t-105 49.5l-62 19q-37 12 -61.5 21t-54.5 25.5t-47.5 35.5t-30 48.5t-12.5 65.5q0 68 38.5 114.5t93.5 65.5
t122 19q101 0 169 -43.5t69 -139.5h-95q-11 112 -144 112q-64 0 -111 -30t-47 -90q0 -73 123 -114l82 -27q40 -13 62 -21.5t54 -26t49 -36t29.5 -48.5t12.5 -68zM466 921l-139 -145h-64l95 145h108z" />
    <glyph glyph-name="sacute" unicode="&#x15b;" horiz-adv-x="496" 
d="M449 146q0 -80 -60.5 -118.5t-144.5 -38.5q-88 0 -142.5 39t-54.5 125h88q6 -103 113 -103q45 0 79.5 22t34.5 64q0 36 -28.5 56t-80.5 32l-41 10q-69 17 -110.5 47.5t-41.5 91.5q0 50 30.5 83.5t72 47t89.5 13.5q81 0 131.5 -37t53.5 -116h-87q-1 44 -28 68.5t-72 24.5
q-40 0 -72 -19t-32 -56q0 -57 108 -84l40 -10q75 -19 115 -50.5t40 -91.5zM388 736l-139 -145h-64l95 145h108z" />
    <glyph glyph-name="Scircumflex" unicode="&#x15c;" horiz-adv-x="635" 
d="M581 202q0 -55 -23.5 -97t-63 -66.5t-86 -36.5t-98.5 -12q-109 0 -179 49.5t-77 154.5h97q4 -66 49 -98.5t113 -32.5q69 0 120.5 32t51.5 96q0 51 -38 79.5t-105 49.5l-62 19q-37 12 -61.5 21t-54.5 25.5t-47.5 35.5t-30 48.5t-12.5 65.5q0 68 38.5 114.5t93.5 65.5
t122 19q101 0 169 -43.5t69 -139.5h-95q-11 112 -144 112q-64 0 -111 -30t-47 -90q0 -73 123 -114l82 -27q40 -13 62 -21.5t54 -26t49 -36t29.5 -48.5t12.5 -68zM479 775h-64l-86 99l-88 -99h-64l105 146h94z" />
    <glyph glyph-name="scircumflex" unicode="&#x15d;" horiz-adv-x="496" 
d="M449 146q0 -80 -60.5 -118.5t-144.5 -38.5q-88 0 -142.5 39t-54.5 125h88q6 -103 113 -103q45 0 79.5 22t34.5 64q0 36 -28.5 56t-80.5 32l-41 10q-69 17 -110.5 47.5t-41.5 91.5q0 50 30.5 83.5t72 47t89.5 13.5q81 0 131.5 -37t53.5 -116h-87q-1 44 -28 68.5t-72 24.5
q-40 0 -72 -19t-32 -56q0 -57 108 -84l40 -10q75 -19 115 -50.5t40 -91.5zM402 591h-64l-86 99l-88 -99h-64l105 146h94z" />
    <glyph glyph-name="Scedilla" unicode="&#x15e;" horiz-adv-x="635" 
d="M416 -119q0 -39 -33 -56t-76 -17q-51 0 -108 23l8 33q51 -24 94 -24q50 0 50 37q0 38 -49 38q-17 0 -33 -4v20l23 60q-103 4 -167.5 53t-70.5 150h97q4 -66 49 -98.5t113 -32.5q69 0 120.5 32t51.5 96q0 51 -38 79.5t-105 49.5l-62 19q-37 12 -61.5 21t-54.5 25.5
t-47.5 35.5t-30 48.5t-12.5 65.5q0 68 38.5 114.5t93.5 65.5t122 19q101 0 169 -43.5t69 -139.5h-95q-11 112 -144 112q-64 0 -111 -30t-47 -90q0 -73 123 -114l82 -27q40 -13 62 -21.5t54 -26t49 -36t29.5 -48.5t12.5 -68q0 -53 -22 -94t-59.5 -66t-82 -37.5t-94.5 -14.5
l-14 -42h13q94 0 94 -67z" />
    <glyph glyph-name="scedilla" unicode="&#x15f;" horiz-adv-x="496" 
d="M352 -119q0 -39 -33 -56t-76 -17q-51 0 -108 23l8 33q51 -24 94 -24q50 0 50 37q0 38 -49 38q-17 0 -33 -4v20l22 59q-81 3 -130.5 42t-49.5 121h88q6 -103 113 -103q45 0 79.5 22t34.5 64q0 36 -28.5 56t-80.5 32l-41 10q-69 17 -110.5 47.5t-41.5 91.5q0 50 30.5 83.5
t72 47t89.5 13.5q81 0 131.5 -37t53.5 -116h-87q-1 44 -28 68.5t-72 24.5q-40 0 -72 -19t-32 -56q0 -57 108 -84l40 -10q75 -19 115 -50.5t40 -91.5q0 -77 -55.5 -115.5t-135.5 -41.5l-13 -41h13q94 0 94 -67z" />
    <glyph glyph-name="Scaron" unicode="&#x160;" horiz-adv-x="635" 
d="M581 202q0 -55 -23.5 -97t-63 -66.5t-86 -36.5t-98.5 -12q-109 0 -179 49.5t-77 154.5h97q4 -66 49 -98.5t113 -32.5q69 0 120.5 32t51.5 96q0 51 -38 79.5t-105 49.5l-62 19q-37 12 -61.5 21t-54.5 25.5t-47.5 35.5t-30 48.5t-12.5 65.5q0 68 38.5 114.5t93.5 65.5
t122 19q101 0 169 -43.5t69 -139.5h-95q-11 112 -144 112q-64 0 -111 -30t-47 -90q0 -73 123 -114l82 -27q40 -13 62 -21.5t54 -26t49 -36t29.5 -48.5t12.5 -68zM480 921l-102 -145h-99l-103 145h64l90 -99l86 99h64z" />
    <glyph glyph-name="scaron" unicode="&#x161;" horiz-adv-x="496" 
d="M449 146q0 -80 -60.5 -118.5t-144.5 -38.5q-88 0 -142.5 39t-54.5 125h88q6 -103 113 -103q45 0 79.5 22t34.5 64q0 36 -28.5 56t-80.5 32l-41 10q-69 17 -110.5 47.5t-41.5 91.5q0 50 30.5 83.5t72 47t89.5 13.5q81 0 131.5 -37t53.5 -116h-87q-1 44 -28 68.5t-72 24.5
q-40 0 -72 -19t-32 -56q0 -57 108 -84l40 -10q75 -19 115 -50.5t40 -91.5zM402 736l-102 -145h-99l-103 145h64l90 -99l86 99h64z" />
    <glyph glyph-name="uni0162" unicode="&#x162;" horiz-adv-x="568" 
d="M561 649h-231v-649h-93v649h-230v74h554v-74zM330 -33l-64 -167h-63l39 167h88z" />
    <glyph glyph-name="uni0163" unicode="&#x163;" horiz-adv-x="344" 
d="M318 1q-42 -6 -81 -6q-62 0 -92.5 27.5t-30.5 89.5v332h-99v61h99v98l88 37v-135h113v-61h-113v-297q0 -49 12.5 -66.5t56.5 -17.5q19 0 47 5v-67zM235 -33l-64 -167h-63l39 167h88z" />
    <glyph glyph-name="Tcaron" unicode="&#x164;" horiz-adv-x="568" 
d="M561 649h-231v-649h-93v649h-230v74h554v-74zM436 921l-102 -145h-99l-103 145h64l90 -99l86 99h64z" />
    <glyph glyph-name="tcaron" unicode="&#x165;" horiz-adv-x="344" 
d="M318 1q-42 -6 -81 -6q-62 0 -92.5 27.5t-30.5 89.5v332h-99v61h99v98l88 37v-135h113v-61h-113v-297q0 -49 12.5 -66.5t56.5 -17.5q19 0 47 5v-67zM467 723l-60 -225h-65l27 225h98z" />
    <glyph glyph-name="Tbar" unicode="&#x166;" horiz-adv-x="568" 
d="M482 367h-152v-367h-93v367h-152v61h152v221h-230v74h554v-74h-231v-221h152v-61z" />
    <glyph glyph-name="tbar" unicode="&#x167;" horiz-adv-x="344" 
d="M318 1q-42 -6 -81 -6q-62 0 -92.5 27.5t-30.5 89.5v163h-69v56h69v113h-99v61h99v98l88 37v-135h113v-61h-113v-113h83v-56h-83v-128q0 -48 12 -66t57 -18q9 0 24.5 2.5t22.5 2.5v-67z" />
    <glyph glyph-name="Utilde" unicode="&#x168;" horiz-adv-x="758" 
d="M669 276q0 -139 -75.5 -214t-214.5 -75q-290 0 -290 291v445h98v-432q0 -104 30 -151q50 -78 163 -78q59 0 106.5 26.5t69.5 77.5q18 42 18 127v430h95v-447zM534 901q-7 -39 -33 -67.5t-63 -28.5q-20 0 -59 12t-59 12q-36 0 -48 -30h-47q7 41 33.5 67.5t67.5 26.5
q20 0 57.5 -12t57.5 -12q33 0 45 32h48z" />
    <glyph glyph-name="utilde" unicode="&#x169;" horiz-adv-x="592" 
d="M513 0h-86l-4 80q-62 -86 -163 -86q-96 0 -138.5 49.5t-42.5 147.5v314h88v-280q0 -30 2 -51t8.5 -44t19 -37t34.5 -23t53 -9q74 0 106.5 49.5t32.5 127.5v267h88v-245q0 -173 2 -260zM450 716q-7 -39 -33 -67.5t-63 -28.5q-20 0 -59 12t-59 12q-36 0 -48 -30h-47
q7 41 33.5 67.5t67.5 26.5q20 0 57.5 -12t57.5 -12q33 0 45 32h48z" />
    <glyph glyph-name="Umacron" unicode="&#x16a;" horiz-adv-x="758" 
d="M669 276q0 -139 -75.5 -214t-214.5 -75q-290 0 -290 291v445h98v-432q0 -104 30 -151q50 -78 163 -78q59 0 106.5 26.5t69.5 77.5q18 42 18 127v430h95v-447zM516 811h-274v61h274v-61z" />
    <glyph glyph-name="umacron" unicode="&#x16b;" horiz-adv-x="592" 
d="M513 0h-86l-4 80q-62 -86 -163 -86q-96 0 -138.5 49.5t-42.5 147.5v314h88v-280q0 -30 2 -51t8.5 -44t19 -37t34.5 -23t53 -9q74 0 106.5 49.5t32.5 127.5v267h88v-245q0 -173 2 -260zM431 636h-274v61h274v-61z" />
    <glyph glyph-name="Ubreve" unicode="&#x16c;" horiz-adv-x="758" 
d="M669 276q0 -139 -75.5 -214t-214.5 -75q-290 0 -290 291v445h98v-432q0 -104 30 -151q50 -78 163 -78q59 0 106.5 26.5t69.5 77.5q18 42 18 127v430h95v-447zM530 904q-7 -59 -47 -91t-105 -32q-64 0 -107 32.5t-44 90.5h45q6 -33 37.5 -50.5t68.5 -17.5q86 0 109 68h43z
" />
    <glyph glyph-name="ubreve" unicode="&#x16d;" horiz-adv-x="592" 
d="M513 0h-86l-4 80q-62 -86 -163 -86q-96 0 -138.5 49.5t-42.5 147.5v314h88v-280q0 -30 2 -51t8.5 -44t19 -37t34.5 -23t53 -9q74 0 106.5 49.5t32.5 127.5v267h88v-245q0 -173 2 -260zM445 714q-7 -59 -47 -91t-105 -32q-64 0 -107 32.5t-44 90.5h45q6 -33 37.5 -50.5
t68.5 -17.5q86 0 109 68h43z" />
    <glyph glyph-name="Uring" unicode="&#x16e;" horiz-adv-x="758" 
d="M669 276q0 -139 -75.5 -214t-214.5 -75q-290 0 -290 291v445h98v-432q0 -104 30 -151q50 -78 163 -78q59 0 106.5 26.5t69.5 77.5q18 42 18 127v430h95v-447zM473 836q0 -40 -27 -66.5t-67 -26.5t-67 26.5t-27 66.5t27 66.5t67 26.5t67 -26.5t27 -66.5zM432 836
q0 25 -14.5 41t-38.5 16t-38.5 -16t-14.5 -41t14.5 -41t38.5 -16t38.5 16t14.5 41z" />
    <glyph glyph-name="uring" unicode="&#x16f;" horiz-adv-x="592" 
d="M513 0h-86l-4 80q-62 -86 -163 -86q-96 0 -138.5 49.5t-42.5 147.5v314h88v-280q0 -30 2 -51t8.5 -44t19 -37t34.5 -23t53 -9q74 0 106.5 49.5t32.5 127.5v267h88v-245q0 -173 2 -260zM388 666q0 -40 -27 -66.5t-67 -26.5t-67 26.5t-27 66.5t27 66.5t67 26.5t67 -26.5
t27 -66.5zM347 666q0 25 -14.5 41t-38.5 16t-38.5 -16t-14.5 -41t14.5 -41t38.5 -16t38.5 16t14.5 41z" />
    <glyph glyph-name="Uhungarumlaut" unicode="&#x170;" horiz-adv-x="758" 
d="M669 276q0 -139 -75.5 -214t-214.5 -75q-290 0 -290 291v445h98v-432q0 -104 30 -151q50 -78 163 -78q59 0 106.5 26.5t69.5 77.5q18 42 18 127v430h95v-447zM606 921l-142 -143h-66l100 143h108zM432 921l-142 -143h-66l99 143h109z" />
    <glyph glyph-name="uhungarumlaut" unicode="&#x171;" horiz-adv-x="592" 
d="M513 0h-86l-4 80q-62 -86 -163 -86q-96 0 -138.5 49.5t-42.5 147.5v314h88v-280q0 -30 2 -51t8.5 -44t19 -37t34.5 -23t53 -9q74 0 106.5 49.5t32.5 127.5v267h88v-245q0 -173 2 -260zM521 736l-142 -143h-66l100 143h108zM347 736l-142 -143h-66l99 143h109z" />
    <glyph glyph-name="Uogonek" unicode="&#x172;" horiz-adv-x="758" 
d="M669 276q0 -122 -58 -195t-168 -89q-49 -23 -70 -43t-21 -46q0 -23 17.5 -35.5t42.5 -12.5q19 0 42 10l6 -32q-40 -19 -79 -19q-37 0 -66 17.5t-29 52.5q0 60 87 103q-284 3 -284 291v445h98v-432q0 -104 30 -151q50 -78 163 -78q59 0 106.5 26.5t69.5 77.5q18 42 18 127
v430h95v-447z" />
    <glyph glyph-name="uogonek" unicode="&#x173;" horiz-adv-x="592" 
d="M513 0q-59 -27 -84 -48t-25 -49q0 -23 17.5 -35.5t42.5 -12.5q19 0 42 10l6 -32q-40 -19 -79 -19q-37 0 -66 17.5t-29 52.5q0 72 118 116h-29l-4 80q-62 -86 -163 -86q-96 0 -138.5 49.5t-42.5 147.5v314h88v-280q0 -30 2 -51t8.5 -44t19 -37t34.5 -23t53 -9
q74 0 106.5 49.5t32.5 127.5v267h88v-245q0 -173 2 -260z" />
    <glyph glyph-name="Wcircumflex" unicode="&#x174;" horiz-adv-x="1049" 
d="M1034 723l-192 -723h-119l-199 633l-194 -633h-122l-193 723h99l159 -640l196 640h114l201 -639l158 639h92zM675 775h-64l-86 99l-88 -99h-64l105 146h94z" />
    <glyph glyph-name="wcircumflex" unicode="&#x175;" horiz-adv-x="853" 
d="M837 505l-180 -505h-87l-141 418l-144 -418h-90l-179 505h98l130 -414l139 414h101l136 -409l129 409h88zM581 591h-64l-86 99l-88 -99h-64l105 146h94z" />
    <glyph glyph-name="Ycircumflex" unicode="&#x176;" horiz-adv-x="635" 
d="M644 723l-279 -424v-299h-94v303l-279 420h111l220 -344l217 344h104zM471 775h-64l-86 99l-88 -99h-64l105 146h94z" />
    <glyph glyph-name="ycircumflex" unicode="&#x177;" horiz-adv-x="529" 
d="M519 505l-286 -695h-88l83 191l-215 504h100l159 -413l158 413h89zM425 591h-64l-86 99l-88 -99h-64l105 146h94z" />
    <glyph glyph-name="Ydieresis" unicode="&#x178;" horiz-adv-x="635" 
d="M644 723l-279 -424v-299h-94v303l-279 420h111l220 -344l217 344h104zM462 811h-93v88h93v-88zM271 811h-93v88h93v-88z" />
    <glyph glyph-name="Zacute" unicode="&#x179;" horiz-adv-x="584" 
d="M563 0h-542v83l426 567h-399v73h503v-77l-429 -573h441v-73zM439 921l-139 -145h-64l95 145h108z" />
    <glyph glyph-name="zacute" unicode="&#x17a;" horiz-adv-x="461" 
d="M424 0h-387v71l289 368h-281v66h371v-73l-284 -366h292v-66zM361 736l-139 -145h-64l95 145h108z" />
    <glyph glyph-name="Zdotaccent" unicode="&#x17b;" horiz-adv-x="584" 
d="M563 0h-542v83l426 567h-399v73h503v-77l-429 -573h441v-73zM348 821h-93v88h93v-88z" />
    <glyph glyph-name="zdotaccent" unicode="&#x17c;" horiz-adv-x="461" 
d="M424 0h-387v71l289 368h-281v66h371v-73l-284 -366h292v-66zM270 636h-93v88h93v-88z" />
    <glyph glyph-name="Zcaron" unicode="&#x17d;" horiz-adv-x="584" 
d="M563 0h-542v83l426 567h-399v73h503v-77l-429 -573h441v-73zM453 921l-102 -145h-99l-103 145h64l90 -99l86 99h64z" />
    <glyph glyph-name="zcaron" unicode="&#x17e;" horiz-adv-x="461" 
d="M424 0h-387v71l289 368h-281v66h371v-73l-284 -366h292v-66zM375 736l-102 -145h-99l-103 145h64l90 -99l86 99h64z" />
    <glyph glyph-name="florin" unicode="&#x192;" 
d="M358 558l-19 -99h105l-11 -66h-106l-70 -378q-19 -101 -55 -145t-105 -44q-21 0 -57 6l13 73q13 -3 28 -3q34 0 52 22.5t28 75.5l73 393h-94l12 66h94l18 93q8 43 17 71.5t25.5 58t44 44t66.5 14.5q33 0 74 -9l-11 -72q-28 6 -42 6q-37 0 -53.5 -25.5t-26.5 -81.5z" />
    <glyph glyph-name="Scommaaccent" unicode="&#x218;" horiz-adv-x="635" 
d="M581 202q0 -55 -23.5 -97t-63 -66.5t-86 -36.5t-98.5 -12q-109 0 -179 49.5t-77 154.5h97q4 -66 49 -98.5t113 -32.5q69 0 120.5 32t51.5 96q0 51 -38 79.5t-105 49.5l-62 19q-37 12 -61.5 21t-54.5 25.5t-47.5 35.5t-30 48.5t-12.5 65.5q0 68 38.5 114.5t93.5 65.5
t122 19q101 0 169 -43.5t69 -139.5h-95q-11 112 -144 112q-64 0 -111 -30t-47 -90q0 -73 123 -114l82 -27q40 -13 62 -21.5t54 -26t49 -36t29.5 -48.5t12.5 -68zM358 -33l-64 -167h-63l39 167h88z" />
    <glyph glyph-name="scommaaccent" unicode="&#x219;" horiz-adv-x="496" 
d="M449 146q0 -80 -60.5 -118.5t-144.5 -38.5q-88 0 -142.5 39t-54.5 125h88q6 -103 113 -103q45 0 79.5 22t34.5 64q0 36 -28.5 56t-80.5 32l-41 10q-69 17 -110.5 47.5t-41.5 91.5q0 50 30.5 83.5t72 47t89.5 13.5q81 0 131.5 -37t53.5 -116h-87q-1 44 -28 68.5t-72 24.5
q-40 0 -72 -19t-32 -56q0 -57 108 -84l40 -10q75 -19 115 -50.5t40 -91.5zM296 -33l-64 -167h-63l39 167h88z" />
    <glyph glyph-name="uni021A" unicode="&#x21a;" horiz-adv-x="568" 
d="M561 649h-231v-649h-93v649h-230v74h554v-74zM330 -33l-64 -167h-63l39 167h88z" />
    <glyph glyph-name="uni021B" unicode="&#x21b;" horiz-adv-x="344" 
d="M318 1q-42 -6 -81 -6q-62 0 -92.5 27.5t-30.5 89.5v332h-99v61h99v98l88 37v-135h113v-61h-113v-297q0 -49 12.5 -66.5t56.5 -17.5q19 0 47 5v-67zM235 -33l-64 -167h-63l39 167h88z" />
    <glyph glyph-name="dotlessj" unicode="&#x237;" horiz-adv-x="252" 
d="M170 -63q0 -73 -30 -98t-105 -25q-28 0 -50 2v66q20 -3 38 -3q39 0 49 18.5t10 61.5v546h88v-568z" />
    <glyph glyph-name="circumflex" unicode="&#x2c6;" horiz-adv-x="300" 
d="M301 591h-64l-86 99l-88 -99h-64l105 146h94z" />
    <glyph glyph-name="caron" unicode="&#x2c7;" horiz-adv-x="300" 
d="M302 736l-102 -145h-99l-103 145h64l90 -99l86 99h64z" />
    <glyph glyph-name="uni02C9" unicode="&#x2c9;" horiz-adv-x="300" 
d="M287 811h-274v61h274v-61z" />
    <glyph glyph-name="breve" unicode="&#x2d8;" horiz-adv-x="301" 
d="M301 714q-7 -59 -47 -91t-105 -32q-64 0 -107 32.5t-44 90.5h45q6 -33 37.5 -50.5t68.5 -17.5q86 0 109 68h43z" />
    <glyph glyph-name="dotaccent" unicode="&#x2d9;" horiz-adv-x="301" 
d="M197 636h-93v88h93v-88z" />
    <glyph glyph-name="ring" unicode="&#x2da;" horiz-adv-x="300" 
d="M244 666q0 -40 -27 -66.5t-67 -26.5t-67 26.5t-27 66.5t27 66.5t67 26.5t67 -26.5t27 -66.5zM203 666q0 25 -14.5 41t-38.5 16t-38.5 -16t-14.5 -41t14.5 -41t38.5 -16t38.5 16t14.5 41z" />
    <glyph glyph-name="ogonek" unicode="&#x2db;" horiz-adv-x="301" 
d="M230 0q-59 -27 -84 -48t-25 -49q0 -23 17.5 -35.5t42.5 -12.5q19 0 42 10l6 -32q-40 -19 -79 -19q-37 0 -66 17.5t-29 52.5q0 72 118 116h57z" />
    <glyph glyph-name="tilde" unicode="&#x2dc;" horiz-adv-x="301" 
d="M305 716q-7 -39 -33 -67.5t-63 -28.5q-21 0 -59.5 12t-58.5 12q-36 0 -48 -30h-47q7 41 33.5 67.5t67.5 26.5q20 0 57.5 -12t57.5 -12q33 0 45 32h48z" />
    <glyph glyph-name="hungarumlaut" unicode="&#x2dd;" horiz-adv-x="300" 
d="M377 736l-142 -143h-66l100 143h108zM203 736l-142 -143h-66l99 143h109z" />
    <glyph glyph-name="uni0394" unicode="&#x394;" horiz-adv-x="683" 
d="M690 0h-693l294 723h100zM567 73l-225 569l-225 -569h450z" />
    <glyph glyph-name="uni03A9" unicode="&#x3a9;" horiz-adv-x="753" 
d="M701 0h-249v75q68 45 109.5 124t41.5 177q0 127 -57 207t-170 80q-109 0 -166.5 -81.5t-57.5 -205.5q0 -98 41.5 -177t108.5 -124v-75h-248v75h157q-72 46 -115 126.5t-43 183.5q0 153 87.5 253t235.5 100q153 0 239.5 -95.5t86.5 -257.5q0 -103 -43.5 -183.5
t-115.5 -126.5h158v-75z" />
    <glyph glyph-name="uni03BC" unicode="&#x3bc;" horiz-adv-x="596" 
d="M517 0h-89l-1 78q-17 -36 -52 -60t-83 -24q-83 0 -122 63v-247h-88v695h88v-280q0 -77 26.5 -121t94.5 -44q135 0 135 176v269h88v-338q0 -80 3 -167z" />
    <glyph glyph-name="pi" unicode="&#x3c0;" horiz-adv-x="659" 
d="M608 12q-41 -19 -79 -19q-49 0 -71.5 28t-22.5 85v327h-226v-433h-89v433h-77v72h561v-72h-81v-323q0 -48 40 -48q19 0 45 11v-61z" />
    <glyph glyph-name="Wgrave" unicode="&#x1e80;" horiz-adv-x="1049" 
d="M1034 723l-192 -723h-119l-199 633l-194 -633h-122l-193 723h99l159 -640l196 640h114l201 -639l158 639h92zM594 776h-63l-139 145h108z" />
    <glyph glyph-name="wgrave" unicode="&#x1e81;" horiz-adv-x="853" 
d="M837 505l-180 -505h-87l-141 418l-144 -418h-90l-179 505h98l130 -414l139 414h101l136 -409l129 409h88zM498 591h-63l-139 145h108z" />
    <glyph glyph-name="Wacute" unicode="&#x1e82;" horiz-adv-x="1049" 
d="M1034 723l-192 -723h-119l-199 633l-194 -633h-122l-193 723h99l159 -640l196 640h114l201 -639l158 639h92zM667 921l-139 -145h-64l95 145h108z" />
    <glyph glyph-name="wacute" unicode="&#x1e83;" horiz-adv-x="853" 
d="M837 505l-180 -505h-87l-141 418l-144 -418h-90l-179 505h98l130 -414l139 414h101l136 -409l129 409h88zM569 736l-139 -145h-64l95 145h108z" />
    <glyph glyph-name="Wdieresis" unicode="&#x1e84;" horiz-adv-x="1049" 
d="M1034 723l-192 -723h-119l-199 633l-194 -633h-122l-193 723h99l159 -640l196 640h114l201 -639l158 639h92zM666 811h-93v88h93v-88zM475 811h-93v88h93v-88z" />
    <glyph glyph-name="wdieresis" unicode="&#x1e85;" horiz-adv-x="853" 
d="M837 505l-180 -505h-87l-141 418l-144 -418h-90l-179 505h98l130 -414l139 414h101l136 -409l129 409h88zM571 636h-93v88h93v-88zM380 636h-93v88h93v-88z" />
    <glyph glyph-name="Ygrave" unicode="&#x1ef2;" horiz-adv-x="635" 
d="M644 723l-279 -424v-299h-94v303l-279 420h111l220 -344l217 344h104zM385 776h-63l-139 145h108z" />
    <glyph glyph-name="ygrave" unicode="&#x1ef3;" horiz-adv-x="529" 
d="M519 505l-286 -695h-88l83 191l-215 504h100l159 -413l158 413h89zM339 591h-63l-139 145h108z" />
    <glyph glyph-name="endash" unicode="&#x2013;" horiz-adv-x="512" 
d="M507 233h-502v59h502v-59z" />
    <glyph glyph-name="emdash" unicode="&#x2014;" horiz-adv-x="1013" 
d="M878 233h-743v59h743v-59z" />
    <glyph glyph-name="quoteleft" unicode="&#x2018;" horiz-adv-x="302" 
d="M226 723l-48 -212h-102l79 212h71z" />
    <glyph glyph-name="quoteright" unicode="&#x2019;" horiz-adv-x="302" 
d="M226 723l-79 -212h-71l49 212h101z" />
    <glyph glyph-name="quotesinglbase" unicode="&#x201a;" horiz-adv-x="308" 
d="M232 99l-85 -213h-71l53 213h103z" />
    <glyph glyph-name="quotedblleft" unicode="&#x201c;" horiz-adv-x="510" 
d="M434 723l-55 -212h-104l90 212h69zM236 723l-56 -212h-104l90 212h70z" />
    <glyph glyph-name="quotedblright" unicode="&#x201d;" horiz-adv-x="510" 
d="M434 723l-90 -212h-69l56 212h103zM236 723l-90 -212h-70l55 212h105z" />
    <glyph glyph-name="quotedblbase" unicode="&#x201e;" horiz-adv-x="506" 
d="M430 99l-84 -213h-71l52 213h103zM231 99l-84 -213h-71l53 213h102z" />
    <glyph glyph-name="dagger" unicode="&#x2020;" horiz-adv-x="590" 
d="M507 480h-174v-480h-76v480h-174v63h174v179h76v-179h174v-63z" />
    <glyph glyph-name="daggerdbl" unicode="&#x2021;" horiz-adv-x="590" 
d="M507 174h-172v-174h-79v174h-173v62h173v251h-173v62h173v173h79v-173h171v-62h-171v-251h172v-62z" />
    <glyph glyph-name="bullet" unicode="&#x2022;" horiz-adv-x="513" 
d="M438 362q0 -74 -53 -127.5t-128 -53.5t-128.5 53t-53.5 128q0 74 53.5 127t128.5 53q74 0 127.5 -53t53.5 -127z" />
    <glyph glyph-name="ellipsis" unicode="&#x2026;" horiz-adv-x="1011" 
d="M889 0h-101v99h101v-99zM556 0h-101v99h101v-99zM223 0h-101v99h101v-99z" />
    <glyph glyph-name="perthousand" unicode="&#x2030;" horiz-adv-x="1012" 
d="M981 156q0 -71 -38.5 -120t-107.5 -49q-67 0 -105 45.5t-38 113.5q0 75 36.5 122t109.5 47q70 0 106.5 -44t36.5 -115zM320 578q0 -71 -38 -119.5t-107 -48.5q-67 0 -105.5 45t-38.5 113q0 75 37 122.5t110 47.5q70 0 106 -44.5t36 -115.5zM587 753l-432 -779h-71
l433 779h70zM637 156q0 -70 -38 -119.5t-107 -49.5q-67 0 -105 45.5t-38 113.5q0 75 36.5 122t109.5 47q70 0 106 -44.5t36 -114.5zM910 159q0 98 -72 98q-40 0 -58 -31t-18 -75q0 -43 17 -74t56 -31q41 0 58 33.5t17 79.5zM249 581q0 42 -17 71t-55 29q-40 0 -58 -31.5
t-18 -75.5q0 -43 17.5 -74t56.5 -31q74 0 74 112zM566 159q0 98 -72 98q-40 0 -57.5 -31t-17.5 -75q0 -43 16.5 -74t56.5 -31q28 0 45.5 19t23 42.5t5.5 51.5z" />
    <glyph glyph-name="guilsinglleft" unicode="&#x2039;" horiz-adv-x="301" 
d="M241 64h-75l-106 197l106 192h74l-96 -197z" />
    <glyph glyph-name="guilsinglright" unicode="&#x203a;" horiz-adv-x="301" 
d="M241 256l-106 -192h-74l96 197l-97 192h75z" />
    <glyph glyph-name="fraction" unicode="&#x2044;" horiz-adv-x="179" 
d="M341 753l-432 -779h-71l434 779h69z" />
    <glyph glyph-name="zero.superior" unicode="&#x2070;" horiz-adv-x="369" 
d="M339 683q0 -97 -38 -159t-118 -62q-81 0 -117.5 62t-36.5 160q0 90 39 150.5t118 60.5q80 0 116.5 -60t36.5 -152zM273 677q0 167 -87 167q-91 0 -91 -167q0 -71 21 -117t66 -46q48 0 69.5 45.5t21.5 117.5z" />
    <glyph glyph-name="four.superior" unicode="&#x2074;" horiz-adv-x="369" 
d="M351 561h-67v-92h-63v92h-199v58l188 270h74v-278h67v-50zM222 611v210l-143 -210h143z" />
    <glyph glyph-name="five.superior" unicode="&#x2075;" horiz-adv-x="369" 
d="M340 609q0 -67 -41.5 -107t-109.5 -40q-62 0 -102 28.5t-41 89.5h67q1 -32 22 -49.5t54 -17.5q42 0 63.5 27t21.5 69q0 39 -20.5 64.5t-58.5 25.5q-63 0 -78 -57h-64l10 247h255v-52h-194l-7 -130q29 42 89 42q63 0 98.5 -39t35.5 -101z" />
    <glyph glyph-name="six.superior" unicode="&#x2076;" horiz-adv-x="369" 
d="M337 606q0 -62 -40.5 -103t-103.5 -41q-157 0 -157 208q0 99 37 162t122 63q62 0 97.5 -30.5t37.5 -79.5h-65q-9 60 -71 60q-92 0 -96 -156q33 56 106 56q61 0 97 -39t36 -100zM274 606q0 40 -20.5 65.5t-59.5 25.5q-42 0 -64.5 -26t-22.5 -67q0 -39 22.5 -64.5
t61.5 -25.5q40 0 61.5 25.5t21.5 66.5z" />
    <glyph glyph-name="seven.superior" unicode="&#x2077;" horiz-adv-x="369" 
d="M326 835l-165 -366h-73l174 366h-226v54h290v-54z" />
    <glyph glyph-name="eight.superior" unicode="&#x2078;" horiz-adv-x="369" 
d="M341 588q0 -60 -45.5 -93t-109.5 -33q-67 0 -112.5 30.5t-45.5 90.5q0 77 82 104q-73 25 -73 91q0 56 43.5 86.5t106.5 30.5q60 0 103.5 -29.5t43.5 -83.5q0 -67 -73 -94q35 -10 57.5 -36.5t22.5 -63.5zM271 779q0 33 -24 50.5t-60 17.5q-37 0 -62 -18t-25 -52t24 -50
t62 -16q36 0 60.5 17.5t24.5 50.5zM276 588q0 36 -26 55.5t-66 19.5q-39 0 -64.5 -20t-25.5 -55q0 -37 25 -57t64 -20q40 0 66.5 20t26.5 57z" />
    <glyph glyph-name="nine.superior" unicode="&#x2079;" horiz-adv-x="369" 
d="M335 696q0 -234 -158 -234q-62 0 -99 29.5t-41 84.5h65q6 -61 74 -61q54 0 75 44t23 124q-28 -58 -104 -58q-61 0 -99 37.5t-38 96.5q0 61 42 98.5t107 37.5q153 0 153 -199zM264 760q0 38 -21.5 61.5t-59.5 23.5q-40 0 -63 -23.5t-23 -61.5q0 -39 21 -62t60 -23
q40 0 63 23t23 62z" />
    <glyph glyph-name="zero.inferior" unicode="&#x2080;" horiz-adv-x="369" 
d="M339 50q0 -97 -38 -159t-118 -62q-81 0 -117.5 62t-36.5 160q0 90 39 150.5t118 60.5q80 0 116.5 -60t36.5 -152zM273 44q0 167 -87 167q-91 0 -91 -167q0 -71 21 -117t66 -46q48 0 69.5 45.5t21.5 117.5z" />
    <glyph glyph-name="one.inferior" unicode="&#x2081;" horiz-adv-x="369" 
d="M237 -164h-66v351q-44 -34 -96 -55v58q55 21 105 66h57v-420z" />
    <glyph glyph-name="two.inferior" unicode="&#x2082;" horiz-adv-x="369" 
d="M328 -164h-290v56l67 60q78 69 113.5 112t35.5 81q0 31 -18.5 48t-50.5 17q-72 0 -74 -76h-68q1 62 41 95.5t102 33.5q60 0 98.5 -30t38.5 -85q0 -51 -37.5 -100.5t-113.5 -114.5l-50 -42h206v-55z" />
    <glyph glyph-name="three.inferior" unicode="&#x2083;" horiz-adv-x="369" 
d="M336 -49q0 -59 -44.5 -90.5t-110.5 -31.5q-65 0 -106 31t-44 95h65q1 -36 25.5 -55.5t61.5 -19.5q39 0 63 19.5t24 56.5q0 36 -26 54t-66 18q-16 0 -29 -3v54q18 -2 29 -2q38 0 62 17t24 52q0 33 -22 49.5t-58 16.5q-75 0 -81 -71h-66q1 58 44.5 89.5t103.5 31.5t102 -29
t42 -86q0 -66 -73 -94q80 -23 80 -102z" />
    <glyph glyph-name="four.inferior" unicode="&#x2084;" horiz-adv-x="369" 
d="M351 -72h-67v-92h-63v92h-199v58l188 270h74v-278h67v-50zM222 -22v210l-143 -210h143z" />
    <glyph glyph-name="five.inferior" unicode="&#x2085;" horiz-adv-x="369" 
d="M340 -24q0 -67 -41.5 -107t-109.5 -40q-62 0 -102 28.5t-41 89.5h67q1 -32 22 -49.5t54 -17.5q42 0 63.5 27t21.5 69q0 39 -20.5 64.5t-58.5 25.5q-63 0 -78 -57h-64l10 247h255v-52h-194l-7 -130q29 42 89 42q63 0 98.5 -39t35.5 -101z" />
    <glyph glyph-name="six.inferior" unicode="&#x2086;" horiz-adv-x="369" 
d="M337 -27q0 -62 -40.5 -103t-103.5 -41q-157 0 -157 208q0 99 37 162t122 63q62 0 97.5 -30.5t37.5 -79.5h-65q-9 60 -71 60q-92 0 -96 -156q33 56 106 56q61 0 97 -39t36 -100zM274 -27q0 40 -20.5 65.5t-59.5 25.5q-42 0 -64.5 -26t-22.5 -67q0 -39 22.5 -64.5
t61.5 -25.5q40 0 61.5 25.5t21.5 66.5z" />
    <glyph glyph-name="seven.inferior" unicode="&#x2087;" horiz-adv-x="369" 
d="M326 202l-165 -366h-73l174 366h-226v54h290v-54z" />
    <glyph glyph-name="eight.inferior" unicode="&#x2088;" horiz-adv-x="369" 
d="M341 -45q0 -60 -45.5 -93t-109.5 -33q-67 0 -112.5 30.5t-45.5 90.5q0 77 82 104q-73 25 -73 91q0 56 43.5 86.5t106.5 30.5q60 0 103.5 -29.5t43.5 -83.5q0 -67 -73 -94q35 -10 57.5 -36.5t22.5 -63.5zM271 146q0 33 -24 50.5t-60 17.5q-37 0 -62 -18t-25 -52t24 -50
t62 -16q36 0 60.5 17.5t24.5 50.5zM276 -45q0 36 -26 55.5t-66 19.5q-39 0 -64.5 -20t-25.5 -55q0 -37 25 -57t64 -20q40 0 66.5 20t26.5 57z" />
    <glyph glyph-name="nine.inferior" unicode="&#x2089;" horiz-adv-x="369" 
d="M335 63q0 -234 -158 -234q-62 0 -99 29.5t-41 84.5h65q6 -61 74 -61q54 0 75 44t23 124q-28 -58 -104 -58q-61 0 -99 37.5t-38 96.5q0 61 42 98.5t107 37.5q153 0 153 -199zM264 127q0 38 -21.5 61.5t-59.5 23.5q-40 0 -63 -23.5t-23 -61.5q0 -39 21 -62t60 -23
q40 0 63 23t23 62z" />
    <glyph glyph-name="Euro" unicode="&#x20ac;" 
d="M557 690l-21 -79q-48 52 -143 52q-83 0 -126.5 -51.5t-53.5 -137.5h282l-16 -62h-268q-1 -9 -1 -33q0 -27 1 -44h245l-16 -62h-228q5 -103 48.5 -156t133.5 -53q89 0 142 50v-89q-57 -36 -146 -36q-134 0 -196 72.5t-74 211.5h-90l16 62h71q-1 17 -1 44q0 21 1 33h-86
l16 62h72q42 264 272 264q91 0 166 -48z" />
    <glyph glyph-name="afii61289" unicode="&#x2113;" horiz-adv-x="494" 
d="M427 584q0 -154 -213 -346v-89q0 -91 79 -91q55 0 104 57l45 -43q-66 -83 -161 -83q-145 0 -145 165v17l-51 -44l-38 50l89 78v281q0 98 41.5 148.5t111.5 50.5q64 0 101 -40.5t37 -110.5zM214 553v-228q142 141 142 262q0 41 -17.5 63.5t-48.5 22.5q-34 0 -55 -29
t-21 -91z" />
    <glyph glyph-name="trademark" unicode="&#x2122;" horiz-adv-x="954" 
d="M824 361h-59v309l-114 -309h-46l-116 309v-309h-58v361h91l107 -281l108 281h87v-361zM391 676h-126v-315h-61v315h-129v46h316v-46z" />
    <glyph glyph-name="Omega" unicode="&#x2126;" horiz-adv-x="753" 
d="M701 0h-249v75q68 45 109.5 124t41.5 177q0 127 -57 207t-170 80q-109 0 -166.5 -81.5t-57.5 -205.5q0 -98 41.5 -177t108.5 -124v-75h-248v75h157q-72 46 -115 126.5t-43 183.5q0 153 87.5 253t235.5 100q153 0 239.5 -95.5t86.5 -257.5q0 -103 -43.5 -183.5
t-115.5 -126.5h158v-75z" />
    <glyph glyph-name="estimated" unicode="&#x212e;" horiz-adv-x="602" 
d="M561 259h-404v-181q59 -59 145 -59q63 0 109 28.5t84 91.5l35 -21q-46 -73 -98 -104t-130 -31q-115 0 -186.5 79t-71.5 197q0 119 71 197.5t187 78.5q115 0 187 -77t72 -199zM157 295h291v145q-63 60 -147 60t-144 -60v-145z" />
    <glyph glyph-name="onethird" unicode="&#x2153;" horiz-adv-x="915" 
d="M693 753l-431 -779h-71l433 779h69zM882 116q0 -59 -44.5 -90.5t-110.5 -31.5q-65 0 -106 31t-44 95h65q1 -36 25.5 -55.5t61.5 -19.5q39 0 63 19.5t24 56.5q0 36 -26 54t-66 18q-16 0 -29 -3v54q18 -2 29 -2q38 0 62 17t24 52q0 33 -22 49.5t-58 16.5q-75 0 -81 -71h-66
q1 58 44.5 89.5t103.5 31.5t102 -29t42 -86q0 -66 -73 -94q80 -23 80 -102zM242 303h-66v351q-44 -34 -96 -55v58q55 21 105 66h57v-420z" />
    <glyph glyph-name="twothirds" unicode="&#x2154;" horiz-adv-x="915" 
d="M728 753l-431 -779h-71l433 779h69zM338 303h-290v56l67 60q78 69 113.5 112t35.5 81q0 31 -18.5 48t-50.5 17q-72 0 -74 -76h-68q1 62 41 95.5t102 33.5q60 0 98.5 -30t38.5 -85q0 -51 -37.5 -100.5t-113.5 -114.5l-50 -42h206v-55zM882 116q0 -59 -44.5 -90.5
t-110.5 -31.5q-65 0 -106 31t-44 95h65q1 -36 25.5 -55.5t61.5 -19.5q39 0 63 19.5t24 56.5q0 36 -26 54t-66 18q-16 0 -29 -3v54q18 -2 29 -2q38 0 62 17t24 52q0 33 -22 49.5t-58 16.5q-75 0 -81 -71h-66q1 58 44.5 89.5t103.5 31.5t102 -29t42 -86q0 -66 -73 -94
q80 -23 80 -102z" />
    <glyph glyph-name="oneeighth" unicode="&#x215b;" horiz-adv-x="915" 
d="M693 753l-431 -779h-71l433 779h69zM882 119q0 -60 -45.5 -93t-109.5 -33q-67 0 -112.5 30.5t-45.5 90.5q0 77 82 104q-73 25 -73 91q0 56 43.5 86.5t106.5 30.5q60 0 103.5 -29.5t43.5 -83.5q0 -67 -73 -94q35 -10 57.5 -36.5t22.5 -63.5zM812 310q0 33 -24 50.5
t-60 17.5q-37 0 -62 -18t-25 -52t24 -50t62 -16q36 0 60.5 17.5t24.5 50.5zM817 119q0 36 -26 55.5t-66 19.5q-39 0 -64.5 -20t-25.5 -55q0 -37 25 -57t64 -20q40 0 66.5 20t26.5 57zM242 303h-66v351q-44 -34 -96 -55v58q55 21 105 66h57v-420z" />
    <glyph glyph-name="threeeighths" unicode="&#x215c;" horiz-adv-x="915" 
d="M712 753l-431 -779h-71l433 779h69zM334 419q0 -59 -44.5 -90.5t-110.5 -31.5q-65 0 -106 31t-44 95h65q1 -36 25.5 -55.5t61.5 -19.5q39 0 63 19.5t24 56.5q0 36 -26 54t-66 18q-16 0 -29 -3v54q18 -2 29 -2q38 0 62 17t24 52q0 33 -22 49.5t-58 16.5q-75 0 -81 -71h-66
q1 58 44.5 89.5t103.5 31.5t102 -29t42 -86q0 -66 -73 -94q80 -23 80 -102zM882 119q0 -60 -45.5 -93t-109.5 -33q-67 0 -112.5 30.5t-45.5 90.5q0 77 82 104q-73 25 -73 91q0 56 43.5 86.5t106.5 30.5q60 0 103.5 -29.5t43.5 -83.5q0 -67 -73 -94q35 -10 57.5 -36.5
t22.5 -63.5zM812 310q0 33 -24 50.5t-60 17.5q-37 0 -62 -18t-25 -52t24 -50t62 -16q36 0 60.5 17.5t24.5 50.5zM817 119q0 36 -26 55.5t-66 19.5q-39 0 -64.5 -20t-25.5 -55q0 -37 25 -57t64 -20q40 0 66.5 20t26.5 57z" />
    <glyph glyph-name="fiveeighths" unicode="&#x215d;" horiz-adv-x="915" 
d="M712 753l-431 -779h-71l433 779h69zM345 443q0 -67 -41.5 -107t-109.5 -40q-62 0 -102 28.5t-41 89.5h67q1 -32 22 -49.5t54 -17.5q42 0 63.5 27t21.5 69q0 39 -20.5 64.5t-58.5 25.5q-63 0 -78 -57h-64l10 247h255v-52h-194l-7 -130q29 42 89 42q63 0 98.5 -39
t35.5 -101zM882 119q0 -60 -45.5 -93t-109.5 -33q-67 0 -112.5 30.5t-45.5 90.5q0 77 82 104q-73 25 -73 91q0 56 43.5 86.5t106.5 30.5q60 0 103.5 -29.5t43.5 -83.5q0 -67 -73 -94q35 -10 57.5 -36.5t22.5 -63.5zM812 310q0 33 -24 50.5t-60 17.5q-37 0 -62 -18t-25 -52
t24 -50t62 -16q36 0 60.5 17.5t24.5 50.5zM817 119q0 36 -26 55.5t-66 19.5q-39 0 -64.5 -20t-25.5 -55q0 -37 25 -57t64 -20q40 0 66.5 20t26.5 57z" />
    <glyph glyph-name="seveneighths" unicode="&#x215e;" horiz-adv-x="915" 
d="M692 753l-431 -779h-71l433 779h69zM373 669l-165 -366h-73l174 366h-226v54h290v-54zM882 119q0 -60 -45.5 -93t-109.5 -33q-67 0 -112.5 30.5t-45.5 90.5q0 77 82 104q-73 25 -73 91q0 56 43.5 86.5t106.5 30.5q60 0 103.5 -29.5t43.5 -83.5q0 -67 -73 -94
q35 -10 57.5 -36.5t22.5 -63.5zM812 310q0 33 -24 50.5t-60 17.5q-37 0 -62 -18t-25 -52t24 -50t62 -16q36 0 60.5 17.5t24.5 50.5zM817 119q0 36 -26 55.5t-66 19.5q-39 0 -64.5 -20t-25.5 -55q0 -37 25 -57t64 -20q40 0 66.5 20t26.5 57z" />
    <glyph glyph-name="partialdiff" unicode="&#x2202;" horiz-adv-x="557" 
d="M508 361q0 -180 -74 -277t-191 -97q-98 0 -151 61.5t-53 150.5q0 104 61.5 170t157.5 66q103 0 163 -78v7q0 121 -49 209.5t-133 88.5q-66 0 -138 -44l-29 64q85 53 174 53q83 0 144 -56t89.5 -139t28.5 -179zM248 59q63 0 109 54.5t59 163.5q-24 39 -61 63t-81 24
q-61 0 -104 -46t-43 -119q0 -61 32.5 -100.5t88.5 -39.5z" />
    <glyph glyph-name="Delta" unicode="&#x2206;" horiz-adv-x="683" 
d="M690 0h-693l294 723h100zM567 73l-225 569l-225 -569h450z" />
    <glyph glyph-name="product" unicode="&#x220f;" horiz-adv-x="747" 
d="M662 -205h-89v914h-399v-914h-89v988h577v-988z" />
    <glyph glyph-name="summation" unicode="&#x2211;" horiz-adv-x="633" 
d="M596 -205h-555v69l309 426l-296 423v70h531v-74h-424l294 -418l-310 -422h451v-74z" />
    <glyph glyph-name="minus" unicode="&#x2212;" horiz-adv-x="673" 
d="M591 213h-509v71h509v-71z" />
    <glyph glyph-name="uni2215" unicode="&#x2215;" horiz-adv-x="179" 
d="M341 753l-432 -779h-71l434 779h69z" />
    <glyph glyph-name="uni2219" unicode="&#x2219;" horiz-adv-x="290" 
d="M196 269h-101v99h101v-99z" />
    <glyph glyph-name="radical" unicode="&#x221a;" horiz-adv-x="610" 
d="M608 783l-259 -988h-93l-148 364l-55 -23l-24 53l131 55l137 -346l223 885h88z" />
    <glyph glyph-name="infinity" unicode="&#x221e;" horiz-adv-x="784" 
d="M574 96q-45 0 -84.5 24.5t-97.5 83.5q-52 -53 -96 -80.5t-92 -27.5q-67 0 -110 44t-43 112q0 64 45.5 110t114.5 46q45 0 85.5 -25.5t95.5 -83.5q53 53 97 81t93 28q66 0 109 -44.5t43 -111.5q0 -65 -45 -110.5t-115 -45.5zM572 161q38 0 63.5 26t25.5 64q0 40 -23.5 65
t-60.5 25q-34 0 -67 -23t-73 -66q48 -50 77 -70.5t58 -20.5zM209 161q55 0 138 90q-50 51 -78 70.5t-57 19.5q-37 0 -62 -26t-25 -64q0 -40 23.5 -65t60.5 -25z" />
    <glyph glyph-name="integral" unicode="&#x222b;" horiz-adv-x="485" 
d="M288 561v-543q0 -112 -37 -165.5t-113 -53.5q-37 0 -57 8l9 64q15 -5 32 -5q42 0 58.5 35.5t16.5 120.5v542q0 113 37 166t113 53q40 0 57 -7l-9 -64q-15 5 -32 5q-42 0 -58.5 -35.5t-16.5 -120.5z" />
    <glyph glyph-name="approxequal" unicode="&#x2248;" horiz-adv-x="673" 
d="M601 416q-6 -63 -38 -106t-90 -43q-53 0 -141 35q-92 37 -133 37q-31 0 -51 -22t-25 -54h-52q8 63 39 105.5t90 42.5q47 0 140 -35q95 -35 133 -35q63 0 77 75h51zM601 234q-6 -62 -38 -105t-90 -43q-48 0 -141 35q-97 37 -133 37q-31 0 -51 -22t-25 -54h-52
q8 63 39 105.5t90 42.5q47 0 140 -35q95 -35 133 -35q63 0 77 74h51z" />
    <glyph glyph-name="notequal" unicode="&#x2260;" horiz-adv-x="673" 
d="M591 113h-288l-77 -145l-62 32l58 113h-140v73h178l65 124h-243v73h282l78 147l63 -32l-61 -115h147v-73h-184l-66 -124h250v-73z" />
    <glyph glyph-name="lessequal" unicode="&#x2264;" horiz-adv-x="673" 
d="M591 110l-509 186v76l509 184v-77l-406 -144l406 -147v-78zM591 0h-509v73h509v-73z" />
    <glyph glyph-name="greaterequal" unicode="&#x2265;" horiz-adv-x="673" 
d="M591 296l-509 -186v78l406 147l-406 144v77l509 -184v-76zM591 0h-509v73h509v-73z" />
    <glyph glyph-name="lozenge" unicode="&#x25ca;" horiz-adv-x="563" 
d="M523 362l-200 -392h-84l-199 392l200 391h84zM431 362l-150 307l-148 -307l149 -308z" />
    <glyph glyph-name="f_i" unicode="&#xf001;" horiz-adv-x="584" 
d="M326 662q-26 2 -39 2q-41 0 -61.5 -14t-20.5 -53v-92h113v-61h-113v-444h-88v444h-101v61h101v48q0 43 4.5 71t17.5 54t41.5 38.5t72.5 12.5q35 0 73 -3v-64zM512 634h-98v89h98v-89zM507 0h-88v505h88v-505z" />
    <glyph glyph-name="f_l" unicode="&#xf002;" horiz-adv-x="589" 
d="M326 662q-26 2 -39 2q-41 0 -61.5 -14t-20.5 -53v-92h113v-61h-113v-444h-88v444h-101v61h101v48q0 43 4.5 71t17.5 54t41.5 38.5t72.5 12.5q35 0 73 -3v-64zM507 0h-88v723h88v-723z" />
    <glyph glyph-name="uniF8FF" unicode="&#xf8ff;" horiz-adv-x="512" 
d="M278 117h-56v67h56v-67zM271 234h-48v17q0 52 12.5 79.5t46.5 60.5q31 30 40.5 48.5t9.5 40.5q0 35 -22 57t-54 22q-71 0 -82 -95l-50 8q7 69 43 103t92 34q54 0 89 -34.5t35 -90.5q0 -36 -13 -64t-50 -62q-31 -28 -40 -47t-9 -53v-24zM50 50h412v617h-412v-617zM0 718
h512v-718h-512v718z" />
    <glyph glyph-name="grave.cap" horiz-adv-x="300" 
d="M216 776h-63l-139 145h108z" />
    <glyph glyph-name="acute.cap" horiz-adv-x="301" 
d="M287 921l-139 -145h-64l95 145h108z" />
    <glyph glyph-name="circumflex.cap" horiz-adv-x="300" 
d="M301 775h-64l-86 99l-88 -99h-64l105 146h94z" />
    <glyph glyph-name="caron.cap" horiz-adv-x="300" 
d="M302 921l-102 -145h-99l-103 145h64l90 -99l86 99h64z" />
    <glyph glyph-name="caron.alt" horiz-adv-x="248" 
d="M214 723l-60 -225h-65l27 225h98z" />
    <glyph glyph-name="tilde.cap" horiz-adv-x="301" 
d="M305 901q-7 -39 -33 -67.5t-63 -28.5q-21 0 -59.5 12t-58.5 12q-36 0 -48 -30h-47q7 41 33.5 67.5t67.5 26.5q20 0 57.5 -12t57.5 -12q33 0 45 32h48z" />
    <glyph glyph-name="dieresis.cap" horiz-adv-x="300" 
d="M292 811h-93v88h93v-88zM101 811h-93v88h93v-88z" />
    <glyph glyph-name="macron.cap" horiz-adv-x="300" 
d="M287 811h-274v61h274v-61z" />
    <glyph glyph-name="breve.cap" horiz-adv-x="301" 
d="M301 904q-7 -59 -47 -91t-105 -32q-64 0 -107 32.5t-44 90.5h45q6 -33 37.5 -50.5t68.5 -17.5q86 0 109 68h43z" />
    <glyph glyph-name="ring.cap" horiz-adv-x="300" 
d="M244 836q0 -40 -27 -66.5t-67 -26.5t-67 26.5t-27 66.5t27 66.5t67 26.5t67 -26.5t27 -66.5zM203 836q0 25 -14.5 41t-38.5 16t-38.5 -16t-14.5 -41t14.5 -41t38.5 -16t38.5 16t14.5 41z" />
    <glyph glyph-name="hungarumlaut.cap" horiz-adv-x="300" 
d="M377 921l-142 -143h-66l100 143h108zM203 921l-142 -143h-66l99 143h109z" />
    <glyph glyph-name="dotaccent.cap" horiz-adv-x="301" 
d="M197 821h-93v88h93v-88z" />
    <glyph glyph-name="commaaccent" horiz-adv-x="248" 
d="M171 -33l-64 -167h-63l39 167h88z" />
    <glyph glyph-name="commaaccent.alt" horiz-adv-x="602" 
d="M244 591l60 145h63l-35 -145h-88z" />
    <glyph glyph-name="exclam.sc" horiz-adv-x="262" 
d="M180 546l-15 -401h-68l-14 401h97zM178 0h-95v96h95v-96z" />
    <glyph glyph-name="dollar.sc" horiz-adv-x="487" 
d="M267 -73h-45v66q-178 8 -182 158h83q2 -45 24.5 -70t74.5 -29v189l-4 1q-39 10 -65 20t-52.5 27t-40 43t-13.5 62q0 65 47 103.5t128 43.5v67h45v-67q163 -9 167 -138h-81q-4 70 -86 80v-182l4 -1q44 -12 70 -22t53.5 -27.5t40 -43t12.5 -61.5q0 -70 -47.5 -109
t-132.5 -44v-66zM366 142q0 34 -24 53t-75 34v-177q47 5 73 28t26 62zM128 399q0 -33 23 -53t71 -34v171q-94 -8 -94 -84z" />
    <glyph glyph-name="percent.sc" horiz-adv-x="746" 
d="M576 568l-350 -587h-65l351 587h64zM293 408q0 -63 -33.5 -105t-98.5 -42t-98.5 42t-33.5 105t33.5 106t98.5 43q66 0 99 -42t33 -107zM228 409q0 42 -15.5 70.5t-49.5 28.5q-69 0 -69 -100q0 -43 16.5 -71t50.5 -28q67 0 67 100zM716 142q0 -64 -33.5 -105.5
t-98.5 -41.5t-98.5 41.5t-33.5 105.5q0 63 34 105.5t99 42.5q66 0 98.5 -41.5t32.5 -106.5zM652 143q0 98 -66 98q-69 0 -69 -100q0 -43 16.5 -70.5t51.5 -27.5q67 0 67 100z" />
    <glyph glyph-name="ampersand.sc" horiz-adv-x="600" 
d="M583 261h-105v-261h-199q-116 0 -177 36.5t-61 120.5q0 112 134 138q-108 22 -108 121q0 70 58.5 105.5t136.5 35.5q57 0 112 -11v-63q-47 11 -91 11q-54 0 -91.5 -20t-37.5 -65q0 -88 151 -88h92v116h81v-116h105v-60zM397 63v198h-93q-88 0 -132 -23t-44 -78
q0 -40 25 -62t61 -28.5t94 -6.5h89z" />
    <glyph glyph-name="zero.sc" horiz-adv-x="492" 
d="M448 276q0 -51 -10 -98.5t-31.5 -91.5t-62.5 -70.5t-97 -26.5q-57 0 -98.5 26t-63.5 70.5t-31.5 91.5t-9.5 99t9.5 98t31.5 89t63.5 68.5t98.5 25.5q56 0 97 -25.5t62.5 -68.5t31.5 -89.5t10 -97.5zM362 276q0 95 -27 157t-87 62q-116 0 -116 -219q0 -225 116 -225
q60 0 87 63.5t27 161.5z" />
    <glyph glyph-name="one.sc" horiz-adv-x="492" 
d="M311 0h-84v460q-46 -37 -127 -70v70q75 29 138 86h73v-546z" />
    <glyph glyph-name="two.sc" horiz-adv-x="492" 
d="M431 0h-382v67l144 128q80 71 113 116t33 94q0 43 -25 66.5t-71 23.5t-73.5 -27.5t-27.5 -75.5h-86q1 79 55 122t135 43q79 0 129.5 -39.5t50.5 -110.5q0 -61 -39 -115.5t-122 -126.5l-114 -100h280v-65z" />
    <glyph glyph-name="three.sc" horiz-adv-x="492" 
d="M447 149q0 -78 -60 -119t-145 -41q-87 0 -141 40t-61 120h88q3 -46 35.5 -72t78.5 -26q55 0 86.5 28t31.5 75q0 48 -35 73.5t-88 25.5q-24 0 -42 -2v64q18 -2 38 -2q52 0 84.5 23t32.5 68q0 42 -29 66.5t-77 24.5q-45 0 -75 -23.5t-31 -68.5h-89q1 67 56 110
q56 44 140 44q79 0 134.5 -37.5t55.5 -110.5q0 -45 -27 -78t-75 -46q51 -11 82.5 -45t31.5 -91z" />
    <glyph glyph-name="four.sc" horiz-adv-x="492" 
d="M464 120h-88v-120h-81v120h-263v72l245 354h99v-366h88v-60zM297 179v289l-197 -289h197z" />
    <glyph glyph-name="five.sc" horiz-adv-x="492" 
d="M445 182q0 -88 -55 -140.5t-144 -52.5q-82 0 -134 36.5t-53 112.5h88q1 -43 27.5 -65t70.5 -22q54 0 83.5 36t29.5 93q0 54 -26.5 88t-79.5 34q-37 0 -64.5 -19.5t-35.5 -55.5h-84l13 319h336v-63h-258l-10 -172q42 53 122 53q83 0 128.5 -51t45.5 -131z" />
    <glyph glyph-name="six.sc" horiz-adv-x="492" 
d="M446 177q0 -80 -54.5 -134t-137.5 -54q-150 0 -194 142q-14 46 -14 125q0 57 9 105.5t31 95t66 73.5t106 27q76 0 124.5 -36.5t49.5 -108.5h-87q-5 86 -89 86q-121 0 -127 -216q42 75 141 75q80 0 128 -50.5t48 -129.5zM362 175q0 53 -27.5 87.5t-79.5 34.5
q-53 0 -85 -36t-32 -88q0 -51 31.5 -86.5t84.5 -35.5q49 0 78.5 35.5t29.5 88.5z" />
    <glyph glyph-name="seven.sc" horiz-adv-x="492" 
d="M435 481l-217 -481h-96l229 481h-299v65h383v-65z" />
    <glyph glyph-name="eight.sc" horiz-adv-x="492" 
d="M449 148q0 -79 -58.5 -119t-141.5 -40q-54 0 -98.5 14.5t-76.5 51t-32 90.5q0 52 30.5 88t83.5 51q-42 11 -71.5 42.5t-29.5 80.5q0 74 56.5 112t135.5 38q78 0 134.5 -37.5t56.5 -110.5q0 -46 -27 -78.5t-74 -46.5q48 -12 80 -47t32 -89zM353 403q0 46 -29.5 71
t-76.5 25t-77.5 -25t-30.5 -70q0 -43 30.5 -66.5t76.5 -23.5q45 0 76 24t31 65zM365 152q0 49 -35 76t-85 27t-84 -27t-34 -76q0 -47 33.5 -74.5t84.5 -27.5q53 0 86.5 27t33.5 75z" />
    <glyph glyph-name="nine.sc" horiz-adv-x="492" 
d="M444 292q0 -303 -212 -303q-83 0 -134 38.5t-52 107.5h89q2 -40 27.5 -62.5t69.5 -22.5q31 0 54.5 13t37 33.5t22 51t11.5 58.5t4 63q-38 -71 -138 -71q-82 0 -130.5 49.5t-48.5 127.5t55.5 130t139.5 52q139 0 185 -119q20 -55 20 -146zM353 377q0 48 -29 83.5t-84 35.5
q-53 0 -84 -34.5t-31 -84.5t29 -84.5t83 -34.5q52 0 84 34t32 85z" />
    <glyph glyph-name="question.sc" horiz-adv-x="436" 
d="M367 422q0 -43 -26 -80.5t-92 -90.5q-23 -19 -30 -31.5t-7 -37.5v-37h-76v43q0 35 12 55t47 51q48 40 66 66t18 56q0 38 -32 59t-82 21q-43 0 -86 -12v63q57 10 98 10q84 0 137 -31.5t53 -103.5zM222 0h-94v96h94v-96z" />
    <glyph glyph-name="a.sc" horiz-adv-x="587" 
d="M484 0l-59 140h-272l-57 -140h-90l238 546h92l245 -546h-97zM288 469l-109 -265h219z" />
    <glyph glyph-name="b.sc" horiz-adv-x="557" 
d="M508 154q0 -154 -214 -154h-209v546h212q83 0 135.5 -34.5t52.5 -103.5q0 -94 -96 -122q119 -26 119 -132zM418 159q0 53 -33 73t-96 20h-117v-189h106q77 0 108.5 22t31.5 74zM398 401q0 83 -117 83h-109v-172h101q125 0 125 89z" />
    <glyph glyph-name="c.sc" horiz-adv-x="564" 
d="M523 146q-12 -77 -72 -117t-151 -40q-129 0 -191 78t-62 203q0 123 66 205t195 82q85 0 145 -38t66 -117h-92q-15 90 -119 90q-85 0 -128 -63.5t-43 -156.5q0 -97 41.5 -157t124.5 -60q105 0 127 91h93z" />
    <glyph glyph-name="d.sc" horiz-adv-x="619" 
d="M573 276q0 -146 -87 -215q-78 -61 -229 -61h-172v546h185q123 0 200 -48q103 -68 103 -222zM483 275q0 117 -64 166q-50 40 -150 40h-96v-416h83q116 0 166 45q61 54 61 165z" />
    <glyph glyph-name="e.sc" horiz-adv-x="509" 
d="M466 0h-381v546h371v-64h-283v-168h270v-64h-270v-185h293v-65z" />
    <glyph glyph-name="f.sc" horiz-adv-x="473" 
d="M443 481h-270v-168h257v-64h-257v-249h-88v546h358v-65z" />
    <glyph glyph-name="g.sc" horiz-adv-x="598" 
d="M534 23q-94 -32 -211 -32q-138 0 -207 77t-69 206q0 125 71 204t201 79q87 0 144 -39t66 -118h-88q-16 92 -127 92q-88 0 -132.5 -62.5t-44.5 -154.5q0 -97 45.5 -158t145.5 -61q67 0 121 17v152h-135v62h220v-264z" />
    <glyph glyph-name="h.sc" horiz-adv-x="633" 
d="M548 0h-88v249h-287v-249h-88v546h88v-231h287v231h88v-546z" />
    <glyph glyph-name="i.sc" horiz-adv-x="258" 
d="M173 0h-88v546h88v-546z" />
    <glyph glyph-name="j.sc" horiz-adv-x="442" 
d="M368 163q0 -83 -46 -128.5t-137 -45.5q-73 0 -122.5 35.5t-49.5 99.5q0 13 1 21h91q-1 -9 -1 -19q0 -34 22 -52t60 -18q94 0 94 108v382h88v-383z" />
    <glyph glyph-name="k.sc" horiz-adv-x="548" 
d="M173 546v-546h-88v546h88zM175 296l233 250h109l-245 -246l271 -300h-113z" />
    <glyph glyph-name="l.sc" horiz-adv-x="472" 
d="M456 0h-371v546h88v-481h283v-65z" />
    <glyph glyph-name="m.sc" horiz-adv-x="791" 
d="M706 0h-80v473l-192 -473h-78l-193 473v-473h-78v546h129l184 -461l182 461h126v-546z" />
    <glyph glyph-name="n.sc" horiz-adv-x="637" 
d="M552 0h-112l-277 454v-454h-78v546h111l277 -454v454h79v-546z" />
    <glyph glyph-name="o.sc" horiz-adv-x="625" 
d="M578 274q0 -121 -69 -203t-196 -82q-128 0 -197 81.5t-69 203.5t69 202.5t199 80.5q131 0 197 -79.5t66 -203.5zM488 275q0 92 -42 154.5t-133 62.5q-89 0 -132.5 -64t-43.5 -153q0 -57 16 -104.5t57.5 -81.5t102.5 -34t102 34.5t57 82t16 103.5z" />
    <glyph glyph-name="p.sc" horiz-adv-x="520" 
d="M489 383q0 -46 -21.5 -82.5t-59.5 -55.5q-54 -27 -142 -27h-93v-218h-88v546h190q93 0 144 -30q70 -40 70 -133zM400 386q0 53 -36 77q-29 20 -99 20h-92v-201h73q75 0 108 19q46 26 46 85z" />
    <glyph glyph-name="q.sc" horiz-adv-x="625" 
d="M598 0h-97q-81 0 -116 -4q-39 -3 -76 -3q-126 0 -194 80t-68 199q0 124 69 204.5t198 80.5q127 0 195 -77t68 -197q0 -163 -115 -230q45 4 104 4h32v-57zM487 275q0 93 -41.5 155t-132.5 62q-61 0 -102 -33t-57.5 -80t-16.5 -104q0 -88 43 -152t133 -64q61 0 102 33.5
t56.5 80t15.5 102.5z" />
    <glyph glyph-name="r.sc" horiz-adv-x="562" 
d="M517 0h-94q-20 43 -26 117q-6 75 -25.5 100.5t-78.5 25.5h-120v-243h-88v546h221q90 0 141.5 -34.5t51.5 -102.5q0 -101 -108 -133q47 -9 67 -39t25 -98q7 -91 34 -139zM413 398q0 85 -122 85h-118v-178h120q120 0 120 93z" />
    <glyph glyph-name="s.sc" horiz-adv-x="523" 
d="M475 149q0 -79 -61 -119.5t-158 -40.5q-94 0 -152.5 42.5t-60.5 123.5h89q2 -44 35 -73t93 -29q56 0 91.5 23t35.5 68q0 34 -25 53.5t-93 38.5l-51 14q-80 22 -120 58t-40 98q0 72 57.5 111.5t146.5 39.5q88 0 144 -35.5t57 -107.5h-88q-2 41 -33.5 61t-80.5 20
q-52 0 -84 -22t-32 -62q0 -32 27.5 -53t83.5 -36l51 -14q94 -26 131 -63t37 -96z" />
    <glyph glyph-name="t.sc" horiz-adv-x="475" 
d="M465 481h-184v-481h-88v481h-183v65h455v-65z" />
    <glyph glyph-name="u.sc" horiz-adv-x="623" 
d="M549 214q0 -225 -239 -225q-116 0 -176 54t-60 171v332h90v-331q0 -76 33 -118t115 -42q81 0 115 42t34 120v329h88v-332z" />
    <glyph glyph-name="v.sc" horiz-adv-x="549" 
d="M544 546l-219 -546h-99l-221 546h94l179 -468l177 468h89z" />
    <glyph glyph-name="w.sc" horiz-adv-x="854" 
d="M839 546l-158 -546h-100l-154 461l-153 -461h-101l-157 546h91l122 -464l150 464h98l153 -464l121 464h88z" />
    <glyph glyph-name="x.sc" horiz-adv-x="563" 
d="M551 0h-108l-167 228l-161 -228h-103l214 283l-206 263h109l153 -210l148 210h101l-199 -263z" />
    <glyph glyph-name="y.sc" horiz-adv-x="518" 
d="M527 546l-223 -318v-228h-88v228l-225 318h104l167 -253l168 253h97z" />
    <glyph glyph-name="z.sc" horiz-adv-x="487" 
d="M466 0h-445v67l329 415h-307v64h413v-63l-336 -419h346v-64z" />
    <glyph glyph-name="agrave.sc" horiz-adv-x="587" 
d="M484 0l-59 140h-272l-57 -140h-90l238 546h92l245 -546h-97zM288 469l-109 -265h219zM343 631h-63l-139 145h108z" />
    <glyph glyph-name="aacute.sc" horiz-adv-x="587" 
d="M484 0l-59 140h-272l-57 -140h-90l238 546h92l245 -546h-97zM288 469l-109 -265h219zM441 776l-139 -145h-64l95 145h108z" />
    <glyph glyph-name="acircumflex.sc" horiz-adv-x="587" 
d="M484 0l-59 140h-272l-57 -140h-90l238 546h92l245 -546h-97zM288 469l-109 -265h219zM438 631h-64l-86 99l-88 -99h-64l105 146h94z" />
    <glyph glyph-name="atilde.sc" horiz-adv-x="587" 
d="M484 0l-59 140h-272l-57 -140h-90l238 546h92l245 -546h-97zM288 469l-109 -265h219zM443 756q-7 -39 -33 -67.5t-63 -28.5q-21 0 -59 12t-59 12q-36 0 -48 -30h-47q7 41 33.5 67.5t67.5 26.5q20 0 57.5 -12t57.5 -12q33 0 45 32h48z" />
    <glyph glyph-name="adieresis.sc" horiz-adv-x="587" 
d="M484 0l-59 140h-272l-57 -140h-90l238 546h92l245 -546h-97zM288 469l-109 -265h219zM430 676h-93v88h93v-88zM239 676h-93v88h93v-88z" />
    <glyph glyph-name="amacron.sc" horiz-adv-x="587" 
d="M484 0l-59 140h-272l-57 -140h-90l238 546h92l245 -546h-97zM288 469l-109 -265h219zM425 676h-274v61h274v-61z" />
    <glyph glyph-name="abreve.sc" horiz-adv-x="587" 
d="M484 0l-59 140h-272l-57 -140h-90l238 546h92l245 -546h-97zM288 469l-109 -265h219zM440 754q-7 -59 -47 -91t-105 -32q-64 0 -107 32.5t-44 90.5h45q6 -33 37.5 -50.5t68.5 -17.5q86 0 109 68h43z" />
    <glyph glyph-name="aring.sc" horiz-adv-x="587" 
d="M484 0l-59 140h-272l-57 -140h-90l238 546h92l245 -546h-97zM288 469l-109 -265h219zM381 706q0 -40 -27 -66.5t-67 -26.5t-67 26.5t-27 66.5t27 66.5t67 26.5t67 -26.5t27 -66.5zM340 706q0 25 -14.5 41t-38.5 16t-38.5 -16t-14.5 -41t14.5 -41t38.5 -16t38.5 16
t14.5 41z" />
    <glyph glyph-name="aogonek.sc" horiz-adv-x="587" 
d="M484 0l-59 140h-272l-57 -140h-90l238 546h92l245 -546q-59 -27 -84 -48t-25 -49q0 -23 17.5 -35.5t42.5 -12.5q19 0 42 10l6 -32q-40 -19 -79 -19q-37 0 -66 17.5t-29 52.5q0 72 118 116h-40zM288 469l-109 -265h219z" />
    <glyph glyph-name="ae.sc" horiz-adv-x="798" 
d="M732 250h-246l33 -185h236v-65h-313l-24 137h-254l-80 -137h-90l323 546h428v-64h-300l30 -168h257v-64zM360 473l-160 -273h207z" />
    <glyph glyph-name="cacute.sc" horiz-adv-x="564" 
d="M523 146q-12 -77 -72 -117t-151 -40q-129 0 -191 78t-62 203q0 123 66 205t195 82q85 0 145 -38t66 -117h-92q-15 90 -119 90q-85 0 -128 -63.5t-43 -156.5q0 -97 41.5 -157t124.5 -60q105 0 127 91h93zM429 776l-139 -145h-64l95 145h108z" />
    <glyph glyph-name="ccircumflex.sc" horiz-adv-x="564" 
d="M523 146q-12 -77 -72 -117t-151 -40q-129 0 -191 78t-62 203q0 123 66 205t195 82q85 0 145 -38t66 -117h-92q-15 90 -119 90q-85 0 -128 -63.5t-43 -156.5q0 -97 41.5 -157t124.5 -60q105 0 127 91h93zM447 631h-64l-86 99l-88 -99h-64l105 146h94z" />
    <glyph glyph-name="ccaron.sc" horiz-adv-x="564" 
d="M523 146q-12 -77 -72 -117t-151 -40q-129 0 -191 78t-62 203q0 123 66 205t195 82q85 0 145 -38t66 -117h-92q-15 90 -119 90q-85 0 -128 -63.5t-43 -156.5q0 -97 41.5 -157t124.5 -60q105 0 127 91h93zM447 776l-102 -145h-99l-103 145h64l90 -99l86 99h64z" />
    <glyph glyph-name="cdotaccent.sc" horiz-adv-x="564" 
d="M523 146q-12 -77 -72 -117t-151 -40q-129 0 -191 78t-62 203q0 123 66 205t195 82q85 0 145 -38t66 -117h-92q-15 90 -119 90q-85 0 -128 -63.5t-43 -156.5q0 -97 41.5 -157t124.5 -60q105 0 127 91h93zM343 676h-93v88h93v-88z" />
    <glyph glyph-name="ccedilla.sc" horiz-adv-x="564" 
d="M396 -119q0 -39 -33 -56t-76 -17q-51 0 -108 23l8 33q51 -24 94 -24q50 0 50 37q0 38 -49 38q-17 0 -33 -4v20l23 59q-115 9 -170 85.5t-55 194.5q0 123 66 205t195 82q85 0 145 -38t66 -117h-92q-15 90 -119 90q-85 0 -128 -63.5t-43 -156.5q0 -97 41.5 -157t124.5 -60
q105 0 127 91h93q-12 -77 -71 -116.5t-150 -40.5l-13 -41h13q94 0 94 -67z" />
    <glyph glyph-name="dcaron.sc" horiz-adv-x="619" 
d="M573 276q0 -146 -87 -215q-78 -61 -229 -61h-172v546h185q123 0 200 -48q103 -68 103 -222zM483 275q0 117 -64 166q-50 40 -150 40h-96v-416h83q116 0 166 45q61 54 61 165zM460 776l-102 -145h-99l-103 145h64l90 -99l86 99h64z" />
    <glyph glyph-name="dcroat.sc" horiz-adv-x="619" 
d="M573 276q0 -146 -87 -215q-78 -61 -229 -61h-172v265h-56v56h56v225h185q126 0 200 -48q103 -66 103 -222zM483 275q0 117 -64 166q-50 40 -150 40h-96v-160h153v-56h-153v-200h83q116 0 166 45q61 54 61 165z" />
    <glyph glyph-name="eth.sc" horiz-adv-x="619" 
d="M573 276q0 -146 -87 -215q-78 -61 -229 -61h-172v265h-56v56h56v225h185q126 0 200 -48q103 -66 103 -222zM483 275q0 117 -64 166q-50 40 -150 40h-96v-160h153v-56h-153v-200h83q116 0 166 45q61 54 61 165z" />
    <glyph glyph-name="egrave.sc" horiz-adv-x="509" 
d="M466 0h-381v546h371v-64h-283v-168h270v-64h-270v-185h293v-65zM340 631h-63l-139 145h108z" />
    <glyph glyph-name="eacute.sc" horiz-adv-x="509" 
d="M466 0h-381v546h371v-64h-283v-168h270v-64h-270v-185h293v-65zM390 776l-139 -145h-64l95 145h108z" />
    <glyph glyph-name="ecircumflex.sc" horiz-adv-x="509" 
d="M466 0h-381v546h371v-64h-283v-168h270v-64h-270v-185h293v-65zM422 631h-64l-86 99l-88 -99h-64l105 146h94z" />
    <glyph glyph-name="ecaron.sc" horiz-adv-x="509" 
d="M466 0h-381v546h371v-64h-283v-168h270v-64h-270v-185h293v-65zM421 776l-102 -145h-99l-103 145h64l90 -99l86 99h64z" />
    <glyph glyph-name="edieresis.sc" horiz-adv-x="509" 
d="M466 0h-381v546h371v-64h-283v-168h270v-64h-270v-185h293v-65zM414 676h-93v88h93v-88zM223 676h-93v88h93v-88z" />
    <glyph glyph-name="emacron.sc" horiz-adv-x="509" 
d="M466 0h-381v546h371v-64h-283v-168h270v-64h-270v-185h293v-65zM408 676h-274v61h274v-61z" />
    <glyph glyph-name="ebreve.sc" horiz-adv-x="509" 
d="M466 0h-381v546h371v-64h-283v-168h270v-64h-270v-185h293v-65zM423 754q-7 -59 -47 -91t-105 -32q-64 0 -107 32.5t-44 90.5h45q6 -33 37.5 -50.5t68.5 -17.5q86 0 109 68h43z" />
    <glyph glyph-name="edotaccent.sc" horiz-adv-x="509" 
d="M466 0h-381v546h371v-64h-283v-168h270v-64h-270v-185h293v-65zM319 676h-93v88h93v-88z" />
    <glyph glyph-name="eogonek.sc" horiz-adv-x="509" 
d="M466 0q-59 -27 -84 -48t-25 -49q0 -23 17.5 -35.5t42.5 -12.5q19 0 42 10l6 -32q-40 -19 -79 -19q-37 0 -66 17.5t-29 52.5q0 72 118 116h-324v546h371v-64h-283v-168h270v-64h-270v-185h293v-65z" />
    <glyph glyph-name="gcircumflex.sc" horiz-adv-x="598" 
d="M534 23q-94 -32 -211 -32q-138 0 -207 77t-69 206q0 125 71 204t201 79q87 0 144 -39t66 -118h-88q-16 92 -127 92q-88 0 -132.5 -62.5t-44.5 -154.5q0 -97 45.5 -158t145.5 -61q67 0 121 17v152h-135v62h220v-264zM461 631h-64l-86 99l-88 -99h-64l105 146h94z" />
    <glyph glyph-name="gbreve.sc" horiz-adv-x="598" 
d="M534 23q-94 -32 -211 -32q-138 0 -207 77t-69 206q0 125 71 204t201 79q87 0 144 -39t66 -118h-88q-16 92 -127 92q-88 0 -132.5 -62.5t-44.5 -154.5q0 -97 45.5 -158t145.5 -61q67 0 121 17v152h-135v62h220v-264zM460 754q-7 -59 -47 -91t-105 -32q-64 0 -107 32.5
t-44 90.5h45q6 -33 37.5 -50.5t68.5 -17.5q86 0 109 68h43z" />
    <glyph glyph-name="gdotaccent.sc" horiz-adv-x="598" 
d="M534 23q-94 -32 -211 -32q-138 0 -207 77t-69 206q0 125 71 204t201 79q87 0 144 -39t66 -118h-88q-16 92 -127 92q-88 0 -132.5 -62.5t-44.5 -154.5q0 -97 45.5 -158t145.5 -61q67 0 121 17v152h-135v62h220v-264zM356 676h-93v88h93v-88z" />
    <glyph glyph-name="gcommaaccent.sc" horiz-adv-x="598" 
d="M534 23q-94 -32 -211 -32q-138 0 -207 77t-69 206q0 125 71 204t201 79q87 0 144 -39t66 -118h-88q-16 92 -127 92q-88 0 -132.5 -62.5t-44.5 -154.5q0 -97 45.5 -158t145.5 -61q67 0 121 17v152h-135v62h220v-264zM351 -33l-64 -167h-63l39 167h88z" />
    <glyph glyph-name="hcircumflex.sc" horiz-adv-x="633" 
d="M548 0h-88v249h-287v-249h-88v546h88v-231h287v231h88v-546zM467 631h-64l-86 99l-88 -99h-64l105 146h94z" />
    <glyph glyph-name="hbar.sc" horiz-adv-x="631" 
d="M548 0h-88v249h-287v-249h-88v546h88v-111h287v111h88v-546zM173 315h287v58h-287v-58z" />
    <glyph glyph-name="igrave.sc" horiz-adv-x="258" 
d="M173 0h-88v546h88v-546zM188 631h-63l-139 145h108z" />
    <glyph glyph-name="iacute.sc" horiz-adv-x="258" 
d="M173 0h-88v546h88v-546zM281 776l-139 -145h-64l95 145h108z" />
    <glyph glyph-name="ibreve.sc" horiz-adv-x="258" 
d="M173 0h-88v546h88v-546zM280 754q-7 -59 -47 -91t-105 -32q-64 0 -107 32.5t-44 90.5h45q6 -33 37.5 -50.5t68.5 -17.5q86 0 109 68h43z" />
    <glyph glyph-name="icircumflex.sc" horiz-adv-x="258" 
d="M173 0h-88v546h88v-546zM280 631h-64l-86 99l-88 -99h-64l105 146h94z" />
    <glyph glyph-name="itilde.sc" horiz-adv-x="258" 
d="M173 0h-88v546h88v-546zM284 756q-7 -39 -33 -67.5t-63 -28.5q-20 0 -58.5 12t-59.5 12q-36 0 -48 -30h-47q7 41 33.5 67.5t67.5 26.5q20 0 57.5 -12t57.5 -12q33 0 45 32h48z" />
    <glyph glyph-name="idieresis.sc" horiz-adv-x="258" 
d="M173 0h-88v546h88v-546zM271 676h-93v88h93v-88zM80 676h-93v88h93v-88z" />
    <glyph glyph-name="imacron.sc" horiz-adv-x="258" 
d="M173 0h-88v546h88v-546zM267 676h-274v61h274v-61z" />
    <glyph glyph-name="idotaccent.sc" horiz-adv-x="258" 
d="M173 0h-88v546h88v-546zM176 676h-93v88h93v-88z" />
    <glyph glyph-name="iogonek.sc" horiz-adv-x="258" 
d="M173 0q-59 -27 -84 -48t-25 -49q0 -23 17.5 -35.5t42.5 -12.5q19 0 42 10l6 -32q-40 -19 -79 -19q-37 0 -66 17.5t-29 52.5q0 72 118 116h-31v546h88v-546z" />
    <glyph glyph-name="jcircumflex.sc" horiz-adv-x="442" 
d="M368 163q0 -83 -46 -128.5t-137 -45.5q-73 0 -122.5 35.5t-49.5 99.5q0 13 1 21h91q-1 -9 -1 -19q0 -34 22 -52t60 -18q94 0 94 108v382h88v-383zM475 631h-64l-86 99l-88 -99h-64l105 146h94z" />
    <glyph glyph-name="kcommaaccent.sc" horiz-adv-x="548" 
d="M173 546v-546h-88v546h88zM175 296l233 250h109l-245 -246l271 -300h-113zM345 -33l-64 -167h-63l39 167h88z" />
    <glyph glyph-name="lacute.sc" horiz-adv-x="472" 
d="M456 0h-371v546h88v-481h283v-65zM297 776l-139 -145h-64l95 145h108z" />
    <glyph glyph-name="lcaron.sc" horiz-adv-x="472" 
d="M456 0h-371v546h88v-481h283v-65zM409 546l-60 -225h-65l27 225h98z" />
    <glyph glyph-name="lcommaaccent.sc" horiz-adv-x="472" 
d="M456 0h-371v546h88v-481h283v-65zM325 -33l-64 -167h-63l39 167h88z" />
    <glyph glyph-name="lslash.sc" horiz-adv-x="472" 
d="M335 358l-162 -89v-204h283v-65h-371v223l-54 -29v60l54 29v263h88v-217l162 89v-60z" />
    <glyph glyph-name="ldot.sc" horiz-adv-x="472" 
d="M456 0h-371v546h88v-481h283v-65zM409 243h-93v88h93v-88z" />
    <glyph glyph-name="nacute.sc" horiz-adv-x="637" 
d="M552 0h-112l-277 454v-454h-78v546h111l277 -454v454h79v-546zM452 776l-139 -145h-64l95 145h108z" />
    <glyph glyph-name="ncaron.sc" horiz-adv-x="637" 
d="M552 0h-112l-277 454v-454h-78v546h111l277 -454v454h79v-546zM469 776l-102 -145h-99l-103 145h64l90 -99l86 99h64z" />
    <glyph glyph-name="ntilde.sc" horiz-adv-x="637" 
d="M552 0h-112l-277 454v-454h-78v546h111l277 -454v454h79v-546zM472 756q-7 -39 -33 -67.5t-63 -28.5q-20 0 -59 12t-59 12q-36 0 -48 -30h-47q7 41 33.5 67.5t67.5 26.5q20 0 57.5 -12t57.5 -12q33 0 45 32h48z" />
    <glyph glyph-name="ncommaaccent.sc" horiz-adv-x="637" 
d="M552 0h-112l-277 454v-454h-78v546h111l277 -454v454h79v-546zM380 -33l-64 -167h-63l39 167h88z" />
    <glyph glyph-name="ograve.sc" horiz-adv-x="625" 
d="M578 274q0 -121 -69 -203t-196 -82q-128 0 -197 81.5t-69 203.5t69 202.5t199 80.5q131 0 197 -79.5t66 -203.5zM488 275q0 92 -42 154.5t-133 62.5q-89 0 -132.5 -64t-43.5 -153q0 -57 16 -104.5t57.5 -81.5t102.5 -34t102 34.5t57 82t16 103.5zM380 631h-63l-139 145
h108z" />
    <glyph glyph-name="oacute.sc" horiz-adv-x="625" 
d="M578 274q0 -121 -69 -203t-196 -82q-128 0 -197 81.5t-69 203.5t69 202.5t199 80.5q131 0 197 -79.5t66 -203.5zM488 275q0 92 -42 154.5t-133 62.5q-89 0 -132.5 -64t-43.5 -153q0 -57 16 -104.5t57.5 -81.5t102.5 -34t102 34.5t57 82t16 103.5zM445 776l-139 -145h-64
l95 145h108z" />
    <glyph glyph-name="ocircumflex.sc" horiz-adv-x="625" 
d="M578 274q0 -121 -69 -203t-196 -82q-128 0 -197 81.5t-69 203.5t69 202.5t199 80.5q131 0 197 -79.5t66 -203.5zM488 275q0 92 -42 154.5t-133 62.5q-89 0 -132.5 -64t-43.5 -153q0 -57 16 -104.5t57.5 -81.5t102.5 -34t102 34.5t57 82t16 103.5zM463 631h-64l-86 99
l-88 -99h-64l105 146h94z" />
    <glyph glyph-name="otilde.sc" horiz-adv-x="625" 
d="M578 274q0 -121 -69 -203t-196 -82q-128 0 -197 81.5t-69 203.5t69 202.5t199 80.5q131 0 197 -79.5t66 -203.5zM488 275q0 92 -42 154.5t-133 62.5q-89 0 -132.5 -64t-43.5 -153q0 -57 16 -104.5t57.5 -81.5t102.5 -34t102 34.5t57 82t16 103.5zM467 756
q-7 -39 -33 -67.5t-63 -28.5q-21 0 -59 12t-59 12q-36 0 -48 -30h-47q7 41 33.5 67.5t67.5 26.5q20 0 57.5 -12t57.5 -12q33 0 45 32h48z" />
    <glyph glyph-name="odieresis.sc" horiz-adv-x="625" 
d="M578 274q0 -121 -69 -203t-196 -82q-128 0 -197 81.5t-69 203.5t69 202.5t199 80.5q131 0 197 -79.5t66 -203.5zM488 275q0 92 -42 154.5t-133 62.5q-89 0 -132.5 -64t-43.5 -153q0 -57 16 -104.5t57.5 -81.5t102.5 -34t102 34.5t57 82t16 103.5zM454 676h-93v88h93v-88z
M263 676h-93v88h93v-88z" />
    <glyph glyph-name="omacron.sc" horiz-adv-x="625" 
d="M578 274q0 -121 -69 -203t-196 -82q-128 0 -197 81.5t-69 203.5t69 202.5t199 80.5q131 0 197 -79.5t66 -203.5zM488 275q0 92 -42 154.5t-133 62.5q-89 0 -132.5 -64t-43.5 -153q0 -57 16 -104.5t57.5 -81.5t102.5 -34t102 34.5t57 82t16 103.5zM450 676h-274v61h274
v-61z" />
    <glyph glyph-name="obreve.sc" horiz-adv-x="625" 
d="M578 274q0 -121 -69 -203t-196 -82q-128 0 -197 81.5t-69 203.5t69 202.5t199 80.5q131 0 197 -79.5t66 -203.5zM488 275q0 92 -42 154.5t-133 62.5q-89 0 -132.5 -64t-43.5 -153q0 -57 16 -104.5t57.5 -81.5t102.5 -34t102 34.5t57 82t16 103.5zM464 754q-7 -59 -47 -91
t-105 -32q-64 0 -107 32.5t-44 90.5h45q6 -33 37.5 -50.5t68.5 -17.5q86 0 109 68h43z" />
    <glyph glyph-name="ohungarumlaut.sc" horiz-adv-x="625" 
d="M578 274q0 -121 -69 -203t-196 -82q-128 0 -197 81.5t-69 203.5t69 202.5t199 80.5q131 0 197 -79.5t66 -203.5zM488 275q0 92 -42 154.5t-133 62.5q-89 0 -132.5 -64t-43.5 -153q0 -57 16 -104.5t57.5 -81.5t102.5 -34t102 34.5t57 82t16 103.5zM557 776l-142 -143h-66
l100 143h108zM383 776l-142 -143h-66l99 143h109z" />
    <glyph glyph-name="oslash.sc" horiz-adv-x="625" 
d="M70 -28l-36 33l72 77q-59 77 -59 192q0 122 69 202.5t199 80.5q110 0 179 -61l65 69l36 -32l-69 -74q52 -74 52 -185q0 -121 -69 -203t-196 -82q-104 0 -173 58zM137 275q0 -77 28 -130l274 292q-45 55 -126 55q-89 0 -132.5 -64t-43.5 -153zM488 275q0 69 -23 119
l-272 -290q46 -49 120 -49q61 0 102 34.5t57 82t16 103.5z" />
    <glyph glyph-name="oe.sc" horiz-adv-x="808" 
d="M764 0h-255q-45 0 -83 -2q-51 -3 -78 -3q-301 0 -301 277q0 137 79 208t220 71q40 0 82 -3q22 -2 70 -2h256v-64h-253v-168h240v-64h-240v-185h263v-65zM414 62v422q-42 4 -68 4q-102 0 -155.5 -56.5t-53.5 -161.5q0 -211 209 -211q41 0 68 3z" />
    <glyph glyph-name="racute.sc" horiz-adv-x="562" 
d="M517 0h-94q-20 43 -26 117q-6 75 -25.5 100.5t-78.5 25.5h-120v-243h-88v546h221q90 0 141.5 -34.5t51.5 -102.5q0 -101 -108 -133q47 -9 67 -39t25 -98q7 -91 34 -139zM413 398q0 85 -122 85h-118v-178h120q120 0 120 93zM416 776l-139 -145h-64l95 145h108z" />
    <glyph glyph-name="rcaron.sc" horiz-adv-x="562" 
d="M517 0h-94q-20 43 -26 117q-6 75 -25.5 100.5t-78.5 25.5h-120v-243h-88v546h221q90 0 141.5 -34.5t51.5 -102.5q0 -101 -108 -133q47 -9 67 -39t25 -98q7 -91 34 -139zM413 398q0 85 -122 85h-118v-178h120q120 0 120 93zM431 776l-102 -145h-99l-103 145h64l90 -99
l86 99h64z" />
    <glyph glyph-name="rcommaaccent.sc" horiz-adv-x="562" 
d="M517 0h-94q-20 43 -26 117q-6 75 -25.5 100.5t-78.5 25.5h-120v-243h-88v546h221q90 0 141.5 -34.5t51.5 -102.5q0 -101 -108 -133q47 -9 67 -39t25 -98q7 -91 34 -139zM413 398q0 85 -122 85h-118v-178h120q120 0 120 93zM344 -33l-64 -167h-63l39 167h88z" />
    <glyph glyph-name="sacute.sc" horiz-adv-x="523" 
d="M475 149q0 -79 -61 -119.5t-158 -40.5q-94 0 -152.5 42.5t-60.5 123.5h89q2 -44 35 -73t93 -29q56 0 91.5 23t35.5 68q0 34 -25 53.5t-93 38.5l-51 14q-80 22 -120 58t-40 98q0 72 57.5 111.5t146.5 39.5q88 0 144 -35.5t57 -107.5h-88q-2 41 -33.5 61t-80.5 20
q-52 0 -84 -22t-32 -62q0 -32 27.5 -53t83.5 -36l51 -14q94 -26 131 -63t37 -96zM396 776l-139 -145h-64l95 145h108z" />
    <glyph glyph-name="scircumflex.sc" horiz-adv-x="523" 
d="M475 149q0 -79 -61 -119.5t-158 -40.5q-94 0 -152.5 42.5t-60.5 123.5h89q2 -44 35 -73t93 -29q56 0 91.5 23t35.5 68q0 34 -25 53.5t-93 38.5l-51 14q-80 22 -120 58t-40 98q0 72 57.5 111.5t146.5 39.5q88 0 144 -35.5t57 -107.5h-88q-2 41 -33.5 61t-80.5 20
q-52 0 -84 -22t-32 -62q0 -32 27.5 -53t83.5 -36l51 -14q94 -26 131 -63t37 -96zM414 631h-64l-86 99l-88 -99h-64l105 146h94z" />
    <glyph glyph-name="scaron.sc" horiz-adv-x="523" 
d="M475 149q0 -79 -61 -119.5t-158 -40.5q-94 0 -152.5 42.5t-60.5 123.5h89q2 -44 35 -73t93 -29q56 0 91.5 23t35.5 68q0 34 -25 53.5t-93 38.5l-51 14q-80 22 -120 58t-40 98q0 72 57.5 111.5t146.5 39.5q88 0 144 -35.5t57 -107.5h-88q-2 41 -33.5 61t-80.5 20
q-52 0 -84 -22t-32 -62q0 -32 27.5 -53t83.5 -36l51 -14q94 -26 131 -63t37 -96zM413 776l-102 -145h-99l-103 145h64l90 -99l86 99h64z" />
    <glyph glyph-name="scedilla.sc" horiz-adv-x="523" 
d="M361 -119q0 -39 -33 -56t-76 -17q-51 0 -108 23l8 33q51 -24 94 -24q50 0 50 37q0 38 -49 38q-17 0 -33 -4v20l22 59q-86 4 -138.5 46.5t-54.5 118.5h89q2 -44 35 -73t93 -29q56 0 91.5 23t35.5 68q0 34 -25 53.5t-93 38.5l-51 14q-80 22 -120 58t-40 98q0 72 57.5 111.5
t146.5 39.5q88 0 144 -35.5t57 -107.5h-88q-2 41 -33.5 61t-80.5 20q-52 0 -84 -22t-32 -62q0 -32 27.5 -53t83.5 -36l51 -14q94 -26 131 -63t37 -96q0 -77 -57.5 -117.5t-150.5 -42.5l-13 -41h13q94 0 94 -67z" />
    <glyph glyph-name="scommaaccent.sc" horiz-adv-x="523" 
d="M475 149q0 -79 -61 -119.5t-158 -40.5q-94 0 -152.5 42.5t-60.5 123.5h89q2 -44 35 -73t93 -29q56 0 91.5 23t35.5 68q0 34 -25 53.5t-93 38.5l-51 14q-80 22 -120 58t-40 98q0 72 57.5 111.5t146.5 39.5q88 0 144 -35.5t57 -107.5h-88q-2 41 -33.5 61t-80.5 20
q-52 0 -84 -22t-32 -62q0 -32 27.5 -53t83.5 -36l51 -14q94 -26 131 -63t37 -96zM315 -33l-64 -167h-63l39 167h88z" />
    <glyph glyph-name="tcaron.sc" horiz-adv-x="475" 
d="M465 481h-184v-481h-88v481h-183v65h455v-65zM389 776l-102 -145h-99l-103 145h64l90 -99l86 99h64z" />
    <glyph glyph-name="tcommaaccent.sc" horiz-adv-x="475" 
d="M465 481h-184v-481h-88v481h-183v65h455v-65zM283 -33l-64 -167h-63l39 167h88z" />
    <glyph glyph-name="tbar.sc" horiz-adv-x="475" 
d="M193 0v250h-159v62h159v169h-183v65h455v-65h-184v-169h159v-62h-159v-250h-88z" />
    <glyph glyph-name="thorn.sc" horiz-adv-x="520" 
d="M173 442h102q93 0 144 -30q70 -40 70 -133q0 -98 -81 -138q-54 -27 -142 -27h-93v-114h-88v546h88v-104zM400 282q0 53 -36 77q-29 20 -99 20h-92v-201h73q75 0 108 19q46 25 46 85z" />
    <glyph glyph-name="ugrave.sc" horiz-adv-x="623" 
d="M549 214q0 -225 -239 -225q-116 0 -176 54t-60 171v332h90v-331q0 -76 33 -118t115 -42q81 0 115 42t34 120v329h88v-332zM383 631h-63l-139 145h108z" />
    <glyph glyph-name="uacute.sc" horiz-adv-x="623" 
d="M549 214q0 -225 -239 -225q-116 0 -176 54t-60 171v332h90v-331q0 -76 33 -118t115 -42q81 0 115 42t34 120v329h88v-332zM453 776l-139 -145h-64l95 145h108z" />
    <glyph glyph-name="ucircumflex.sc" horiz-adv-x="623" 
d="M549 214q0 -225 -239 -225q-116 0 -176 54t-60 171v332h90v-331q0 -76 33 -118t115 -42q81 0 115 42t34 120v329h88v-332zM462 631h-64l-86 99l-88 -99h-64l105 146h94z" />
    <glyph glyph-name="utilde.sc" horiz-adv-x="623" 
d="M549 214q0 -225 -239 -225q-116 0 -176 54t-60 171v332h90v-331q0 -76 33 -118t115 -42q81 0 115 42t34 120v329h88v-332zM466 756q-7 -39 -33 -67.5t-63 -28.5q-20 0 -59 12t-59 12q-36 0 -48 -30h-47q7 41 33.5 67.5t67.5 26.5q20 0 57.5 -12t57.5 -12q33 0 45 32h48z
" />
    <glyph glyph-name="udieresis.sc" horiz-adv-x="623" 
d="M549 214q0 -225 -239 -225q-116 0 -176 54t-60 171v332h90v-331q0 -76 33 -118t115 -42q81 0 115 42t34 120v329h88v-332zM453 676h-93v88h93v-88zM262 676h-93v88h93v-88z" />
    <glyph glyph-name="umacron.sc" horiz-adv-x="623" 
d="M549 214q0 -225 -239 -225q-116 0 -176 54t-60 171v332h90v-331q0 -76 33 -118t115 -42q81 0 115 42t34 120v329h88v-332zM449 676h-274v61h274v-61z" />
    <glyph glyph-name="ubreve.sc" horiz-adv-x="623" 
d="M549 214q0 -225 -239 -225q-116 0 -176 54t-60 171v332h90v-331q0 -76 33 -118t115 -42q81 0 115 42t34 120v329h88v-332zM463 754q-7 -59 -47 -91t-105 -32q-64 0 -107 32.5t-44 90.5h45q6 -33 37.5 -50.5t68.5 -17.5q86 0 109 68h43z" />
    <glyph glyph-name="uring.sc" horiz-adv-x="623" 
d="M549 214q0 -225 -239 -225q-116 0 -176 54t-60 171v332h90v-331q0 -76 33 -118t115 -42q81 0 115 42t34 120v329h88v-332zM405 706q0 -40 -27 -66.5t-67 -26.5t-67 26.5t-27 66.5t27 66.5t67 26.5t67 -26.5t27 -66.5zM364 706q0 25 -14.5 41t-38.5 16t-38.5 -16
t-14.5 -41t14.5 -41t38.5 -16t38.5 16t14.5 41z" />
    <glyph glyph-name="uhungarumlaut.sc" horiz-adv-x="623" 
d="M549 214q0 -225 -239 -225q-116 0 -176 54t-60 171v332h90v-331q0 -76 33 -118t115 -42q81 0 115 42t34 120v329h88v-332zM536 776l-142 -143h-66l100 143h108zM362 776l-142 -143h-66l99 143h109z" />
    <glyph glyph-name="uogonek.sc" horiz-adv-x="623" 
d="M549 214q0 -192 -175 -220q-51 -24 -73 -44t-22 -47q0 -23 17.5 -35.5t42.5 -12.5q19 0 42 10l6 -32q-40 -19 -79 -19q-37 0 -66 17.5t-29 52.5q0 62 91 105q-113 2 -171.5 55.5t-58.5 169.5v332h90v-331q0 -76 33 -118t115 -42q81 0 115 42t34 120v329h88v-332z" />
    <glyph glyph-name="wacute.sc" horiz-adv-x="854" 
d="M839 546l-158 -546h-100l-154 461l-153 -461h-101l-157 546h91l122 -464l150 464h98l153 -464l121 464h88zM587 776l-139 -145h-64l95 145h108z" />
    <glyph glyph-name="wcircumflex.sc" horiz-adv-x="854" 
d="M839 546l-158 -546h-100l-154 461l-153 -461h-101l-157 546h91l122 -464l150 464h98l153 -464l121 464h88zM578 631h-64l-86 99l-88 -99h-64l105 146h94z" />
    <glyph glyph-name="wdieresis.sc" horiz-adv-x="854" 
d="M839 546l-158 -546h-100l-154 461l-153 -461h-101l-157 546h91l122 -464l150 464h98l153 -464l121 464h88zM570 676h-93v88h93v-88zM379 676h-93v88h93v-88z" />
    <glyph glyph-name="wgrave.sc" horiz-adv-x="854" 
d="M839 546l-158 -546h-100l-154 461l-153 -461h-101l-157 546h91l122 -464l150 464h98l153 -464l121 464h88zM475 631h-63l-139 145h108z" />
    <glyph glyph-name="yacute.sc" horiz-adv-x="518" 
d="M527 546l-223 -318v-228h-88v228l-225 318h104l167 -253l168 253h97zM403 776l-139 -145h-64l95 145h108z" />
    <glyph glyph-name="ycircumflex.sc" horiz-adv-x="518" 
d="M527 546l-223 -318v-228h-88v228l-225 318h104l167 -253l168 253h97zM413 631h-64l-86 99l-88 -99h-64l105 146h94z" />
    <glyph glyph-name="ydieresis.sc" horiz-adv-x="518" 
d="M527 546l-223 -318v-228h-88v228l-225 318h104l167 -253l168 253h97zM404 676h-93v88h93v-88zM213 676h-93v88h93v-88z" />
    <glyph glyph-name="ygrave.sc" horiz-adv-x="518" 
d="M527 546l-223 -318v-228h-88v228l-225 318h104l167 -253l168 253h97zM324 631h-63l-139 145h108z" />
    <glyph glyph-name="zacute.sc" horiz-adv-x="487" 
d="M466 0h-445v67l329 415h-307v64h413v-63l-336 -419h346v-64zM386 776l-139 -145h-64l95 145h108z" />
    <glyph glyph-name="zcaron.sc" horiz-adv-x="487" 
d="M466 0h-445v67l329 415h-307v64h413v-63l-336 -419h346v-64zM413 776l-102 -145h-99l-103 145h64l90 -99l86 99h64z" />
    <glyph glyph-name="zdotaccent.sc" horiz-adv-x="487" 
d="M466 0h-445v67l329 415h-307v64h413v-63l-336 -419h346v-64zM308 676h-93v88h93v-88z" />
    <glyph glyph-name="ij.sc" horiz-adv-x="700" 
d="M173 0h-88v546h88v-546zM626 163q0 -83 -46 -128.5t-137 -45.5q-73 0 -122.5 35.5t-49.5 99.5q0 13 1 21h91q-1 -9 -1 -19q0 -34 22 -52t60 -18q94 0 94 108v382h88v-383z" />
    <glyph glyph-name="germandbls.sc" horiz-adv-x="1046" 
d="M998 149q0 -79 -61 -119.5t-158 -40.5q-94 0 -152.5 42.5t-60.5 123.5h89q2 -44 35 -73t93 -29q56 0 91.5 23t35.5 68q0 34 -25 53.5t-93 38.5l-51 14q-80 22 -120 58t-40 98q0 72 57.5 111.5t146.5 39.5q88 0 144 -35.5t57 -107.5h-88q-2 41 -33.5 61t-80.5 20
q-52 0 -84 -22t-32 -62q0 -32 27.5 -53t83.5 -36l51 -14q94 -26 131 -63t37 -96zM475 149q0 -79 -61 -119.5t-158 -40.5q-94 0 -152.5 42.5t-60.5 123.5h89q2 -44 35 -73t93 -29q56 0 91.5 23t35.5 68q0 34 -25 53.5t-93 38.5l-51 14q-80 22 -120 58t-40 98q0 72 57.5 111.5
t146.5 39.5q88 0 144 -35.5t57 -107.5h-88q-2 41 -33.5 61t-80.5 20q-52 0 -84 -22t-32 -62q0 -32 27.5 -53t83.5 -36l51 -14q94 -26 131 -63t37 -96z" />
    <glyph glyph-name="eng.sc" horiz-adv-x="637" 
d="M474 -40v32l-311 465v-457h-78v546h109l280 -421v421h78v-584q0 -82 -35 -115t-109 -33q-28 0 -49 3v65q19 -3 34 -3q42 0 61.5 18t19.5 63z" />
    <glyph glyph-name="grave.sc" horiz-adv-x="300" 
d="M216 631h-63l-139 145h108z" />
    <glyph glyph-name="acute.sc" horiz-adv-x="301" 
d="M287 776l-139 -145h-64l95 145h108z" />
    <glyph glyph-name="circumflex.sc" horiz-adv-x="300" 
d="M301 631h-64l-86 99l-88 -99h-64l105 146h94z" />
    <glyph glyph-name="caron.sc" horiz-adv-x="300" 
d="M302 776l-102 -145h-99l-103 145h64l90 -99l86 99h64z" />
    <glyph glyph-name="tilde.sc" horiz-adv-x="301" 
d="M305 756q-7 -39 -33 -67.5t-63 -28.5q-21 0 -59.5 12t-58.5 12q-36 0 -48 -30h-47q7 41 33.5 67.5t67.5 26.5q20 0 57.5 -12t57.5 -12q33 0 45 32h48z" />
    <glyph glyph-name="dieresis.sc" horiz-adv-x="300" 
d="M292 676h-93v88h93v-88zM101 676h-93v88h93v-88z" />
    <glyph glyph-name="macron.sc" horiz-adv-x="300" 
d="M287 676h-274v61h274v-61z" />
    <glyph glyph-name="breve.sc" horiz-adv-x="301" 
d="M301 754q-7 -59 -47 -91t-105 -32q-64 0 -107 32.5t-44 90.5h45q6 -33 37.5 -50.5t68.5 -17.5q86 0 109 68h43z" />
    <glyph glyph-name="ring.sc" horiz-adv-x="300" 
d="M244 706q0 -40 -27 -66.5t-67 -26.5t-67 26.5t-27 66.5t27 66.5t67 26.5t67 -26.5t27 -66.5zM203 706q0 25 -14.5 41t-38.5 16t-38.5 -16t-14.5 -41t14.5 -41t38.5 -16t38.5 16t14.5 41z" />
    <glyph glyph-name="hungarumlaut.sc" horiz-adv-x="300" 
d="M377 776l-142 -143h-66l100 143h108zM203 776l-142 -143h-66l99 143h109z" />
    <glyph glyph-name="dotaccent.sc" horiz-adv-x="301" 
d="M197 676h-93v88h93v-88z" />
    <glyph glyph-name="exclamdown.sc" horiz-adv-x="262" 
d="M82 0l15 401h68l14 -401h-97zM84 546h95v-96h-95v96z" />
    <glyph glyph-name="questiondown.sc" horiz-adv-x="436" 
d="M69 124q0 43 26 80.5t92 90.5q23 19 30 31.5t7 37.5v37h76v-43q0 -35 -12 -55t-47 -51q-48 -40 -66 -66t-18 -56q0 -38 32 -59t82 -21q43 0 86 12v-63q-57 -10 -98 -10q-84 0 -137 31.5t-53 103.5zM214 546h94v-96h-94v96z" />
    <glyph glyph-name="Euro.sc" horiz-adv-x="491" 
d="M373 203h-188q6 -71 37.5 -111t103.5 -40q65 0 120 46v-79q-47 -30 -123 -30q-108 0 -160 55.5t-62 158.5h-72l15 51h54v52h-65l14 51h56q14 94 71.5 147t149.5 53q78 0 138 -39l-19 -69q-47 45 -117 45q-122 0 -140 -137h227l-13 -51h-217v-52h204z" />
    <glyph glyph-name="cent.sc" horiz-adv-x="491" 
d="M363 541l-25 -80q91 -30 99 -127h-84q-3 49 -33 68l-84 -275q7 -2 24 -2q84 0 95 89h84q-3 -68 -53 -106t-127 -38q-27 0 -40 2l-25 -81l-41 11l25 81q-56 19 -87.5 66.5t-31.5 118.5q0 91 53 147.5t151 56.5q12 0 34 -2l24 82zM146 270q0 -94 50 -128l83 274
q-3 0 -9 0.5t-9 0.5q-61 0 -88 -42t-27 -105z" />
    <glyph glyph-name="sterling.sc" horiz-adv-x="491" 
d="M460 419h-84q-4 79 -85 79q-59 0 -81.5 -35t-22.5 -105v-32h128v-57h-128v-208h254v-61h-388v61h49v208h-61v57h61v33q0 88 44.5 143.5t145.5 55.5q77 0 121.5 -34t46.5 -105z" />
    <glyph glyph-name="florin.sc" horiz-adv-x="491" 
d="M152 -8l59 298h-78l13 57h77l12 60q16 78 43 114t86 36q30 0 65 -8l-11 -62q-18 6 -37 6q-24 0 -39 -17t-23 -59l-14 -70h86l-11 -57h-86l-53 -274q-16 -80 -44.5 -114t-89.5 -34q-26 0 -53 7l13 60q16 -3 28 -3q24 0 37 14t20 46z" />
    <glyph glyph-name="yen.sc" horiz-adv-x="491" 
d="M486 546l-175 -281h118v-51h-143v-52h143v-51h-143v-111h-82v111h-143v51h143v52h-143v51h120l-176 281h97l147 -258l150 258h87z" />
    <glyph glyph-name="perthousand.sc" horiz-adv-x="833" 
d="M487 568l-349 -587h-66l352 587h63zM263 430q0 -55 -30 -90.5t-86 -35.5t-86.5 35.5t-30.5 90.5t30.5 90.5t86.5 35.5q55 0 85.5 -36t30.5 -90zM206 430q0 36 -15.5 57.5t-43.5 21.5t-43.5 -21.5t-15.5 -57.5t16 -58t43 -22t43 22t16 58zM531 119q0 -55 -30 -90.5
t-86 -35.5t-86.5 35.5t-30.5 90.5t30.5 91t86.5 36t86 -36t30 -91zM474 119q0 37 -15.5 58.5t-43.5 21.5t-43.5 -21.5t-15.5 -58.5q0 -36 16 -58t43 -22t43 22t16 58zM805 119q0 -55 -30 -90.5t-86 -35.5t-86.5 35.5t-30.5 90.5t30.5 91t86.5 36t86 -36t30 -91zM748 119
q0 37 -15.5 58.5t-43.5 21.5t-43.5 -21.5t-15.5 -58.5q0 -36 16 -58t43 -22t43 22t16 58z" />
    <glyph glyph-name="parenleft.sc" horiz-adv-x="278" 
d="M73 272q0 75 24.5 152.5t69.5 177.5h62q-77 -211 -77 -330q0 -121 77 -332h-62q-45 100 -69.5 178t-24.5 154z" />
    <glyph glyph-name="parenright.sc" horiz-adv-x="278" 
d="M205 272q0 -76 -24.5 -154t-69.5 -178h-62q77 206 77 332q0 124 -77 330h62q45 -100 69.5 -177.5t24.5 -152.5z" />
    <glyph glyph-name="bracketleft.sc" horiz-adv-x="288" 
d="M78 602h151v-50h-80v-562h80v-50h-151v662z" />
    <glyph glyph-name="bracketright.sc" horiz-adv-x="288" 
d="M210 -60h-151v50h80v562h-80v50h151v-662z" />
    <glyph glyph-name="braceleft.sc" horiz-adv-x="319" 
d="M291 -60q-98 1 -134.5 39t-36.5 117v42q0 58 -21 81t-85 29v46q64 7 85 29t21 78v41q0 80 37 119.5t134 40.5v-47q-59 -1 -79 -28.5t-20 -87.5v-36q0 -58 -20 -89.5t-75 -42.5q56 -12 75.5 -44t19.5 -92v-36q0 -60 20.5 -85.5t78.5 -26.5v-47z" />
    <glyph glyph-name="braceright.sc" horiz-adv-x="319" 
d="M29 -60v47q58 1 78.5 26.5t20.5 85.5v36q0 60 19.5 92t75.5 44q-55 11 -75 42.5t-20 89.5v36q0 60 -20 87.5t-79 28.5v47q97 -1 134 -40.5t37 -119.5v-41q0 -56 21 -78t85 -29v-46q-64 -6 -85 -29t-21 -81v-42q0 -79 -36.5 -117t-134.5 -39z" />
    <glyph glyph-name="zero.onum" 
d="M548 276q0 -124 -69 -205.5t-189 -81.5t-189.5 81.5t-69.5 205.5t69.5 205t189.5 81t189 -81t69 -205zM453 276q0 96 -41.5 156.5t-121.5 60.5t-122 -60.5t-42 -156.5t42 -157t122 -61t121.5 61t41.5 157z" />
    <glyph glyph-name="one.onum" 
d="M383 0h-89v464q-78 -58 -187 -90v75q113 37 196 103h80v-552z" />
    <glyph glyph-name="two.onum" 
d="M513 0h-459v74l180 117q101 65 139 111t38 90q0 47 -30.5 75t-88.5 28q-60 0 -96.5 -33t-36.5 -90h-94q1 91 65 141t164 50q93 0 151.5 -44t58.5 -123q0 -67 -51.5 -126.5t-160.5 -127.5l-109 -68h330v-74z" />
    <glyph glyph-name="three.onum" 
d="M523 45q0 -94 -69.5 -148.5t-170.5 -54.5t-162.5 49.5t-67.5 151.5h92q1 -63 40 -97.5t98 -34.5q66 0 106.5 35.5t40.5 104.5q0 63 -40.5 97t-111.5 34q-21 0 -42 -3v72q20 -3 39 -3q63 0 101.5 33t38.5 93q0 57 -33.5 88.5t-93.5 31.5t-94.5 -31.5t-38.5 -93.5h-92
q2 90 66.5 142t157.5 52q95 0 157.5 -46.5t62.5 -138.5q0 -58 -33.5 -101t-92.5 -59q66 -14 104 -58t38 -115z" />
    <glyph glyph-name="four.onum" 
d="M551 0h-110v-147h-87v147h-319v88l297 464h109v-483h110v-69zM355 68v397l-248 -397h248z" />
    <glyph glyph-name="five.onum" 
d="M523 85q0 -111 -63.5 -177t-168.5 -66q-99 0 -160 44t-63 140h94q2 -57 37 -86.5t92 -29.5q69 0 104.5 49t35.5 126q0 75 -31 120t-97 45q-49 0 -85.5 -28t-47.5 -77h-91l16 407h397v-71h-314l-12 -240q57 77 153 77q99 0 151.5 -63.5t52.5 -169.5z" />
    <glyph glyph-name="six.onum" 
d="M531 231q0 -103 -64 -172.5t-164 -69.5q-249 0 -249 350q0 78 12.5 143t40 121.5t79 88t122.5 31.5q101 0 155 -50.5t56 -131.5h-93q-9 115 -120 115q-48 0 -82.5 -28t-51.5 -75.5t-24 -96t-7 -104.5q54 112 181 112q98 0 153.5 -65t55.5 -168zM443 231q0 73 -34 120.5
t-103 47.5q-72 0 -111 -49t-39 -123q0 -70 39 -118.5t106 -48.5q69 0 105.5 49t36.5 122z" />
    <glyph glyph-name="seven.onum" 
d="M511 471l-262 -618h-102l280 624h-372v75h456v-81z" />
    <glyph glyph-name="eight.onum" 
d="M531 198q0 -99 -70 -154t-170 -55q-48 0 -90 11.5t-77 34.5t-55.5 62.5t-20.5 91.5q0 72 41.5 119t109.5 64q-57 12 -97 51.5t-40 107.5q0 95 67.5 143.5t162.5 48.5q59 0 108.5 -18t83.5 -61.5t34 -105.5q0 -65 -36 -107t-101 -58q59 -15 104.5 -58.5t45.5 -116.5z
M430 532q0 60 -39 93t-99 33q-62 0 -102 -33.5t-40 -95.5q0 -61 40 -92.5t101 -31.5q58 0 98.5 34.5t40.5 92.5zM442 198q0 67 -44 103.5t-110 36.5q-65 0 -107.5 -37.5t-42.5 -102.5t42 -104t107 -39t110 39t45 104z" />
    <glyph glyph-name="nine.onum" 
d="M523 231q0 -389 -249 -389q-99 0 -156.5 46t-61.5 136h96q6 -111 123 -111q35 0 62 11.5t44 35.5t28.5 50t17 65.5t8 71t3.5 76.5q-58 -109 -173 -109q-97 0 -154 61.5t-57 160.5q0 98 64 162.5t167 64.5q67 0 114.5 -24.5t74 -71t38 -104t11.5 -132.5zM423 341
q0 68 -36 110t-101 42q-67 0 -105 -43.5t-38 -111.5q0 -69 34 -112t100 -43q69 0 107.5 43.5t38.5 114.5z" />
    <glyph glyph-name="zero.scprop" horiz-adv-x="492" 
d="M448 276q0 -51 -10 -98.5t-31.5 -91.5t-62.5 -70.5t-97 -26.5q-57 0 -98.5 26t-63.5 70.5t-31.5 91.5t-9.5 99t9.5 98t31.5 89t63.5 68.5t98.5 25.5q56 0 97 -25.5t62.5 -68.5t31.5 -89.5t10 -97.5zM362 276q0 95 -27 157t-87 62q-116 0 -116 -219q0 -225 116 -225
q60 0 87 63.5t27 161.5z" />
    <glyph glyph-name="one.scprop" horiz-adv-x="384" 
d="M260 0h-84v460q-46 -37 -127 -70v70q75 29 138 86h73v-546z" />
    <glyph glyph-name="two.scprop" horiz-adv-x="492" 
d="M431 0h-382v67l144 128q80 71 113 116t33 94q0 43 -25 66.5t-71 23.5t-73.5 -27.5t-27.5 -75.5h-86q1 79 55 122t135 43q79 0 129.5 -39.5t50.5 -110.5q0 -61 -39 -115.5t-122 -126.5l-114 -100h280v-65z" />
    <glyph glyph-name="three.scprop" horiz-adv-x="492" 
d="M447 149q0 -78 -60 -119t-145 -41q-87 0 -141 40t-61 120h88q3 -46 35.5 -72t78.5 -26q55 0 86.5 28t31.5 75q0 48 -35 73.5t-88 25.5q-24 0 -42 -2v64q18 -2 38 -2q52 0 84.5 23t32.5 68q0 42 -29 66.5t-77 24.5q-45 0 -75 -23.5t-31 -68.5h-89q1 67 56 110
q56 44 140 44q79 0 134.5 -37.5t55.5 -110.5q0 -45 -27 -78t-75 -46q51 -11 82.5 -45t31.5 -91z" />
    <glyph glyph-name="four.scprop" horiz-adv-x="492" 
d="M464 120h-88v-120h-81v120h-263v72l245 354h99v-366h88v-60zM297 179v289l-197 -289h197z" />
    <glyph glyph-name="five.scprop" horiz-adv-x="492" 
d="M445 182q0 -88 -55 -140.5t-144 -52.5q-82 0 -134 36.5t-53 112.5h88q1 -43 27.5 -65t70.5 -22q54 0 83.5 36t29.5 93q0 54 -26.5 88t-79.5 34q-37 0 -64.5 -19.5t-35.5 -55.5h-84l13 319h336v-63h-258l-10 -172q42 53 122 53q83 0 128.5 -51t45.5 -131z" />
    <glyph glyph-name="six.scprop" horiz-adv-x="492" 
d="M446 177q0 -80 -54.5 -134t-137.5 -54q-150 0 -194 142q-14 46 -14 125q0 57 9 105.5t31 95t66 73.5t106 27q76 0 124.5 -36.5t49.5 -108.5h-87q-5 86 -89 86q-121 0 -127 -216q42 75 141 75q80 0 128 -50.5t48 -129.5zM362 175q0 53 -27.5 87.5t-79.5 34.5
q-53 0 -85 -36t-32 -88q0 -51 31.5 -86.5t84.5 -35.5q49 0 78.5 35.5t29.5 88.5z" />
    <glyph glyph-name="seven.scprop" horiz-adv-x="452" 
d="M415 481l-217 -481h-96l229 481h-299v65h383v-65z" />
    <glyph glyph-name="eight.scprop" horiz-adv-x="492" 
d="M449 148q0 -79 -58.5 -119t-141.5 -40q-54 0 -98.5 14.5t-76.5 51t-32 90.5q0 52 30.5 88t83.5 51q-42 11 -71.5 42.5t-29.5 80.5q0 74 56.5 112t135.5 38q78 0 134.5 -37.5t56.5 -110.5q0 -46 -27 -78.5t-74 -46.5q48 -12 80 -47t32 -89zM353 403q0 46 -29.5 71
t-76.5 25t-77.5 -25t-30.5 -70q0 -43 30.5 -66.5t76.5 -23.5q45 0 76 24t31 65zM365 152q0 49 -35 76t-85 27t-84 -27t-34 -76q0 -47 33.5 -74.5t84.5 -27.5q53 0 86.5 27t33.5 75z" />
    <glyph glyph-name="nine.scprop" horiz-adv-x="492" 
d="M444 292q0 -303 -212 -303q-83 0 -134 38.5t-52 107.5h89q2 -40 27.5 -62.5t69.5 -22.5q31 0 54.5 13t37 33.5t22 51t11.5 58.5t4 63q-38 -71 -138 -71q-82 0 -130.5 49.5t-48.5 127.5t55.5 130t139.5 52q139 0 185 -119q20 -55 20 -146zM353 377q0 48 -29 83.5t-84 35.5
q-53 0 -84 -34.5t-31 -84.5t29 -84.5t83 -34.5q52 0 84 34t32 85z" />
    <glyph glyph-name="zero.prop" 
d="M534 371q0 -54 -6 -104t-23.5 -102t-44 -90t-71 -62t-101.5 -24q-72 0 -122.5 35.5t-75 96t-34.5 121.5t-10 132q0 52 7 100.5t24.5 97.5t45 85t71 58.5t99.5 22.5t100 -22.5t70 -58.5t42.5 -86t22.5 -98t6 -102zM440 360q0 307 -147 307q-153 0 -153 -306q0 -37 2.5 -71
t11.5 -77.5t24 -75t43 -53.5t66 -22q48 0 81 30t47.5 80.5t19.5 94t5 93.5z" />
    <glyph glyph-name="one.prop" horiz-adv-x="451" 
d="M306 0h-90v629q-61 -60 -159 -103v84q93 37 170 113h79v-723z" />
    <glyph glyph-name="two.prop" 
d="M515 0h-463v87q287 257 340 368q19 43 19 83q0 58 -34.5 92.5t-89.5 34.5q-59 0 -95.5 -38t-36.5 -101h-95q1 101 66.5 156.5t163.5 55.5q92 0 154.5 -49.5t62.5 -142.5q0 -108 -133 -259q-53 -60 -114 -118l-102 -96h357v-73z" />
    <glyph glyph-name="three.prop" horiz-adv-x="578" 
d="M532 196q0 -101 -74.5 -154t-178.5 -53t-170 51.5t-72 155.5h94q1 -63 45 -99.5t105 -36.5q65 0 109.5 38t44.5 104q0 69 -48 103t-117 34q-25 0 -39 -2v75q21 -3 41 -3q62 0 106 34t44 96q0 67 -39.5 98t-100.5 31t-98 -33.5t-44 -97.5h-92q4 96 72 148.5t163 52.5
q99 0 165 -50t66 -146q0 -63 -37 -105t-98 -58q74 -21 113.5 -64t39.5 -119z" />
    <glyph glyph-name="four.prop" 
d="M556 166h-111v-166h-90v166h-327v86l307 471h110v-488h111v-69zM356 235v398l-253 -398h253z" />
    <glyph glyph-name="five.prop" 
d="M528 237q0 -113 -67 -181.5t-175 -68.5q-98 0 -162 49t-68 148h97q2 -58 39 -92t93 -34q71 0 109.5 51.5t38.5 128.5q0 72 -35.5 121t-102.5 49q-48 0 -85.5 -29t-47.5 -78h-93l16 422h406v-71h-320l-12 -248q59 73 153 73q100 0 158 -67t58 -173z" />
    <glyph glyph-name="six.prop" 
d="M536 235q0 -106 -65.5 -176t-166.5 -70q-73 0 -125 30t-79 83.5t-38.5 113t-11.5 131.5q0 58 6.5 109.5t24 104.5t45 91.5t74 62.5t107.5 24q101 0 159.5 -51t58.5 -138h-95q-5 59 -34.5 87.5t-90.5 28.5q-36 0 -63.5 -13.5t-44.5 -39t-29 -53.5t-17.5 -65.5t-7.5 -66.5
t-3 -64q54 110 181 110q99 0 157 -67.5t58 -171.5zM445 233q0 74 -35.5 122.5t-103.5 48.5q-70 0 -111 -49.5t-41 -124.5q0 -71 39.5 -119.5t106.5 -48.5q69 0 107 48.5t38 122.5z" />
    <glyph glyph-name="seven.prop" horiz-adv-x="540" 
d="M493 642l-269 -642h-107l286 646h-375v77h465v-81z" />
    <glyph glyph-name="eight.prop" 
d="M539 201q0 -103 -73 -158.5t-175 -55.5q-106 0 -178 51t-72 154q0 74 42 121t113 64q-67 20 -104 57.5t-37 105.5q0 65 37 111.5t89 66.5t111 20q95 0 164.5 -49t69.5 -142q0 -67 -38 -109.5t-102 -59.5q153 -42 153 -177zM437 540q0 62 -42 97t-103 35q-62 0 -105 -35
t-43 -99q0 -63 42.5 -95t104.5 -32q60 0 103 34.5t43 94.5zM446 201q0 68 -45.5 104.5t-112.5 36.5q-66 0 -110.5 -37.5t-44.5 -104.5t44 -105t110 -38t112.5 38.5t46.5 105.5z" />
    <glyph glyph-name="nine.prop" 
d="M527 392q0 -407 -255 -407q-96 0 -155.5 47t-65.5 144h94q2 -58 36.5 -88t90.5 -30q34 0 60.5 13t43.5 29.5t29.5 48.5t19 54t10.5 63t5 58.5t2 55.5q-56 -107 -179 -107q-95 0 -157 65.5t-62 165.5q0 102 69 167.5t171 65.5q243 0 243 -345zM428 508q0 68 -40 112.5
t-105 44.5q-67 0 -108 -45t-41 -115t38 -116t103 -46q73 0 113 45.5t40 119.5z" />
    <glyph glyph-name="Euro.prop" 
d="M557 690l-21 -79q-48 52 -143 52q-83 0 -126.5 -51.5t-53.5 -137.5h282l-16 -62h-268q-1 -9 -1 -33q0 -27 1 -44h245l-16 -62h-228q5 -103 48.5 -156t133.5 -53q89 0 142 50v-89q-57 -36 -146 -36q-134 0 -196 72.5t-74 211.5h-90l16 62h71q-1 17 -1 44q0 21 1 33h-86
l16 62h72q42 264 272 264q91 0 166 -48z" />
    <glyph glyph-name="cent.prop" horiz-adv-x="572" 
d="M334 455q-16 2 -24 2q-82 0 -119.5 -59.5t-37.5 -146.5q0 -127 74 -179zM518 169q-7 -88 -65 -134t-148 -46q-25 0 -48 3l-28 -102l-49 11l28 103q-72 26 -110 89.5t-38 153.5q0 121 65.5 196.5t184.5 75.5q22 0 40 -3l29 103l49 -11l-29 -103q107 -39 117 -163h-86
q-5 67 -49 96l-107 -386q15 -3 32 -3q55 0 88.5 33t37.5 88h83z" />
    <glyph glyph-name="dollar.prop" 
d="M538 190q0 -62 -32 -106.5t-79 -65.5t-106 -26v-83h-49v82q-103 2 -166 49t-63 151h92q0 -65 36 -94t101 -33v256q-49 15 -79 27t-66 35.5t-53.5 59t-17.5 83.5q0 89 63 138t153 55v83h49v-84q193 -14 203 -178h-92q-2 49 -31 72.5t-80 31.5v-249q29 -9 46 -14t43 -15.5
t41.5 -20t34 -25.5t28.5 -33.5t17 -42t7 -53.5zM272 409v235q-52 -3 -87.5 -32t-35.5 -81q0 -87 123 -122zM445 186q0 27 -10 48t-30.5 34.5t-38 21t-45.5 16.5v-241q54 8 89 38t35 83z" />
    <glyph glyph-name="sterling.prop" 
d="M553 564h-95q-1 52 -30.5 79.5t-80.5 27.5q-74 0 -105.5 -50.5t-31.5 -146.5v-39h159v-68h-159v-295h319v-72h-473v72h61v295h-76v68h76v13q1 59 3.5 91.5t20 78.5t51.5 73q58 47 155 47q92 0 147.5 -42t58.5 -132z" />
    <glyph glyph-name="florin.prop" horiz-adv-x="520" 
d="M338 558l-19 -99h105l-11 -66h-106l-70 -378q-19 -101 -55 -145t-105 -44q-21 0 -57 6l13 73q13 -3 28 -3q34 0 52 22.5t28 75.5l73 393h-94l12 66h94l18 93q8 43 17 71.5t25.5 58t44 44t66.5 14.5q33 0 74 -9l-11 -72q-28 6 -42 6q-37 0 -53.5 -25.5t-26.5 -81.5z" />
    <glyph glyph-name="yen.prop" 
d="M579 723l-216 -372h152v-62h-182v-77h182v-62h-182v-150h-89v150h-181v62h181v77h-181v62h153l-215 372h104l189 -347l191 347h94z" />
    <glyph glyph-name="zero.onumprop" horiz-adv-x="605" 
d="M560 276q0 -124 -69 -205.5t-189 -81.5t-189.5 81.5t-69.5 205.5t69.5 205t189.5 81t189 -81t69 -205zM465 276q0 96 -41.5 156.5t-121.5 60.5t-122 -60.5t-42 -156.5t42 -157t122 -61t121.5 61t41.5 157z" />
    <glyph glyph-name="one.onumprop" horiz-adv-x="440" 
d="M313 0h-89v464q-78 -58 -187 -90v75q113 37 196 103h80v-552z" />
    <glyph glyph-name="two.onumprop" 
d="M513 0h-459v74l180 117q101 65 139 111t38 90q0 47 -30.5 75t-88.5 28q-60 0 -96.5 -33t-36.5 -90h-94q1 91 65 141t164 50q93 0 151.5 -44t58.5 -123q0 -67 -51.5 -126.5t-160.5 -127.5l-109 -68h330v-74z" />
    <glyph glyph-name="three.onumprop" 
d="M523 45q0 -94 -69.5 -148.5t-170.5 -54.5t-162.5 49.5t-67.5 151.5h92q1 -63 40 -97.5t98 -34.5q66 0 106.5 35.5t40.5 104.5q0 63 -40.5 97t-111.5 34q-21 0 -42 -3v72q20 -3 39 -3q63 0 101.5 33t38.5 93q0 57 -33.5 88.5t-93.5 31.5t-94.5 -31.5t-38.5 -93.5h-92
q2 90 66.5 142t157.5 52q95 0 157.5 -46.5t62.5 -138.5q0 -58 -33.5 -101t-92.5 -59q66 -14 104 -58t38 -115z" />
    <glyph glyph-name="four.onumprop" 
d="M551 0h-110v-147h-87v147h-319v88l297 464h109v-483h110v-69zM355 68v397l-248 -397h248z" />
    <glyph glyph-name="five.onumprop" 
d="M523 85q0 -111 -63.5 -177t-168.5 -66q-99 0 -160 44t-63 140h94q2 -57 37 -86.5t92 -29.5q69 0 104.5 49t35.5 126q0 75 -31 120t-97 45q-49 0 -85.5 -28t-47.5 -77h-91l16 407h397v-71h-314l-12 -240q57 77 153 77q99 0 151.5 -63.5t52.5 -169.5z" />
    <glyph glyph-name="six.onumprop" 
d="M531 231q0 -103 -64 -172.5t-164 -69.5q-249 0 -249 350q0 78 12.5 143t40 121.5t79 88t122.5 31.5q101 0 155 -50.5t56 -131.5h-93q-9 115 -120 115q-48 0 -82.5 -28t-51.5 -75.5t-24 -96t-7 -104.5q54 112 181 112q98 0 153.5 -65t55.5 -168zM443 231q0 73 -34 120.5
t-103 47.5q-72 0 -111 -49t-39 -123q0 -70 39 -118.5t106 -48.5q69 0 105.5 49t36.5 122z" />
    <glyph glyph-name="seven.onumprop" horiz-adv-x="543" 
d="M497 471l-262 -618h-102l280 624h-372v75h456v-81z" />
    <glyph glyph-name="eight.onumprop" 
d="M531 198q0 -99 -70 -154t-170 -55q-48 0 -90 11.5t-77 34.5t-55.5 62.5t-20.5 91.5q0 72 41.5 119t109.5 64q-57 12 -97 51.5t-40 107.5q0 95 67.5 143.5t162.5 48.5q59 0 108.5 -18t83.5 -61.5t34 -105.5q0 -65 -36 -107t-101 -58q59 -15 104.5 -58.5t45.5 -116.5z
M430 532q0 60 -39 93t-99 33q-62 0 -102 -33.5t-40 -95.5q0 -61 40 -92.5t101 -31.5q58 0 98.5 34.5t40.5 92.5zM442 198q0 67 -44 103.5t-110 36.5q-65 0 -107.5 -37.5t-42.5 -102.5t42 -104t107 -39t110 39t45 104z" />
    <glyph glyph-name="nine.onumprop" 
d="M523 231q0 -389 -249 -389q-99 0 -156.5 46t-61.5 136h96q6 -111 123 -111q35 0 62 11.5t44 35.5t28.5 50t17 65.5t8 71t3.5 76.5q-58 -109 -173 -109q-97 0 -154 61.5t-57 160.5q0 98 64 162.5t167 64.5q67 0 114.5 -24.5t74 -71t38 -104t11.5 -132.5zM423 341
q0 68 -36 110t-101 42q-67 0 -105 -43.5t-38 -111.5q0 -69 34 -112t100 -43q69 0 107.5 43.5t38.5 114.5z" />
    <glyph glyph-name="zero.numerator" horiz-adv-x="369" 
d="M339 517q0 -97 -38 -159t-118 -62q-81 0 -117.5 62t-36.5 160q0 90 39 150.5t118 60.5q80 0 116.5 -60t36.5 -152zM273 511q0 167 -87 167q-91 0 -91 -167q0 -71 21 -117t66 -46q48 0 69.5 45.5t21.5 117.5z" />
    <glyph glyph-name="one.numerator" horiz-adv-x="369" 
d="M237 303h-66v351q-44 -34 -96 -55v58q55 21 105 66h57v-420z" />
    <glyph glyph-name="two.numerator" horiz-adv-x="369" 
d="M328 303h-290v56l67 60q78 69 113.5 112t35.5 81q0 31 -18.5 48t-50.5 17q-72 0 -74 -76h-68q1 62 41 95.5t102 33.5q60 0 98.5 -30t38.5 -85q0 -51 -37.5 -100.5t-113.5 -114.5l-50 -42h206v-55z" />
    <glyph glyph-name="three.numerator" horiz-adv-x="369" 
d="M336 418q0 -59 -44.5 -90.5t-110.5 -31.5q-65 0 -106 31t-44 95h65q1 -36 25.5 -55.5t61.5 -19.5q39 0 63 19.5t24 56.5q0 36 -26 54t-66 18q-16 0 -29 -3v54q18 -2 29 -2q38 0 62 17t24 52q0 33 -22 49.5t-58 16.5q-75 0 -81 -71h-66q1 58 44.5 89.5t103.5 31.5t102 -29
t42 -86q0 -66 -73 -94q80 -23 80 -102z" />
    <glyph glyph-name="four.numerator" horiz-adv-x="369" 
d="M351 395h-67v-92h-63v92h-199v58l188 270h74v-278h67v-50zM222 445v210l-143 -210h143z" />
    <glyph glyph-name="five.numerator" horiz-adv-x="369" 
d="M340 443q0 -67 -41.5 -107t-109.5 -40q-62 0 -102 28.5t-41 89.5h67q1 -32 22 -49.5t54 -17.5q42 0 63.5 27t21.5 69q0 39 -20.5 64.5t-58.5 25.5q-63 0 -78 -57h-64l10 247h255v-52h-194l-7 -130q29 42 89 42q63 0 98.5 -39t35.5 -101z" />
    <glyph glyph-name="six.numerator" horiz-adv-x="369" 
d="M337 440q0 -62 -40.5 -103t-103.5 -41q-157 0 -157 208q0 99 37 162t122 63q62 0 97.5 -30.5t37.5 -79.5h-65q-9 60 -71 60q-92 0 -96 -156q33 56 106 56q61 0 97 -39t36 -100zM274 440q0 40 -20.5 65.5t-59.5 25.5q-42 0 -64.5 -26t-22.5 -67q0 -39 22.5 -64.5
t61.5 -25.5q40 0 61.5 25.5t21.5 66.5z" />
    <glyph glyph-name="seven.numerator" horiz-adv-x="369" 
d="M326 669l-165 -366h-73l174 366h-226v54h290v-54z" />
    <glyph glyph-name="eight.numerator" horiz-adv-x="369" 
d="M341 422q0 -60 -45.5 -93t-109.5 -33q-67 0 -112.5 30.5t-45.5 90.5q0 77 82 104q-73 25 -73 91q0 56 43.5 86.5t106.5 30.5q60 0 103.5 -29.5t43.5 -83.5q0 -67 -73 -94q35 -10 57.5 -36.5t22.5 -63.5zM271 613q0 33 -24 50.5t-60 17.5q-37 0 -62 -18t-25 -52t24 -50
t62 -16q36 0 60.5 17.5t24.5 50.5zM276 422q0 36 -26 55.5t-66 19.5q-39 0 -64.5 -20t-25.5 -55q0 -37 25 -57t64 -20q40 0 66.5 20t26.5 57z" />
    <glyph glyph-name="nine.numerator" horiz-adv-x="369" 
d="M335 530q0 -234 -158 -234q-62 0 -99 29.5t-41 84.5h65q6 -61 74 -61q54 0 75 44t23 124q-28 -58 -104 -58q-61 0 -99 37.5t-38 96.5q0 61 42 98.5t107 37.5q153 0 153 -199zM264 594q0 38 -21.5 61.5t-59.5 23.5q-40 0 -63 -23.5t-23 -61.5q0 -39 21 -62t60 -23
q40 0 63 23t23 62z" />
    <glyph glyph-name="zero.denominator" horiz-adv-x="369" 
d="M339 214q0 -97 -38 -159t-118 -62q-81 0 -117.5 62t-36.5 160q0 90 39 150.5t118 60.5q80 0 116.5 -60t36.5 -152zM273 208q0 167 -87 167q-91 0 -91 -167q0 -71 21 -117t66 -46q48 0 69.5 45.5t21.5 117.5z" />
    <glyph glyph-name="one.denominator" horiz-adv-x="369" 
d="M237 0h-66v351q-44 -34 -96 -55v58q55 21 105 66h57v-420z" />
    <glyph glyph-name="two.denominator" horiz-adv-x="369" 
d="M328 0h-290v56l67 60q78 69 113.5 112t35.5 81q0 31 -18.5 48t-50.5 17q-72 0 -74 -76h-68q1 62 41 95.5t102 33.5q60 0 98.5 -30t38.5 -85q0 -51 -37.5 -100.5t-113.5 -114.5l-50 -42h206v-55z" />
    <glyph glyph-name="three.denominator" horiz-adv-x="369" 
d="M336 115q0 -59 -44.5 -90.5t-110.5 -31.5q-65 0 -106 31t-44 95h65q1 -36 25.5 -55.5t61.5 -19.5q39 0 63 19.5t24 56.5q0 36 -26 54t-66 18q-16 0 -29 -3v54q18 -2 29 -2q38 0 62 17t24 52q0 33 -22 49.5t-58 16.5q-75 0 -81 -71h-66q1 58 44.5 89.5t103.5 31.5t102 -29
t42 -86q0 -66 -73 -94q80 -23 80 -102z" />
    <glyph glyph-name="four.denominator" horiz-adv-x="369" 
d="M351 92h-67v-92h-63v92h-199v58l188 270h74v-278h67v-50zM222 142v210l-143 -210h143z" />
    <glyph glyph-name="five.denominator" horiz-adv-x="369" 
d="M340 140q0 -67 -41.5 -107t-109.5 -40q-62 0 -102 28.5t-41 89.5h67q1 -32 22 -49.5t54 -17.5q42 0 63.5 27t21.5 69q0 39 -20.5 64.5t-58.5 25.5q-63 0 -78 -57h-64l10 247h255v-52h-194l-7 -130q29 42 89 42q63 0 98.5 -39t35.5 -101z" />
    <glyph glyph-name="six.denominator" horiz-adv-x="369" 
d="M337 137q0 -62 -40.5 -103t-103.5 -41q-157 0 -157 208q0 99 37 162t122 63q62 0 97.5 -30.5t37.5 -79.5h-65q-9 60 -71 60q-92 0 -96 -156q33 56 106 56q61 0 97 -39t36 -100zM274 137q0 40 -20.5 65.5t-59.5 25.5q-42 0 -64.5 -26t-22.5 -67q0 -39 22.5 -64.5
t61.5 -25.5q40 0 61.5 25.5t21.5 66.5z" />
    <glyph glyph-name="seven.denominator" horiz-adv-x="369" 
d="M326 366l-165 -366h-73l174 366h-226v54h290v-54z" />
    <glyph glyph-name="eight.denominator" horiz-adv-x="369" 
d="M341 119q0 -60 -45.5 -93t-109.5 -33q-67 0 -112.5 30.5t-45.5 90.5q0 77 82 104q-73 25 -73 91q0 56 43.5 86.5t106.5 30.5q60 0 103.5 -29.5t43.5 -83.5q0 -67 -73 -94q35 -10 57.5 -36.5t22.5 -63.5zM271 310q0 33 -24 50.5t-60 17.5q-37 0 -62 -18t-25 -52t24 -50
t62 -16q36 0 60.5 17.5t24.5 50.5zM276 119q0 36 -26 55.5t-66 19.5q-39 0 -64.5 -20t-25.5 -55q0 -37 25 -57t64 -20q40 0 66.5 20t26.5 57z" />
    <glyph glyph-name="nine.denominator" horiz-adv-x="369" 
d="M335 227q0 -234 -158 -234q-62 0 -99 29.5t-41 84.5h65q6 -61 74 -61q54 0 75 44t23 124q-28 -58 -104 -58q-61 0 -99 37.5t-38 96.5q0 61 42 98.5t107 37.5q153 0 153 -199zM264 291q0 38 -21.5 61.5t-59.5 23.5q-40 0 -63 -23.5t-23 -61.5q0 -39 21 -62t60 -23
q40 0 63 23t23 62z" />
    <glyph glyph-name="onehalf.alt01" 
d="M323 457h-55v212q-20 -16 -68 -33v45q44 15 76 42h47v-266zM392 0h-211v39l55 44q56 46 76 68t20 45q0 36 -43 36q-46 0 -48 -46h-56q1 42 30.5 63.5t74.5 21.5q43 0 71.5 -20t28.5 -54q0 -31 -22 -57t-71 -66l-44 -35h139v-39zM514 345h-448v44h448v-44z" />
    <glyph glyph-name="onethird.alt01" 
d="M401 74q0 -37 -30.5 -58t-82.5 -21q-48 0 -77.5 20.5t-33.5 61.5h56q2 -21 17.5 -33t38.5 -12q26 0 41 12t15 32q0 43 -58 43q-15 0 -23 -1v38h22q53 0 53 39q0 19 -13 29.5t-36 10.5q-49 0 -51 -42h-57q1 38 31.5 58t75.5 20q47 0 76 -18t29 -55q0 -43 -46 -59
q53 -14 53 -65zM514 345h-448v44h448v-44zM323 457h-55v212q-20 -16 -68 -33v45q44 15 76 42h47v-266z" />
    <glyph glyph-name="onequarter.alt01" 
d="M398 57h-45v-57h-53v57h-139v41l131 168h61v-171h45v-38zM302 94v123l-94 -123h94zM323 457h-55v212q-20 -16 -68 -33v45q44 15 76 42h47v-266zM514 345h-448v44h448v-44z" />
    <glyph glyph-name="oneeighth.alt01" 
d="M514 345h-448v44h448v-44zM403 73q0 -40 -33 -59t-79 -19q-49 0 -81.5 18.5t-32.5 58.5q0 49 57 66q-21 6 -35.5 21.5t-14.5 38.5q0 37 31 55t76 18t75.5 -17.5t30.5 -54.5q0 -43 -49 -60q55 -18 55 -66zM343 196q0 19 -14.5 29t-37.5 10q-54 0 -54 -40q0 -19 15.5 -29
t38.5 -10q21 0 36.5 10t15.5 30zM349 75q0 22 -16.5 34t-42.5 12t-42.5 -12t-16.5 -33q0 -44 59 -44q25 0 42 11t17 32zM323 457h-55v212q-20 -16 -68 -33v45q44 15 76 42h47v-266z" />
    <glyph glyph-name="twothirds.alt01" 
d="M401 74q0 -37 -30.5 -58t-82.5 -21q-48 0 -77.5 20.5t-33.5 61.5h56q2 -21 17.5 -33t38.5 -12q26 0 41 12t15 32q0 43 -58 43q-15 0 -23 -1v38h22q53 0 53 39q0 19 -13 29.5t-36 10.5q-49 0 -51 -42h-57q1 38 31.5 58t75.5 20q47 0 76 -18t29 -55q0 -43 -46 -59
q53 -14 53 -65zM392 457h-211v39l55 44q56 46 76 68t20 45q0 36 -43 36q-46 0 -48 -46h-56q1 42 30.5 63.5t74.5 21.5q43 0 71.5 -20t28.5 -54q0 -31 -22 -57t-71 -66l-44 -35h139v-39zM514 345h-448v44h448v-44z" />
    <glyph glyph-name="threequarters.alt01" 
d="M401 531q0 -37 -30.5 -58t-82.5 -21q-48 0 -77.5 20.5t-33.5 61.5h56q2 -21 17.5 -33t38.5 -12q26 0 41 12t15 32q0 43 -58 43q-15 0 -23 -1v39q10 -1 22 -1q53 0 53 39q0 19 -13 29.5t-36 10.5q-49 0 -51 -42h-57q1 38 31.5 58t75.5 20q47 0 76 -18t29 -55
q0 -43 -46 -59q53 -14 53 -65zM398 57h-45v-57h-53v57h-139v41l131 168h61v-171h45v-38zM302 94v123l-94 -123h94zM514 345h-448v44h448v-44z" />
    <glyph glyph-name="threeeighths.alt01" 
d="M401 531q0 -37 -30.5 -58t-82.5 -21q-48 0 -77.5 20.5t-33.5 61.5h56q2 -21 17.5 -33t38.5 -12q26 0 41 12t15 32q0 43 -58 43q-15 0 -23 -1v39q10 -1 22 -1q53 0 53 39q0 19 -13 29.5t-36 10.5q-49 0 -51 -42h-57q1 38 31.5 58t75.5 20q47 0 76 -18t29 -55
q0 -43 -46 -59q53 -14 53 -65zM403 73q0 -40 -33 -59t-79 -19q-49 0 -81.5 18.5t-32.5 58.5q0 49 57 66q-21 6 -35.5 21.5t-14.5 38.5q0 37 31 55t76 18t75.5 -17.5t30.5 -54.5q0 -43 -49 -60q55 -18 55 -66zM343 196q0 19 -14.5 29t-37.5 10q-54 0 -54 -40q0 -19 15.5 -29
t38.5 -10q21 0 36.5 10t15.5 30zM349 75q0 22 -16.5 34t-42.5 12t-42.5 -12t-16.5 -33q0 -44 59 -44q25 0 42 11t17 32zM514 345h-448v44h448v-44z" />
    <glyph glyph-name="fiveeighths.alt01" 
d="M400 547q0 -45 -27.5 -70t-77.5 -25q-46 0 -75 18.5t-30 58.5h55q3 -39 49 -39q53 0 53 56q0 54 -51 54q-16 0 -29.5 -9.5t-17.5 -24.5h-55l7 157h186v-39h-137l-4 -74q25 27 63 27q44 0 67.5 -25t23.5 -65zM403 73q0 -40 -33 -59t-79 -19q-49 0 -81.5 18.5t-32.5 58.5
q0 49 57 66q-21 6 -35.5 21.5t-14.5 38.5q0 37 31 55t76 18t75.5 -17.5t30.5 -54.5q0 -43 -49 -60q55 -18 55 -66zM343 196q0 19 -14.5 29t-37.5 10q-54 0 -54 -40q0 -19 15.5 -29t38.5 -10q21 0 36.5 10t15.5 30zM349 75q0 22 -16.5 34t-42.5 12t-42.5 -12t-16.5 -33
q0 -44 59 -44q25 0 42 11t17 32zM514 345h-448v44h448v-44z" />
    <glyph glyph-name="seveneighths.alt01" 
d="M293 457h-64l119 227h-152v39h210v-37zM403 73q0 -40 -33 -59t-79 -19q-49 0 -81.5 18.5t-32.5 58.5q0 49 57 66q-21 6 -35.5 21.5t-14.5 38.5q0 37 31 55t76 18t75.5 -17.5t30.5 -54.5q0 -43 -49 -60q55 -18 55 -66zM343 196q0 19 -14.5 29t-37.5 10q-54 0 -54 -40
q0 -19 15.5 -29t38.5 -10q21 0 36.5 10t15.5 30zM349 75q0 22 -16.5 34t-42.5 12t-42.5 -12t-16.5 -33q0 -44 59 -44q25 0 42 11t17 32zM514 345h-448v44h448v-44z" />
    </font>
</defs>
</svg>
